<svg fill="#FFFFFF" fill-rule="evenodd" xmlns="http://www.w3.org/2000/svg" viewBox="0 0 2048 2048">
  <path d="M0 1513V535q0-28 9-56t25-51 38-42 49-30L858 62q81-32 166-32t166 32l737 294q27 11 49 29t38 42 25 52 9 56v978q0 29-9 56t-25 51-38 43-49 29l-737 294q-81 32-166 32t-166-32l-737-294q-27-10-49-29t-38-42-25-51-9-57zm1024 377q63 0 119-22l737-295q18-8 29-24t11-36V535q0-20-11-36t-29-24l-737-295q-58-23-119-23t-119 23L168 475q-18 8-29 24t-11 36v978q0 20 11 36t29 24l737 295q56 22 119 22zM960 874L422 634q-17-8-27-23t-11-35q0-26 18-45t45-19q13 0 27 6l550 244 550-244q12-6 26-6 26 0 45 19t19 45q0 20-10 35t-28 23l-538 240v598q0 26-19 45t-45 19q-26 0-45-19t-19-45V874z" />
</svg>