<svg width="20" height="20" viewBox="0 0 20 20" fill="none" xmlns="http://www.w3.org/2000/svg">
<path d="M19.7763 15.1236C19.8807 14.9669 19.9508 14.7899 19.9818 14.6042C20.0128 14.4184 20.0041 14.2282 19.9564 14.046C19.8872 13.7831 19.7442 13.5645 19.5503 13.4074C19.6438 13.2538 19.7051 13.0829 19.7305 12.905C19.7864 12.5179 19.658 12.1315 19.3689 11.8164C19.144 11.5712 18.8258 11.4363 18.4735 11.4363C18.4326 11.4363 18.3909 11.4385 18.3484 11.4426C18.6154 10.5894 18.7507 9.7005 18.7498 8.80651C18.7498 3.94298 14.807 0 9.94338 0C5.07963 0 1.13643 3.94256 1.13643 8.80651C1.13555 9.69821 1.2702 10.5849 1.53576 11.4362H1.52637C1.17415 11.4362 0.856018 11.571 0.631036 11.8162C0.34207 12.131 0.213469 12.5178 0.269428 12.9048C0.294927 13.0827 0.356253 13.2537 0.449705 13.4073C0.255672 13.5643 0.112711 13.7829 0.0435177 14.0458C-0.00418815 14.2281 -0.0127852 14.4183 0.0182893 14.6041C0.0493638 14.7898 0.119391 14.9669 0.223785 15.1236C0.205236 15.1526 0.188146 15.1825 0.171994 15.2132C-0.00203119 15.5437 -0.0132749 15.9171 0.14043 16.2648C0.373437 16.7918 0.952191 17.2069 2.07627 17.6526C2.77519 17.9298 3.41534 18.1071 3.42097 18.1086C4.34549 18.3484 5.18164 18.4702 5.90546 18.4702C7.09405 18.4702 7.98085 18.1451 8.54721 17.5028C9.5055 17.6548 10.4821 17.6492 11.4386 17.4863C12.0043 18.1395 12.8962 18.4702 14.0948 18.4702C14.8186 18.4702 15.6547 18.3484 16.5792 18.1086C16.5849 18.1071 17.2247 17.9298 17.924 17.6526C19.048 17.2069 19.6269 16.7918 19.8598 16.2648C20.0134 15.9171 20.0023 15.5437 19.8281 15.2132C19.8123 15.1823 19.7948 15.1523 19.7763 15.1236ZM8.14195 16.4972C8.09318 16.5824 8.04097 16.6657 7.98543 16.7467C7.83902 16.961 7.64645 17.1248 7.42292 17.2465C6.99567 17.4795 6.45484 17.5609 5.90546 17.5609C5.03753 17.5609 4.14781 17.3578 3.64918 17.2285C3.62459 17.2221 0.592375 16.3657 0.976273 15.6366C1.04088 15.514 1.14716 15.465 1.28107 15.465C1.82159 15.465 2.80582 16.2699 3.2288 16.2699C3.32331 16.2699 3.39001 16.2297 3.4172 16.1315C3.59748 15.485 0.677293 15.2132 0.923221 14.2771C0.966571 14.1114 1.08434 14.044 1.24982 14.044C1.96447 14.0439 3.56842 15.3008 3.90386 15.3008C3.9296 15.3008 3.94803 15.2932 3.95804 15.2773C3.9595 15.2749 3.96097 15.2726 3.96232 15.2701C4.11978 15.0102 4.02942 14.8211 2.95077 14.1604L2.84719 14.0974C1.66017 13.379 0.827038 12.9466 1.30087 12.4308C1.35537 12.3713 1.43269 12.345 1.52658 12.345C1.63787 12.345 1.77261 12.3822 1.921 12.4447C2.54791 12.7091 3.4168 13.4301 3.77975 13.7445C3.83684 13.7941 3.89357 13.8442 3.94991 13.8946C3.94991 13.8946 4.40947 14.3725 4.68729 14.3725C4.75127 14.3725 4.80555 14.3473 4.84234 14.285C5.0394 13.9528 3.01215 12.4165 2.89784 11.7827C2.82031 11.3532 2.95223 11.1356 3.19608 11.1356C3.31206 11.1356 3.45357 11.185 3.60978 11.2841C4.09434 11.5916 5.02991 13.1993 5.37244 13.8248C5.48727 14.0344 5.68329 14.1229 5.85992 14.1229C6.21036 14.1229 6.48432 13.7746 5.89201 13.3319C5.00177 12.6658 5.3142 11.5771 5.73905 11.5101C5.75718 11.5071 5.77551 11.5057 5.79374 11.5057C6.18014 11.5057 6.35052 12.1715 6.35052 12.1715C6.35052 12.1715 6.85009 13.4259 7.70824 14.2834C8.48688 15.0617 8.59567 15.7004 8.14195 16.4972ZM10.9169 16.6441L10.8724 16.6494L10.7965 16.6581C10.7566 16.6622 10.7166 16.6662 10.6765 16.6699L10.6374 16.6734L10.6016 16.6764L10.551 16.6805L10.495 16.6845L10.4392 16.6882L10.4268 16.689C10.4122 16.6899 10.3976 16.6908 10.3828 16.6915L10.3642 16.6926C10.3469 16.6935 10.3296 16.6943 10.3121 16.6951L10.2515 16.6977L10.1966 16.6996L10.1599 16.7006H10.1413C10.1298 16.7006 10.1184 16.7012 10.107 16.7013H10.0888C10.0774 16.7013 10.066 16.7013 10.0546 16.7018L10.0079 16.7025H9.94275C9.89158 16.7025 9.84052 16.7019 9.78967 16.7009L9.7484 16.7C9.73663 16.7 9.72485 16.6994 9.71329 16.699L9.66952 16.6978L9.61523 16.6957L9.56625 16.6935L9.55364 16.693L9.50706 16.6906C9.49403 16.6899 9.48122 16.6892 9.4683 16.6883L9.43818 16.6865C9.40035 16.6841 9.36253 16.6815 9.3247 16.6786L9.2851 16.6754C9.26843 16.6741 9.25175 16.6726 9.23518 16.6711C9.2157 16.6694 9.19621 16.6676 9.17673 16.6657C9.14411 16.6627 9.11149 16.6593 9.07887 16.6558H9.07731C9.55354 15.5934 9.31271 14.6011 8.35036 13.6396C7.71918 13.0093 7.29933 12.0785 7.21222 11.8741C7.03589 11.2692 6.56926 10.5968 5.79428 10.5968C5.72873 10.5968 5.66329 10.602 5.59858 10.6122C5.25907 10.6657 4.96229 10.8611 4.75054 11.1551C4.5217 10.8705 4.29932 10.6443 4.09821 10.5165C3.79496 10.3243 3.49234 10.2267 3.19754 10.2267C2.82958 10.2267 2.5007 10.3778 2.27145 10.6519L2.26561 10.6589C2.26124 10.6409 2.25707 10.6228 2.2528 10.6047L2.25228 10.6023C2.20864 10.4158 2.17202 10.2277 2.14244 10.0383C2.14244 10.0371 2.14244 10.0358 2.14182 10.0346C2.13952 10.0203 2.13744 10.0059 2.13525 9.99165C2.12884 9.94934 2.12283 9.90693 2.11722 9.86452C2.11472 9.84524 2.11201 9.82596 2.10962 9.80669L2.10253 9.74885C2.10024 9.72957 2.09836 9.71207 2.09628 9.69373L2.09566 9.68914C2.08734 9.61411 2.08004 9.53908 2.07377 9.46385L2.07148 9.43498L2.06783 9.38579C2.06679 9.37235 2.06575 9.35881 2.06502 9.34526C2.06502 9.34203 2.06449 9.3389 2.06439 9.33588C2.06174 9.29816 2.05948 9.26033 2.05762 9.2225C2.05657 9.20281 2.05553 9.18322 2.0547 9.16342L2.05262 9.11173L2.05209 9.0961L2.05043 9.04848L2.04938 9.00794C2.04938 8.99179 2.04855 8.97564 2.04834 8.95949C2.04803 8.94333 2.04761 8.92562 2.04751 8.90853C2.0473 8.89144 2.04751 8.87456 2.04699 8.85757C2.04657 8.84048 2.04699 8.8235 2.04699 8.80651C2.04699 4.44515 5.58283 0.909309 9.94462 0.909309C14.3063 0.909309 17.842 4.44505 17.842 8.80651V8.90853C17.842 8.92551 17.8415 8.9426 17.8412 8.95949C17.8412 8.97355 17.8406 8.98741 17.8402 9.00169C17.8402 9.01419 17.8396 9.0268 17.8392 9.03889C17.8392 9.05483 17.8383 9.07078 17.8378 9.08672V9.08797L17.8356 9.14331C17.8349 9.15946 17.8342 9.17571 17.8334 9.19187L17.8329 9.20333L17.8301 9.25502C17.8239 9.36579 17.8155 9.47635 17.8049 9.58681V9.58816C17.8032 9.6063 17.8014 9.62443 17.7994 9.64256L17.7947 9.68539L17.7855 9.76917L17.7801 9.81158L17.7736 9.8615C17.7712 9.87963 17.7688 9.89787 17.7661 9.9159C17.7634 9.93622 17.7603 9.95643 17.7573 9.97665L17.7501 10.0245L17.7416 10.0787C17.7387 10.0967 17.7355 10.1146 17.7322 10.1325C17.7288 10.1506 17.7261 10.1685 17.7229 10.1864C17.7167 10.2223 17.7101 10.2581 17.7032 10.2939C17.6927 10.3473 17.682 10.4007 17.6709 10.454L17.6595 10.5069C17.6557 10.5245 17.6517 10.5422 17.6477 10.5598C17.4254 10.3438 17.131 10.2261 16.8064 10.2261C16.5118 10.2261 16.2089 10.3236 15.9058 10.5158C15.7047 10.6436 15.4824 10.8699 15.2534 11.1544C15.0414 10.8603 14.7446 10.6649 14.4053 10.6115C14.3406 10.6013 14.2751 10.5961 14.2096 10.5961C13.4344 10.5961 12.9681 11.2685 12.7917 11.8734C12.7041 12.0778 12.2842 13.0085 11.6525 13.6398C10.6907 14.5983 10.4482 15.5861 10.9169 16.6441ZM19.0701 14.5174L19.067 14.5266C19.0591 14.5476 19.0499 14.568 19.0396 14.5878C19.0318 14.6024 19.0233 14.6166 19.0142 14.6303C18.9968 14.6563 18.9777 14.6811 18.957 14.7044C18.9522 14.7098 18.9476 14.7152 18.9422 14.7206C18.9347 14.7286 18.927 14.7365 18.9192 14.7442C18.779 14.8832 18.5651 15.0051 18.3234 15.117C18.296 15.1294 18.2681 15.1418 18.2401 15.1543L18.2122 15.1667C18.1935 15.1749 18.1749 15.183 18.1553 15.1911C18.1366 15.1992 18.1173 15.2073 18.0979 15.2152L18.0397 15.2392C17.9037 15.2952 17.7644 15.3485 17.6285 15.4011L17.5704 15.4237L17.513 15.4463C17.4747 15.4612 17.437 15.4761 17.3999 15.491L17.3446 15.5133L17.2902 15.5355L17.2635 15.5467C17.2457 15.5541 17.2283 15.5615 17.2109 15.5689C16.811 15.7405 16.5233 15.9151 16.5837 16.1316C16.5854 16.1378 16.5873 16.1436 16.5894 16.1493C16.5948 16.1654 16.6022 16.1805 16.6115 16.1948C16.6169 16.2032 16.6231 16.2112 16.6301 16.2185C16.7012 16.2924 16.8305 16.2807 16.9936 16.2221C17.0165 16.2136 17.0393 16.2049 17.062 16.1957L17.0761 16.1899C17.1134 16.174 17.1529 16.1563 17.1933 16.1371C17.2034 16.1324 17.2136 16.1278 17.2238 16.1225C17.4232 16.0249 17.6493 15.8936 17.8735 15.7741C17.9632 15.7256 18.0542 15.6797 18.1463 15.636C18.3587 15.5361 18.5584 15.4652 18.7188 15.4652C18.7942 15.4652 18.8607 15.4806 18.9161 15.5161L18.9254 15.5222C18.9602 15.5467 18.9894 15.5782 19.0111 15.6147C19.0154 15.6216 19.0196 15.629 19.0236 15.6366C19.1029 15.7872 19.0366 15.9431 18.8812 16.096C18.7321 16.2428 18.5001 16.3867 18.2365 16.5199C18.2169 16.5298 18.1973 16.5397 18.1774 16.5494C17.3927 16.9347 16.3651 17.225 16.3508 17.2286C16.077 17.2996 15.6854 17.3927 15.2442 17.4624L15.1789 17.4727L15.1682 17.4742C15.1188 17.4817 15.0693 17.4887 15.0197 17.4952C14.9694 17.5019 14.9185 17.5081 14.8674 17.5138L14.858 17.5149C14.6725 17.5362 14.4863 17.5504 14.2996 17.5572H14.2969C14.2294 17.5596 14.162 17.5608 14.0945 17.5608H14.0166C13.9137 17.5595 13.8109 17.5548 13.7083 17.5469C13.7059 17.5469 13.7033 17.5469 13.7009 17.5462C13.6641 17.5434 13.6274 17.54 13.5907 17.5359C13.5527 17.5319 13.5148 17.5273 13.4769 17.5222C13.452 17.5188 13.4272 17.5151 13.4024 17.511C13.3772 17.5069 13.352 17.5028 13.3269 17.4984L13.2926 17.4919L13.29 17.4914C13.2538 17.4845 13.2179 17.4769 13.182 17.4686C13.1612 17.4639 13.1404 17.4593 13.1199 17.4537L13.1075 17.4506C13.0973 17.4481 13.0874 17.4454 13.0773 17.4427L13.0718 17.4412L13.0397 17.4318C13.028 17.4286 13.0163 17.425 13.0047 17.4216L13.0006 17.4205L12.9703 17.4112C12.9588 17.4076 12.9473 17.4039 12.936 17.4001L12.9081 17.3909L12.8875 17.3837C12.8677 17.3767 12.848 17.3695 12.8285 17.362L12.81 17.3547L12.7947 17.3487C12.7651 17.3368 12.7357 17.3244 12.7066 17.3113L12.6873 17.302L12.6841 17.3005C12.6772 17.2973 12.6705 17.2941 12.6636 17.2912C12.6501 17.2848 12.6368 17.2781 12.6236 17.2713L12.6195 17.2694L12.6003 17.2592C12.5663 17.2414 12.5329 17.2225 12.5002 17.2024L12.4823 17.1913C12.4733 17.1858 12.4643 17.18 12.4556 17.1742L12.4323 17.1588L12.4071 17.1415L12.3921 17.1308C12.3763 17.1195 12.3608 17.1078 12.3456 17.0959L12.3213 17.0772C12.3116 17.0694 12.302 17.0615 12.2925 17.0534C12.2845 17.0469 12.2767 17.04 12.2689 17.0331L12.2682 17.0326C12.2598 17.0252 12.2516 17.0178 12.2433 17.0102C12.2352 17.0028 12.2271 16.9953 12.2191 16.9877L12.2182 16.9867C12.2099 16.9788 12.2017 16.9708 12.1937 16.9626C12.1857 16.9544 12.1775 16.9463 12.1696 16.938C12.1618 16.9297 12.1538 16.9213 12.1461 16.9127C12.1384 16.9041 12.1313 16.8963 12.124 16.8879L12.1216 16.885C12.1145 16.8769 12.1075 16.8687 12.1007 16.8602C12.0858 16.8424 12.0713 16.8242 12.0573 16.8055C12.0432 16.7868 12.0295 16.7676 12.016 16.7481L12.0032 16.7289C11.9861 16.7039 11.9695 16.6787 11.9533 16.6531C11.9412 16.6346 11.9295 16.6161 11.918 16.5972C11.9106 16.5854 11.9035 16.5736 11.8964 16.5619L11.8935 16.5571C11.8867 16.5456 11.8801 16.5344 11.8736 16.523C11.8698 16.5169 11.8663 16.5107 11.863 16.5044C11.8595 16.4979 11.8556 16.4913 11.8519 16.4848L11.846 16.4745L11.8423 16.4678C11.8354 16.4553 11.8285 16.4427 11.8218 16.43C11.8187 16.4243 11.8157 16.4187 11.8124 16.4133L11.8032 16.3953L11.7938 16.3774C11.7703 16.3306 11.7481 16.283 11.7273 16.2349L11.7199 16.2173C11.7151 16.2055 11.7106 16.1938 11.7058 16.1823C11.7035 16.1766 11.7012 16.1711 11.6993 16.1655C11.6881 16.1366 11.6777 16.1074 11.6681 16.0781C11.6647 16.0675 11.6613 16.0572 11.6582 16.0468C11.6507 16.0231 11.6439 15.9993 11.6379 15.9752C11.6305 15.9472 11.6239 15.9189 11.6184 15.8905C11.6172 15.8848 11.6161 15.879 11.6152 15.8735C11.6097 15.8457 11.6054 15.8176 11.6019 15.7895C11.6011 15.784 11.6005 15.7785 11.5998 15.7729L11.5981 15.7561C11.5958 15.734 11.594 15.7118 11.593 15.6896C11.593 15.684 11.5924 15.6783 11.5922 15.6729C11.5917 15.6619 11.5915 15.6508 11.5914 15.6398C11.5856 15.1945 11.8109 14.7664 12.2926 14.2849C13.1508 13.4276 13.6503 12.173 13.6503 12.173C13.6503 12.173 13.6638 12.1204 13.6917 12.0446C13.6955 12.0341 13.6996 12.0233 13.7042 12.0119C13.7205 11.9695 13.7388 11.9278 13.7591 11.8872L13.7632 11.8794C13.7805 11.8448 13.7994 11.811 13.8199 11.7782C13.8247 11.7706 13.8292 11.7631 13.8346 11.7555C13.8499 11.7328 13.866 11.7108 13.883 11.6894C13.8923 11.6778 13.9024 11.6664 13.9125 11.6552C13.9166 11.6508 13.9205 11.6465 13.9248 11.6423C13.9745 11.5909 14.0313 11.549 14.0956 11.5267L14.1037 11.524C14.1091 11.5222 14.1146 11.5206 14.1201 11.519C14.1264 11.5173 14.1328 11.5159 14.1394 11.5145L14.1424 11.5139C14.1559 11.5112 14.1697 11.5094 14.1836 11.5085H14.1847C14.1919 11.5085 14.1992 11.5078 14.2066 11.5078C14.2159 11.5078 14.2245 11.5078 14.2336 11.5087C14.2429 11.5095 14.2522 11.5106 14.2616 11.512C14.3389 11.5243 14.4125 11.5704 14.4759 11.6415C14.4999 11.6685 14.5216 11.6977 14.5406 11.7286C14.5531 11.7486 14.5648 11.7697 14.576 11.792C14.5805 11.8013 14.5847 11.8099 14.5889 11.819C14.5998 11.8426 14.6095 11.8665 14.6181 11.891C14.6384 11.9483 14.6537 12.0073 14.6638 12.0673C14.6726 12.12 14.6778 12.1731 14.6795 12.2264C14.6803 12.2548 14.6803 12.2837 14.6795 12.3128C14.6738 12.448 14.6461 12.5815 14.5975 12.7079C14.5931 12.7195 14.5882 12.7311 14.5835 12.7428C14.5739 12.7664 14.5634 12.7895 14.552 12.8121C14.5436 12.8293 14.5347 12.8466 14.5251 12.8638C14.5189 12.8753 14.5123 12.8867 14.5058 12.8982C14.489 12.9267 14.4708 12.9551 14.4514 12.9833L14.4396 13.0002C14.3935 13.0644 14.3423 13.1246 14.2862 13.1803C14.231 13.2356 14.1718 13.2868 14.1091 13.3335C14.0464 13.3799 13.9875 13.4314 13.9331 13.4874C13.7765 13.6517 13.74 13.7968 13.7753 13.9067C13.7809 13.924 13.7883 13.9408 13.7973 13.9566C13.8078 13.9748 13.8203 13.9914 13.8345 14.0066L13.84 14.0124L13.8456 14.018C13.8512 14.0234 13.8572 14.0287 13.8635 14.0339L13.8698 14.0389C13.8849 14.0506 13.9009 14.061 13.9177 14.0702C13.9226 14.0728 13.927 14.0754 13.9325 14.0779C13.9506 14.0868 13.9693 14.0944 13.9885 14.1005C13.9938 14.1023 13.9991 14.1039 14.0045 14.1055L14.0113 14.1073L14.0207 14.1098L14.0287 14.1118L14.0375 14.1137L14.0461 14.1154L14.0543 14.1168C14.0604 14.1178 14.0666 14.1189 14.0729 14.1196L14.0788 14.1205L14.0897 14.1216L14.0963 14.1223L14.1073 14.123H14.1137L14.1252 14.1237H14.1612L14.1716 14.123L14.1834 14.1223L14.1979 14.121L14.2115 14.1194C14.2146 14.1194 14.2177 14.1186 14.2209 14.1179C14.2625 14.1119 14.3034 14.1008 14.3425 14.085L14.359 14.078C14.3683 14.074 14.3777 14.0697 14.3862 14.0651C14.4046 14.0559 14.4224 14.0455 14.4395 14.0341C14.4633 14.0185 14.4859 14.001 14.5069 13.9817C14.5119 13.9773 14.5168 13.9725 14.5216 13.9679C14.524 13.9656 14.5263 13.9634 14.5286 13.9609C14.5332 13.9562 14.5379 13.9516 14.5424 13.9465C14.5758 13.9098 14.6046 13.8694 14.6284 13.8259C14.8323 13.4551 15.0461 13.0897 15.2694 12.7303L15.3 12.6812L15.331 12.6322C15.3464 12.6072 15.362 12.5828 15.3776 12.5584L15.3932 12.534C15.4451 12.4527 15.4978 12.3719 15.5515 12.2918L15.5833 12.2443C15.647 12.1498 15.7106 12.0579 15.7736 11.9705L15.805 11.9273C15.8736 11.8328 15.945 11.7402 16.019 11.65L16.0484 11.6148C16.0533 11.6089 16.0578 11.6031 16.0631 11.5975C16.0728 11.586 16.0825 11.5749 16.092 11.564C16.0968 11.5585 16.1013 11.5531 16.1064 11.5477L16.1343 11.5162L16.1483 11.5009C16.1623 11.4858 16.1761 11.4713 16.1896 11.4574C16.199 11.448 16.2077 11.4388 16.2166 11.43C16.2695 11.376 16.3277 11.3276 16.3905 11.2856L16.4051 11.2762C16.4191 11.2668 16.4336 11.2581 16.4484 11.2502C16.6947 11.1103 16.8987 11.1 17.0161 11.2174C17.0872 11.2885 17.1266 11.4064 17.1244 11.5704C17.1244 11.5776 17.1244 11.5849 17.1239 11.5924V11.6004C17.1239 11.6079 17.1232 11.6154 17.1226 11.623C17.1226 11.6324 17.1216 11.6417 17.1206 11.651C17.1197 11.6603 17.1192 11.6674 17.1182 11.6757C17.1182 11.678 17.1178 11.6804 17.1174 11.6829C17.1168 11.6901 17.1158 11.6975 17.1148 11.7049C17.1148 11.7071 17.1148 11.7094 17.114 11.7117C17.1128 11.7216 17.1113 11.7314 17.1097 11.7412C17.1085 11.7506 17.107 11.7593 17.1053 11.7685L17.1026 11.784C17.0999 11.7988 17.0964 11.8134 17.0922 11.8278C17.084 11.8548 17.0742 11.8811 17.0627 11.9068C17.0465 11.942 17.0287 11.9763 17.0091 12.0096C16.9983 12.0282 16.9871 12.0464 16.9756 12.0644C16.9637 12.0831 16.9512 12.1019 16.9383 12.121C16.9053 12.1681 16.8711 12.2143 16.8356 12.2594L16.8194 12.2799C16.7614 12.3521 16.7016 12.4229 16.6399 12.492L16.6204 12.5139C16.5942 12.5432 16.5675 12.5726 16.5402 12.6022L16.5197 12.6245C16.506 12.6394 16.4917 12.6543 16.478 12.6694C16.4643 12.6843 16.45 12.6994 16.4357 12.7145L16.3928 12.7596L16.3494 12.805L16.3056 12.8505C16.2762 12.8809 16.2467 12.9113 16.217 12.9417C15.7945 13.3751 15.3493 13.8071 15.1986 14.0764C15.1885 14.0939 15.1795 14.112 15.1713 14.1304C15.1499 14.1794 15.1409 14.2213 15.147 14.2552C15.149 14.2663 15.1529 14.277 15.1586 14.2867C15.1671 14.3014 15.1774 14.315 15.1894 14.3271C15.1949 14.3325 15.2007 14.3375 15.2069 14.3421C15.2379 14.3642 15.2753 14.3755 15.3135 14.3745H15.3253L15.3375 14.3736L15.3497 14.3722L15.3598 14.3707C15.3612 14.3705 15.3627 14.3703 15.364 14.3699L15.3733 14.3681L15.3757 14.3676L15.386 14.3654L15.3896 14.3645C15.3933 14.3635 15.3968 14.3626 15.4005 14.3616C15.4041 14.3605 15.4091 14.3592 15.4135 14.3577C15.4318 14.3522 15.4498 14.3456 15.4674 14.3381C15.4767 14.3344 15.4857 14.3303 15.4947 14.3259C15.4994 14.3238 15.5041 14.3217 15.5084 14.3194L15.5224 14.3125C15.5557 14.2952 15.5883 14.2763 15.6199 14.2561L15.6338 14.2467C15.6385 14.2438 15.6432 14.2408 15.6477 14.2375L15.6615 14.2282L15.6689 14.2231L15.6889 14.209C15.7076 14.1962 15.725 14.183 15.7426 14.1695L15.7442 14.1683L15.7722 14.1466C15.8104 14.1164 15.8467 14.0859 15.8796 14.0573L15.9015 14.0381L15.9035 14.0362L15.9149 14.0261C15.9418 14.0019 15.9658 13.9794 15.9857 13.9609L15.9939 13.9529C16.0011 13.9461 16.0077 13.9397 16.0136 13.9343L16.0253 13.9228L16.0295 13.9187L16.0306 13.9175L16.0428 13.9053L16.0505 13.8973L16.0515 13.8966L16.0551 13.8933L16.0597 13.8891L16.0611 13.8877L16.065 13.8842L16.0863 13.8655L16.0981 13.8549C16.1045 13.8494 16.1106 13.8438 16.1168 13.838L16.131 13.8254C16.1336 13.8233 16.1361 13.821 16.1387 13.8188L16.1536 13.8057L16.1755 13.7864L16.1871 13.7763C16.2325 13.737 16.2876 13.6893 16.3509 13.6357L16.3769 13.6137L16.4197 13.5777L16.4636 13.5411C16.5209 13.4935 16.5826 13.443 16.6478 13.3906L16.6907 13.3562C16.7271 13.3271 16.7645 13.2975 16.8025 13.2677C16.8178 13.2557 16.8333 13.2437 16.8492 13.2319C16.8879 13.2017 16.9269 13.1718 16.9662 13.1423C17.0556 13.0748 17.1478 13.0072 17.2412 12.9413L17.2812 12.9134C17.3092 12.8941 17.3372 12.8747 17.3651 12.8559L17.3904 12.8388C17.4403 12.8049 17.491 12.7719 17.542 12.7397L17.5674 12.7237L17.5925 12.7081C17.6177 12.6925 17.6427 12.6772 17.6676 12.6623L17.6925 12.6474L17.7423 12.6184L17.7912 12.5904L17.8011 12.5849L17.8398 12.5637C17.8559 12.5549 17.872 12.5465 17.888 12.5383L17.9119 12.526L17.9351 12.5143C17.9432 12.5104 17.9513 12.5064 17.9592 12.5025C18.0115 12.4767 18.0648 12.4529 18.119 12.4312C18.1337 12.425 18.1483 12.4194 18.1628 12.4145L18.2055 12.3995C18.2183 12.3952 18.2308 12.3911 18.2428 12.3875L18.247 12.3862C18.2535 12.3841 18.2599 12.3823 18.2663 12.3806L18.2681 12.3801C18.2815 12.3762 18.2947 12.3729 18.3077 12.3698H18.3087C18.3456 12.3609 18.3831 12.3545 18.4209 12.3507C18.4383 12.3489 18.4557 12.348 18.4732 12.3481H18.482C18.4936 12.3481 18.5049 12.3488 18.5161 12.35C18.5212 12.35 18.5263 12.351 18.5313 12.3516H18.5334C18.5384 12.3523 18.5434 12.353 18.5484 12.3541C18.5533 12.3551 18.5583 12.3559 18.5631 12.357H18.5646C18.5695 12.3581 18.5739 12.3593 18.579 12.3608C18.6055 12.3682 18.6307 12.3797 18.6538 12.3947C18.6652 12.4021 18.6758 12.4104 18.6856 12.4197L18.6884 12.4224C18.6903 12.424 18.6921 12.4258 18.6937 12.4276L18.6988 12.4331C18.7407 12.477 18.7753 12.5273 18.8014 12.5821L18.8053 12.5915C18.8142 12.6124 18.8212 12.6339 18.8262 12.6559C18.841 12.7232 18.8352 12.7935 18.8097 12.8576C18.8 12.8834 18.7882 12.9083 18.7744 12.9321C18.742 12.9867 18.7035 13.0374 18.6599 13.0834L18.6506 13.0933C18.6367 13.1079 18.6223 13.1224 18.6072 13.137C18.6006 13.1436 18.5936 13.1501 18.5866 13.1566L18.5652 13.1763L18.5541 13.1862C18.5272 13.2102 18.4996 13.2334 18.4716 13.2559C18.4546 13.2697 18.4375 13.2831 18.4202 13.2964C18.3591 13.3431 18.2969 13.3881 18.2335 13.4315C18.1953 13.4578 18.1567 13.4835 18.1179 13.5089C18.0221 13.5718 17.9253 13.6331 17.8276 13.6927C17.6225 13.8188 17.3952 13.9536 17.1529 14.1002L17.0902 14.1383C17.0215 14.1801 16.9567 14.2202 16.8956 14.2583L16.8649 14.2776L16.8067 14.3149C16.7682 14.3396 16.7297 14.3645 16.6913 14.3894L16.6603 14.4098C16.6452 14.4196 16.6302 14.4296 16.6152 14.4396L16.6005 14.449L16.5555 14.4793L16.5316 14.4957L16.5037 14.5151L16.4778 14.5331C16.4343 14.5638 16.3939 14.5931 16.3567 14.6209L16.3427 14.6316C16.3208 14.6481 16.2992 14.665 16.2778 14.6822C16.2456 14.7082 16.2162 14.733 16.1898 14.7568L16.1769 14.7686C16.1695 14.7754 16.1622 14.7821 16.1552 14.7888C16.1505 14.7935 16.146 14.7982 16.141 14.8027L16.1343 14.8093C16.1194 14.8243 16.1048 14.8397 16.0907 14.8554L16.0839 14.8633C16.0685 14.881 16.0552 14.898 16.0435 14.9146L16.0383 14.922C16.0292 14.9353 16.0207 14.9491 16.0131 14.9633C16.0111 14.9668 16.0094 14.9703 16.0076 14.9739L16.0025 14.9845L15.999 14.9922L15.9969 14.9974L15.9951 15.0021L15.9927 15.0085C15.9862 15.0261 15.9817 15.0444 15.9791 15.063L15.9783 15.0694L15.9777 15.0755V15.1083C15.9777 15.111 15.9777 15.1137 15.9784 15.1166L15.9789 15.1217C15.9789 15.1244 15.9796 15.127 15.98 15.1299C15.9804 15.1326 15.9811 15.1375 15.982 15.1413V15.1419C15.9827 15.1455 15.9834 15.1491 15.9843 15.1527C15.9853 15.1564 15.9862 15.1605 15.9874 15.1643C15.9894 15.1717 15.9919 15.179 15.9945 15.1863C15.9961 15.1906 15.9977 15.1949 15.9995 15.1992C15.9995 15.2 16.0001 15.201 16.0005 15.2018L16.0043 15.2102L16.0095 15.2218C16.0151 15.2338 16.0212 15.2454 16.0279 15.2568L16.0348 15.2687L16.0419 15.2806C16.0431 15.2825 16.0446 15.2844 16.0461 15.2862L16.0484 15.2886L16.051 15.291L16.0538 15.2931C16.0577 15.2959 16.062 15.2981 16.0665 15.2996C16.0689 15.3005 16.0714 15.3011 16.0739 15.3017C16.134 15.3153 16.2576 15.2656 16.4218 15.1789C16.4311 15.1739 16.4413 15.1686 16.4512 15.1632L16.5012 15.1359L16.5256 15.1224C16.543 15.1131 16.5607 15.1026 16.5788 15.0923L16.6119 15.0736C16.8289 14.9487 17.0882 14.7882 17.3562 14.6315C17.3813 14.6168 17.4066 14.6021 17.4318 14.5876L17.4824 14.5552C17.5412 14.5215 17.6003 14.4883 17.6596 14.4555C17.7343 14.4144 17.8095 14.3744 17.8855 14.3356L17.9351 14.3105C17.968 14.2942 18.0006 14.2784 18.0328 14.263C18.0952 14.2334 18.1582 14.2053 18.222 14.1787L18.2569 14.1645L18.2611 14.1628C18.446 14.0896 18.6137 14.0444 18.7494 14.0444C18.7787 14.044 18.808 14.0465 18.8369 14.0516H18.8378C18.8471 14.0532 18.8556 14.0551 18.8642 14.0572H18.8658C18.888 14.0628 18.9095 14.0708 18.93 14.0811C18.9586 14.0959 18.9844 14.1156 19.0061 14.1394C19.0161 14.1504 19.025 14.1624 19.0328 14.1751C19.0474 14.1975 19.0589 14.2218 19.0671 14.2473C19.0704 14.2572 19.0734 14.2668 19.0764 14.2772C19.0984 14.356 19.0962 14.4397 19.0701 14.5174Z" fill="#FF9D00"/>
<path fill-rule="evenodd" clip-rule="evenodd" d="M17.8408 8.85757V8.80641C17.8408 4.44494 14.3063 0.909302 9.94452 0.909302C5.58285 0.909302 2.047 4.44514 2.047 8.80641V8.8235C2.04679 8.83486 2.04668 8.84622 2.047 8.85757C2.04751 8.87456 2.04768 8.89155 2.04752 8.90853L2.04805 8.94605L2.04835 8.95949C2.04835 8.96574 2.04857 8.97189 2.04878 8.97814C2.04909 8.98804 2.04929 8.99804 2.04929 9.00794L2.05044 9.04848L2.0521 9.0961L2.05262 9.11173L2.05471 9.16102V9.16342C2.05554 9.1827 2.05659 9.20187 2.05753 9.22105L2.05763 9.22251C2.05867 9.2421 2.05972 9.26179 2.06097 9.28149C2.06201 9.29962 2.06304 9.31775 2.0644 9.33588L2.06462 9.33911C2.06552 9.35464 2.06657 9.37027 2.06773 9.3858L2.06805 9.38997L2.07148 9.43498L2.07181 9.4379C2.07243 9.44666 2.07305 9.45541 2.07388 9.46385C2.08011 9.53898 2.08738 9.61412 2.09567 9.68904L2.09618 9.69373L2.10254 9.74886L2.10963 9.80669L2.11483 9.84598L2.11723 9.86442C2.12279 9.90694 2.1288 9.94935 2.13526 9.99166L2.13569 9.99447L2.14182 10.0345C2.17158 10.2251 2.20842 10.4145 2.25228 10.6024L2.25282 10.6047L2.25614 10.6188L2.26562 10.6589L2.27146 10.6519C2.50071 10.3778 2.82959 10.2267 3.19754 10.2267C3.49245 10.2267 3.79497 10.3243 4.09821 10.5165C4.29933 10.6443 4.52171 10.8705 4.75055 11.1551C4.9623 10.8611 5.25908 10.6656 5.59858 10.6122C5.66332 10.602 5.72875 10.5969 5.79428 10.5968C6.56917 10.5968 7.0359 11.2692 7.21222 11.8742C7.29933 12.0785 7.71918 13.0093 8.35234 13.6389C9.3148 14.6004 9.55562 15.5926 9.07929 16.655H9.08096C9.11337 16.6586 9.14598 16.6619 9.17881 16.665C9.19829 16.6668 9.21768 16.6687 9.23727 16.6704L9.24415 16.671L9.28718 16.6747L9.32678 16.6778C9.36451 16.6807 9.40233 16.6834 9.44026 16.6858L9.47038 16.6876L9.49424 16.689L9.50904 16.6899L9.55562 16.6923L9.56833 16.6928L9.61721 16.695L9.6716 16.6971L9.71527 16.6983L9.72256 16.6985C9.73183 16.6989 9.74111 16.6992 9.75038 16.6992L9.76039 16.6996C9.82187 16.701 9.88325 16.7017 9.94473 16.7016H10.01L10.0565 16.7011C10.068 16.7006 10.0794 16.7006 10.0909 16.7006H10.1091L10.1248 16.7002C10.1309 16.7 10.1371 16.6998 10.1433 16.6998H10.162L10.1986 16.6988L10.2536 16.697L10.3141 16.6942C10.3316 16.6936 10.3489 16.6927 10.3662 16.6918L10.3849 16.6907L10.4126 16.6892L10.4289 16.6883L10.4412 16.6875L10.4971 16.6838L10.553 16.6798L10.6037 16.6757L10.6394 16.6727L10.6786 16.6691C10.744 16.6633 10.8092 16.6564 10.8745 16.6486L10.919 16.6433C10.4501 15.5854 10.6928 14.5975 11.6512 13.6398C12.283 13.0085 12.7029 12.0778 12.7904 11.8733C12.9668 11.2685 13.4333 10.5961 14.2084 10.5961C14.2739 10.5961 14.3394 10.6013 14.4042 10.6115C14.7433 10.6648 15.0401 10.8603 15.2522 11.1544C15.4811 10.8699 15.7034 10.6435 15.9046 10.5157C16.2078 10.3236 16.5106 10.226 16.8052 10.226C17.1299 10.226 17.4242 10.3438 17.6464 10.5598C17.6505 10.5422 17.6545 10.5246 17.6583 10.5069L17.6697 10.4541C17.6737 10.4348 17.6778 10.4156 17.6817 10.3963C17.6885 10.3622 17.6954 10.3281 17.702 10.2938C17.7089 10.2581 17.7154 10.2223 17.7217 10.1864L17.7249 10.167C17.7269 10.1556 17.7288 10.1441 17.731 10.1325C17.7345 10.1146 17.7374 10.0967 17.7403 10.0786L17.7415 10.0717L17.7489 10.0245L17.7562 9.97665V9.97623C17.7615 9.94091 17.7665 9.90558 17.7712 9.87026L17.7723 9.8615L17.7789 9.81169L17.7842 9.76918L17.7936 9.68539L17.7972 9.65173L17.7982 9.64256C17.8002 9.62443 17.802 9.6063 17.8037 9.58817V9.58671C17.8051 9.57233 17.8065 9.55785 17.8078 9.54336C17.8152 9.46125 17.8214 9.37871 17.8264 9.29587C17.8274 9.28232 17.8281 9.26867 17.8289 9.25502V9.25439L17.8316 9.20323L17.8322 9.19177C17.8339 9.15717 17.8354 9.12257 17.8365 9.08798V9.08673L17.837 9.07318C17.8376 9.06182 17.838 9.05036 17.838 9.03889L17.8382 9.03431C17.8386 9.02358 17.839 9.01253 17.839 9.00159L17.8393 8.99221C17.8396 8.98127 17.84 8.97043 17.84 8.95949L17.8402 8.95021C17.8405 8.93635 17.8408 8.92239 17.8408 8.90853V8.85757ZM7.98574 16.7467C8.61119 15.8295 8.5668 15.1411 7.70876 14.2835C6.85053 13.4258 6.35105 12.1716 6.35105 12.1716C6.35105 12.1716 6.16464 11.4431 5.73947 11.51C5.31431 11.5769 5.00242 12.6655 5.89266 13.3319C6.78279 13.9983 5.7155 14.4501 5.37287 13.8248C5.03024 13.1994 4.09476 11.5918 3.60979 11.2842C3.12481 10.9767 2.78374 11.1491 2.89805 11.7829C2.95485 12.0975 3.48298 12.6344 3.9764 13.1361C4.47701 13.645 4.94186 14.1177 4.84245 14.285C4.64519 14.6171 3.95045 13.8947 3.95045 13.8947C3.95045 13.8947 1.77502 11.915 1.3015 12.4309C0.864874 12.9064 1.53815 13.3106 2.57565 13.9337C2.66381 13.9866 2.75468 14.0412 2.84773 14.0975C4.03475 14.8161 4.12707 15.0057 3.95857 15.2775C3.89635 15.378 3.49901 15.1395 3.01028 14.8461C2.17715 14.3458 1.07861 13.6863 0.923449 14.2766C0.78923 14.7876 1.59745 15.1006 2.33044 15.3846C2.94109 15.6211 3.49965 15.8375 3.41743 16.1311C3.33229 16.4356 2.87076 16.1816 2.3663 15.904C1.79993 15.5924 1.17938 15.251 0.976281 15.6362C0.592488 16.3646 3.62418 17.2222 3.64919 17.2285C4.62873 17.4826 7.11635 18.0209 7.98574 16.7467ZM12.0149 16.7467C11.3895 15.8295 11.4338 15.1411 12.292 14.2835C13.1501 13.4258 13.6496 12.1716 13.6496 12.1716C13.6496 12.1716 13.836 11.4431 14.2612 11.51C14.6863 11.5769 14.9982 12.6655 14.1081 13.3319C13.2179 13.9983 14.2852 14.4501 14.6278 13.8248C14.9705 13.1994 15.9054 11.5918 16.3903 11.2842C16.8753 10.9767 17.2166 11.1491 17.1022 11.7829C17.0455 12.0975 16.5173 12.6344 16.0238 13.1362C15.5232 13.6451 15.0584 14.1177 15.1577 14.285C15.3549 14.6171 16.0502 13.8943 16.0502 13.8943C16.0502 13.8943 18.2255 11.9147 18.6992 12.4306C19.1358 12.906 18.4625 13.3103 17.4249 13.9334C17.3341 13.9879 17.2435 14.0425 17.1529 14.0972C15.9659 14.8158 15.8736 15.0054 16.042 15.2771C16.1043 15.3777 16.5016 15.1391 16.9903 14.8457C17.8235 14.3455 18.922 13.6859 19.0772 14.2763C19.2115 14.7873 18.4032 15.1003 17.6702 15.3843C17.0596 15.6208 16.501 15.8371 16.5831 16.1308C16.6682 16.4352 17.1296 16.1812 17.6339 15.9036C18.2003 15.5919 18.821 15.2504 19.024 15.6359C19.4079 16.3647 16.3756 17.2214 16.3512 17.2277C15.3716 17.4826 12.884 18.0209 12.0149 16.7467Z" fill="#FFD21E"/>
<path fill-rule="evenodd" clip-rule="evenodd" d="M12.5092 6.65691C12.6324 6.70047 12.724 6.83302 12.8111 6.95921C12.9289 7.12969 13.0385 7.2884 13.2067 7.19899C13.4051 7.09343 13.5678 6.93149 13.6741 6.7335C13.7805 6.53551 13.8258 6.31049 13.8043 6.08679C13.7883 5.91952 13.7353 5.7579 13.6493 5.61357C13.5632 5.46923 13.4462 5.34578 13.3067 5.25212C13.1672 5.15846 13.0086 5.09691 12.8425 5.07191C12.6763 5.04691 12.5066 5.05909 12.3457 5.10756C12.1848 5.15601 12.0368 5.23952 11.912 5.35208C11.7873 5.46465 11.689 5.60346 11.6244 5.75854C11.5598 5.91362 11.5303 6.08111 11.5381 6.24894C11.546 6.41682 11.591 6.58073 11.6698 6.72912C11.7478 6.87574 11.9208 6.80655 12.1033 6.7335C12.2464 6.67629 12.3955 6.61668 12.5092 6.65691ZM7.1556 6.65691C7.03243 6.70047 6.94083 6.83312 6.85372 6.95921C6.73596 7.1298 6.62623 7.2884 6.45815 7.19899C6.20862 7.06686 6.01727 6.84646 5.92136 6.58094C5.82546 6.31537 5.83189 6.0236 5.93939 5.76251C6.04689 5.50142 6.24776 5.28973 6.50285 5.16868C6.75795 5.04763 7.04898 5.02593 7.31921 5.10777C7.5344 5.17257 7.72551 5.29969 7.86848 5.47307C8.01146 5.64646 8.09972 5.85832 8.12233 6.0819C8.14484 6.30547 8.10055 6.53071 7.99509 6.72912C7.91704 6.87574 7.74406 6.80655 7.56149 6.7336C7.41831 6.67629 7.2694 6.61668 7.1556 6.65691ZM11.681 11.5287C12.5296 10.8602 12.8412 9.76873 12.8412 9.09639C12.8412 8.56494 12.4837 8.73219 11.9113 9.01563L11.879 9.03157C11.3536 9.29178 10.6541 9.63827 9.88634 9.63827C9.11844 9.63827 8.41901 9.29178 7.8937 9.03147C7.30274 8.73875 6.93208 8.55514 6.93208 9.09649C6.93208 9.79009 7.26367 10.929 8.17381 11.5906C8.29396 11.3468 8.46309 11.1305 8.67067 10.955C8.87814 10.7795 9.1197 10.6488 9.38 10.5708C9.47087 10.5437 9.56445 10.7001 9.66022 10.8603C9.75265 11.0147 9.84716 11.1727 9.94324 11.1727C10.0457 11.1727 10.1462 11.017 10.2445 10.8651C10.3471 10.7062 10.4473 10.5514 10.5441 10.5824C11.0313 10.7388 11.4388 11.078 11.681 11.5287Z" fill="#32343D"/>
<path d="M11.6808 11.5286C11.2389 11.8769 10.6514 12.1104 9.88647 12.1104C9.16775 12.1104 8.60566 11.9043 8.17383 11.5905C8.29398 11.3468 8.46311 11.1304 8.67069 10.955C8.87816 10.7795 9.11971 10.6487 9.38002 10.5708C9.55842 10.5175 9.74756 11.1727 9.94326 11.1727C10.1527 11.1727 10.3546 10.5218 10.5441 10.5823C11.0312 10.7389 11.4386 11.078 11.6808 11.5286Z" fill="#FF323D"/>
<path fill-rule="evenodd" clip-rule="evenodd" d="M5.12651 7.60239C5.02555 7.66991 4.90948 7.71149 4.78859 7.72337C4.6677 7.73536 4.54573 7.71722 4.43354 7.67064C4.34384 7.63365 4.26234 7.57925 4.19373 7.51058C4.12511 7.44201 4.07073 7.36052 4.03369 7.2708C3.98722 7.15857 3.96914 7.03665 3.98109 6.91577C3.99303 6.79489 4.03462 6.6788 4.10216 6.57783C4.18331 6.45632 4.29867 6.36163 4.43366 6.30571C4.56865 6.24979 4.71719 6.23516 4.86048 6.2637C5.00379 6.29222 5.1354 6.36261 5.23868 6.46591C5.34196 6.56928 5.41227 6.701 5.44069 6.84428C5.46917 6.98757 5.45452 7.13606 5.39863 7.27101C5.34272 7.40596 5.24795 7.52121 5.12651 7.60239ZM15.6944 7.60239C15.5935 7.66991 15.4774 7.71149 15.3565 7.72337C15.2355 7.73536 15.1136 7.71722 15.0014 7.67064C14.9116 7.63355 14.8301 7.57925 14.7616 7.51058C14.693 7.44201 14.6386 7.36052 14.6015 7.2708C14.5551 7.15857 14.5371 7.03665 14.549 6.91577C14.561 6.79489 14.6026 6.6788 14.67 6.57783C14.7306 6.48696 14.8108 6.41078 14.9044 6.35459C14.9981 6.29844 15.1031 6.26377 15.2118 6.25309C15.3205 6.2424 15.4303 6.25596 15.533 6.2928C15.6359 6.32965 15.7292 6.38884 15.8065 6.46612C15.9098 6.56939 15.9802 6.701 16.0086 6.84428C16.0372 6.98757 16.0225 7.13606 15.9665 7.27101C15.9106 7.40596 15.8159 7.52121 15.6944 7.60239Z" fill="#FFAD03"/>
</svg>
