<?xml version="1.0" encoding="UTF-8"?>
<svg version="1.1" xmlns="http://www.w3.org/2000/svg" width="16" height="16">
<path d="M0 0 C2.359375 0.7890625 2.359375 0.7890625 4.546875 3.0390625 C5.54125873 6.40466896 5.30961888 8.42666106 4.359375 11.7890625 C3.369375 13.2740625 3.369375 13.2740625 2.359375 14.7890625 C-1.76063292 14.33128384 -3.98269434 14.015495 -6.640625 10.7890625 C-7.58984375 8.8515625 -7.58984375 8.8515625 -8.328125 6.7890625 C-8.57949219 6.1084375 -8.83085937 5.4278125 -9.08984375 4.7265625 C-9.640625 2.7890625 -9.640625 2.7890625 -9.640625 -0.2109375 C-6.39536446 -1.83356777 -3.44663749 -0.7471035 0 0 Z " fill="#FEDC51" transform="translate(10.640625,1.2109375)"/>
<path d="M0 0 C0.87527344 0.18175781 1.75054688 0.36351563 2.65234375 0.55078125 C3.53019531 0.71964844 4.40804688 0.88851563 5.3125 1.0625 C7.58984375 1.86328125 7.58984375 1.86328125 9.58984375 4.86328125 C9.71484375 7.55078125 9.71484375 7.55078125 9.58984375 9.86328125 C7.60984375 10.85328125 7.60984375 10.85328125 5.58984375 11.86328125 C5.91984375 8.89328125 6.24984375 5.92328125 6.58984375 2.86328125 C3.47199262 3.50972786 3.47199262 3.50972786 2.58984375 5.86328125 C0.02734375 6.48828125 0.02734375 6.48828125 -2.41015625 6.86328125 C-3.40015625 5.21328125 -4.39015625 3.56328125 -5.41015625 1.86328125 C-2.41015625 -0.13671875 -2.41015625 -0.13671875 0 0 Z " fill="#F9D23A" transform="translate(5.41015625,0.13671875)"/>
<path d="M0 0 C0.6875 1.6875 0.6875 1.6875 1 4 C-0.4375 6.75 -0.4375 6.75 -2 9 C-7.75 8.25 -7.75 8.25 -10 6 C-9.36191406 5.81824219 -8.72382813 5.63648438 -8.06640625 5.44921875 C-7.24011719 5.19785156 -6.41382813 4.94648438 -5.5625 4.6875 C-4.32693359 4.32205078 -4.32693359 4.32205078 -3.06640625 3.94921875 C-2.38449219 3.63597656 -1.70257813 3.32273437 -1 3 C-0.67 2.01 -0.34 1.02 0 0 Z " fill="#E79562" transform="translate(15,7)"/>
<path d="M0 0 C2.97 1.98 2.97 1.98 6 4 C5.67 4.66 5.34 5.32 5 6 C3.35 6 1.7 6 0 6 C-1.24546405 3.50907189 -0.7767578 2.58919267 0 0 Z " fill="#FFC862" transform="translate(5,7)"/>
<path d="M0 0 C2.1875 0.3125 2.1875 0.3125 4 1 C3.01 2.32 2.02 3.64 1 5 C-0.32 4.34 -1.64 3.68 -3 3 C-1.75 1.4375 -1.75 1.4375 0 0 Z " fill="#A5CA3B" transform="translate(3,0)"/>
</svg>
