<svg width="20" height="20" viewBox="0 0 20 20" fill="none" xmlns="http://www.w3.org/2000/svg">
<path d="M14.5565 0.833344H18.1855V4.46236H14.5565V0.833344Z" fill="black"/>
<path d="M16.371 0.833344H20V4.46236H16.371V0.833344Z" fill="#F7D046"/>
<path d="M0.0402222 0.833344H3.66924V4.46236H0.0402222V0.833344ZM0.0402222 4.46236H3.66924V8.09138H0.0402222V4.46236ZM0.0402222 8.09138H3.66924V11.7205H0.0402222V8.09138ZM0.0402222 11.7205H3.66924V15.3495H0.0402222V11.7205Z" fill="black"/>
<path d="M0.0402222 15.3495H3.66924V18.9785H0.0402222V15.3495Z" fill="black"/>
<path d="M1.85474 0.833344H5.48376V4.46236H1.85474V0.833344Z" fill="#F7D046"/>
<path d="M16.3709 4.46234H20V8.09136H16.3709V4.46234ZM1.85474 4.46234H5.48376V8.09136H1.85474V4.46234Z" fill="#F2A73B"/>
<path d="M10.9274 4.46234H14.5564V8.09136H10.9274V4.46234Z" fill="black"/>
<path d="M12.742 4.46234H16.3711V8.09136H12.742V4.46234ZM5.48389 4.46234H9.11291V8.09136H5.48389V4.46234Z" fill="#F2A73B"/>
<path d="M9.11291 8.09149H12.7419V11.7205H9.11291V8.09149ZM12.7419 8.09149H16.3711V11.7205H12.7419V8.09149ZM5.48389 8.09149H9.11291V11.7205H5.48389V8.09149Z" fill="#EE792F"/>
<path d="M7.29846 11.7205H10.9275V15.3495H7.29846V11.7205Z" fill="black"/>
<path d="M9.11285 11.7205H12.7419V15.3495H9.11285V11.7205Z" fill="#EB5829"/>
<path d="M16.3709 8.09149H20V11.7205H16.3709V8.09149ZM1.85474 8.09149H5.48376V11.7205H1.85474V8.09149Z" fill="#EE792F"/>
<path d="M14.5565 11.7205H18.1855V15.3495H14.5565V11.7205Z" fill="black"/>
<path d="M16.371 11.7205H20V15.3495H16.371V11.7205Z" fill="#EB5829"/>
<path d="M14.5565 15.3495H18.1855V18.9785H14.5565V15.3495Z" fill="black"/>
<path d="M1.85474 11.7205H5.48376V15.3495H1.85474V11.7205Z" fill="#EB5829"/>
<path d="M16.3709 15.3495H20V18.9785H16.3709V15.3495ZM1.85474 15.3495H5.48376V18.9785H1.85474V15.3495Z" fill="#EA3326"/>
</svg>
