<svg width="20" height="19" viewBox="0 0 20 19" fill="none" xmlns="http://www.w3.org/2000/svg">
<path d="M14.8235 1.09672C14.4502 0.916424 14.0453 0.820312 13.6266 0.820312H10.3288C10.9783 0.820312 11.5785 1.16681 11.9032 1.72929L16.1329 9.05513C16.2829 9.31495 16.3619 9.60969 16.3619 9.9097C16.3619 10.2097 16.2829 10.5045 16.1329 10.7643L11.9025 18.0913C11.5778 18.6538 10.9776 19.0003 10.3281 19.0003L13.6266 19.0002C14.0455 19.0002 14.4506 18.9041 14.8241 18.7237C14.8801 18.6966 14.9355 18.6676 14.9901 18.6367C15.4082 18.3913 15.7536 18.055 15.99 17.6368L19.6078 11.3738C19.8623 10.9284 19.9987 10.4284 19.9987 9.91032C19.9987 9.39219 19.8623 8.89224 19.6078 8.44683L15.99 2.18382C15.7446 1.76568 15.3991 1.42026 14.9901 1.18392C14.9353 1.15297 14.8798 1.12388 14.8235 1.09672Z" fill="#D9D9D9"/>
<path d="M14.8235 1.09672C14.4502 0.916424 14.0453 0.820312 13.6266 0.820312H10.3288C10.9783 0.820312 11.5785 1.16681 11.9032 1.72929L16.1329 9.05513C16.2829 9.31495 16.3619 9.60969 16.3619 9.9097C16.3619 10.2097 16.2829 10.5045 16.1329 10.7643L11.9025 18.0913C11.5778 18.6538 10.9776 19.0003 10.3281 19.0003L13.6266 19.0002C14.0455 19.0002 14.4506 18.9041 14.8241 18.7237C14.8801 18.6966 14.9355 18.6676 14.9901 18.6367C15.4082 18.3913 15.7536 18.055 15.99 17.6368L19.6078 11.3738C19.8623 10.9284 19.9987 10.4284 19.9987 9.91032C19.9987 9.39219 19.8623 8.89224 19.6078 8.44683L15.99 2.18382C15.7446 1.76568 15.3991 1.42026 14.9901 1.18392C14.9353 1.15297 14.8798 1.12388 14.8235 1.09672Z" fill="url(#paint0_linear_1598_10619)"/>
<path d="M5.17256 1.09672C5.54588 0.916424 5.95083 0.820312 6.36951 0.820312H9.6673C9.0178 0.820312 8.41764 1.16681 8.09288 1.72929L3.86318 9.05513C3.71317 9.31495 3.6342 9.60969 3.6342 9.9097C3.6342 10.2097 3.71317 10.5045 3.86318 10.7643L8.09355 18.0913C8.4183 18.6538 9.01847 19.0003 9.66797 19.0003L6.36951 19.0002C5.95063 19.0002 5.5455 18.9041 5.17204 18.7237C5.11596 18.6966 5.0606 18.6676 5.00601 18.6367C4.58787 18.3913 4.24245 18.055 4.00611 17.6368L0.388295 11.3738C0.133776 10.9284 -0.00257397 10.4284 -0.00257397 9.91032C-0.00257397 9.39219 0.133776 8.89224 0.388295 8.44683L4.00611 2.18382C4.25154 1.76568 4.59696 1.42026 5.00601 1.18392C5.06077 1.15297 5.11631 1.12388 5.17256 1.09672Z" fill="#D9D9D9"/>
<path d="M5.17256 1.09672C5.54588 0.916424 5.95083 0.820312 6.36951 0.820312H9.6673C9.0178 0.820312 8.41764 1.16681 8.09288 1.72929L3.86318 9.05513C3.71317 9.31495 3.6342 9.60969 3.6342 9.9097C3.6342 10.2097 3.71317 10.5045 3.86318 10.7643L8.09355 18.0913C8.4183 18.6538 9.01847 19.0003 9.66797 19.0003L6.36951 19.0002C5.95063 19.0002 5.5455 18.9041 5.17204 18.7237C5.11596 18.6966 5.0606 18.6676 5.00601 18.6367C4.58787 18.3913 4.24245 18.055 4.00611 17.6368L0.388295 11.3738C0.133776 10.9284 -0.00257397 10.4284 -0.00257397 9.91032C-0.00257397 9.39219 0.133776 8.89224 0.388295 8.44683L4.00611 2.18382C4.25154 1.76568 4.59696 1.42026 5.00601 1.18392C5.06077 1.15297 5.11631 1.12388 5.17256 1.09672Z" fill="url(#paint1_linear_1598_10619)"/>
<path d="M16.3627 9.9097C16.3627 9.60969 16.2837 9.31495 16.1337 9.05513L11.904 1.72929C11.5793 1.16681 10.9791 0.820312 10.3296 0.820312H9.66983C9.02033 0.820312 8.42016 1.16681 8.09541 1.72929L3.8657 9.05513C3.71569 9.31495 3.63672 9.60969 3.63672 9.9097C3.63672 10.2097 3.71569 10.5045 3.8657 10.7643L8.09607 18.0913C8.42083 18.6538 9.02099 19.0003 9.67049 19.0003H10.3289C10.9784 19.0003 11.5786 18.6538 11.9034 18.0913L16.1337 10.7643C16.2837 10.5045 16.3627 10.2097 16.3627 9.9097Z" fill="url(#paint2_linear_1598_10619)"/>
<g filter="url(#filter0_d_1598_10619)">
<path d="M9.2748 6.59238L8.95665 5.61975C8.92938 5.54703 8.88393 5.4834 8.8203 5.43795C8.75667 5.3925 8.67486 5.36523 8.60214 5.36523C8.52942 5.36523 8.44761 5.3925 8.38398 5.43795C8.32035 5.4834 8.26581 5.54703 8.24763 5.61975L7.92948 6.59238C7.82949 6.88326 7.66587 7.15596 7.4568 7.37412C7.23864 7.59228 6.97503 7.76499 6.68415 7.86498L5.71153 8.18313C5.63881 8.2104 5.57517 8.25586 5.52972 8.31949C5.48427 8.38312 5.457 8.46492 5.457 8.53764C5.457 8.61036 5.48427 8.69218 5.52972 8.75581C5.57517 8.81944 5.63881 8.87398 5.71153 8.89216L6.68415 9.21031C6.93867 9.29212 7.16592 9.42847 7.3659 9.60118C7.40226 9.63754 7.43862 9.66481 7.47498 9.70117C7.65678 9.88297 7.80222 10.1011 7.90221 10.3375C7.92039 10.3829 7.93857 10.4375 7.95675 10.492L8.2749 11.4646C8.30217 11.5283 8.33853 11.5919 8.39307 11.6373C8.39307 11.6373 8.40216 11.6464 8.41125 11.6555C8.47488 11.701 8.55669 11.7282 8.62941 11.7282C8.70213 11.7282 8.78394 11.701 8.84757 11.6555C8.9112 11.6101 8.96574 11.5464 8.98392 11.4737L9.30207 10.5011C9.40206 10.2011 9.56568 9.93751 9.78384 9.71935C10.002 9.50119 10.2747 9.32848 10.5656 9.23758L11.5382 8.91943C11.6109 8.89216 11.6746 8.84671 11.72 8.78308C11.7655 8.71945 11.7927 8.63764 11.7927 8.56492C11.7927 8.4922 11.7655 8.41039 11.72 8.34676C11.6746 8.28313 11.6109 8.22859 11.5382 8.21041H11.52L10.5474 7.89225C10.2474 7.79226 9.98382 7.62864 9.76566 7.41048C9.5475 7.19232 9.37479 6.91962 9.28389 6.62874L9.2748 6.59238ZM12.7199 12.6009L13.4198 12.8281H13.438C13.4926 12.8463 13.538 12.8827 13.5744 12.9281C13.6107 12.9736 13.6289 13.0281 13.6289 13.0826C13.6289 13.1372 13.6107 13.1917 13.5744 13.2372C13.538 13.2826 13.4926 13.319 13.438 13.3372L12.7381 13.5644C12.529 13.6371 12.3381 13.7553 12.1745 13.9098C12.02 14.0644 11.9018 14.2553 11.8291 14.4734L11.6018 15.1643C11.5837 15.2188 11.5473 15.2642 11.5018 15.3006C11.4564 15.337 11.4019 15.3551 11.3473 15.3551C11.2928 15.3551 11.2382 15.337 11.1928 15.3006C11.1473 15.2642 11.111 15.2188 11.0928 15.1643L10.8655 14.4734C10.7928 14.2643 10.6747 14.0644 10.5201 13.9098C10.3656 13.7553 10.1656 13.628 9.95655 13.5644L9.25662 13.3372C9.20208 13.319 9.15663 13.2826 9.12027 13.2372C9.08391 13.1917 9.06573 13.1372 9.06573 13.0826C9.06573 13.0281 9.08391 12.9736 9.12027 12.9281C9.15663 12.8827 9.20208 12.8463 9.25662 12.8281L9.95655 12.6009C10.1656 12.5282 10.3565 12.41 10.511 12.2555C10.6656 12.1009 10.7837 11.91 10.8474 11.701L11.0746 11.0101C11.0928 10.9556 11.1292 10.9101 11.1746 10.8738C11.2201 10.8374 11.2746 10.8192 11.3291 10.8192C11.3837 10.8192 11.4382 10.8374 11.4837 10.8738C11.5291 10.9101 11.5655 10.9556 11.5837 11.0101L11.8109 11.701C11.8836 11.91 12.0018 12.1009 12.1563 12.2645C12.3109 12.4191 12.5017 12.5372 12.7199 12.61V12.6009Z" fill="black"/>
<path d="M9.2748 6.59238L8.95665 5.61975C8.92938 5.54703 8.88393 5.4834 8.8203 5.43795C8.75667 5.3925 8.67486 5.36523 8.60214 5.36523C8.52942 5.36523 8.44761 5.3925 8.38398 5.43795C8.32035 5.4834 8.26581 5.54703 8.24763 5.61975L7.92948 6.59238C7.82949 6.88326 7.66587 7.15596 7.4568 7.37412C7.23864 7.59228 6.97503 7.76499 6.68415 7.86498L5.71153 8.18313C5.63881 8.2104 5.57517 8.25586 5.52972 8.31949C5.48427 8.38312 5.457 8.46492 5.457 8.53764C5.457 8.61036 5.48427 8.69218 5.52972 8.75581C5.57517 8.81944 5.63881 8.87398 5.71153 8.89216L6.68415 9.21031C6.93867 9.29212 7.16592 9.42847 7.3659 9.60118C7.40226 9.63754 7.43862 9.66481 7.47498 9.70117C7.65678 9.88297 7.80222 10.1011 7.90221 10.3375C7.92039 10.3829 7.93857 10.4375 7.95675 10.492L8.2749 11.4646C8.30217 11.5283 8.33853 11.5919 8.39307 11.6373C8.39307 11.6373 8.40216 11.6464 8.41125 11.6555C8.47488 11.701 8.55669 11.7282 8.62941 11.7282C8.70213 11.7282 8.78394 11.701 8.84757 11.6555C8.9112 11.6101 8.96574 11.5464 8.98392 11.4737L9.30207 10.5011C9.40206 10.2011 9.56568 9.93751 9.78384 9.71935C10.002 9.50119 10.2747 9.32848 10.5656 9.23758L11.5382 8.91943C11.6109 8.89216 11.6746 8.84671 11.72 8.78308C11.7655 8.71945 11.7927 8.63764 11.7927 8.56492C11.7927 8.4922 11.7655 8.41039 11.72 8.34676C11.6746 8.28313 11.6109 8.22859 11.5382 8.21041H11.52L10.5474 7.89225C10.2474 7.79226 9.98382 7.62864 9.76566 7.41048C9.5475 7.19232 9.37479 6.91962 9.28389 6.62874L9.2748 6.59238ZM12.7199 12.6009L13.4198 12.8281H13.438C13.4926 12.8463 13.538 12.8827 13.5744 12.9281C13.6107 12.9736 13.6289 13.0281 13.6289 13.0826C13.6289 13.1372 13.6107 13.1917 13.5744 13.2372C13.538 13.2826 13.4926 13.319 13.438 13.3372L12.7381 13.5644C12.529 13.6371 12.3381 13.7553 12.1745 13.9098C12.02 14.0644 11.9018 14.2553 11.8291 14.4734L11.6018 15.1643C11.5837 15.2188 11.5473 15.2642 11.5018 15.3006C11.4564 15.337 11.4019 15.3551 11.3473 15.3551C11.2928 15.3551 11.2382 15.337 11.1928 15.3006C11.1473 15.2642 11.111 15.2188 11.0928 15.1643L10.8655 14.4734C10.7928 14.2643 10.6747 14.0644 10.5201 13.9098C10.3656 13.7553 10.1656 13.628 9.95655 13.5644L9.25662 13.3372C9.20208 13.319 9.15663 13.2826 9.12027 13.2372C9.08391 13.1917 9.06573 13.1372 9.06573 13.0826C9.06573 13.0281 9.08391 12.9736 9.12027 12.9281C9.15663 12.8827 9.20208 12.8463 9.25662 12.8281L9.95655 12.6009C10.1656 12.5282 10.3565 12.41 10.511 12.2555C10.6656 12.1009 10.7837 11.91 10.8474 11.701L11.0746 11.0101C11.0928 10.9556 11.1292 10.9101 11.1746 10.8738C11.2201 10.8374 11.2746 10.8192 11.3291 10.8192C11.3837 10.8192 11.4382 10.8374 11.4837 10.8738C11.5291 10.9101 11.5655 10.9556 11.5837 11.0101L11.8109 11.701C11.8836 11.91 12.0018 12.1009 12.1563 12.2645C12.3109 12.4191 12.5017 12.5372 12.7199 12.61V12.6009Z" fill="url(#paint3_linear_1598_10619)"/>
</g>
<defs>
<filter id="filter0_d_1598_10619" x="4.64903" y="5.36523" width="9.78787" height="11.6062" filterUnits="userSpaceOnUse" color-interpolation-filters="sRGB">
<feFlood flood-opacity="0" result="BackgroundImageFix"/>
<feColorMatrix in="SourceAlpha" type="matrix" values="0 0 0 0 0 0 0 0 0 0 0 0 0 0 0 0 0 0 127 0" result="hardAlpha"/>
<feOffset dy="0.808"/>
<feGaussianBlur stdDeviation="0.404"/>
<feComposite in2="hardAlpha" operator="out"/>
<feColorMatrix type="matrix" values="0 0 0 0 0 0 0 0 0 0 0 0 0 0 0 0 0 0 0.25 0"/>
<feBlend mode="normal" in2="BackgroundImageFix" result="effect1_dropShadow_1598_10619"/>
<feBlend mode="normal" in="SourceGraphic" in2="effect1_dropShadow_1598_10619" result="shape"/>
</filter>
<linearGradient id="paint0_linear_1598_10619" x1="10.3281" y1="0.820313" x2="25.4036" y2="8.83945" gradientUnits="userSpaceOnUse">
<stop stop-color="#3BD5FF"/>
<stop offset="1" stop-color="#0FAFFF"/>
</linearGradient>
<linearGradient id="paint1_linear_1598_10619" x1="9.66797" y1="0.820313" x2="-5.40747" y2="8.83945" gradientUnits="userSpaceOnUse">
<stop stop-color="#0078D4"/>
<stop offset="1" stop-color="#004695"/>
</linearGradient>
<linearGradient id="paint2_linear_1598_10619" x1="3.63672" y1="0.820313" x2="20.7186" y2="12.7776" gradientUnits="userSpaceOnUse">
<stop stop-color="#0FAFFF"/>
<stop offset="1" stop-color="#0078D4"/>
</linearGradient>
<linearGradient id="paint3_linear_1598_10619" x1="13.0319" y1="5.44632" x2="8.1814" y2="15.4633" gradientUnits="userSpaceOnUse">
<stop stop-color="white"/>
<stop offset="1" stop-color="#DFFAFF"/>
</linearGradient>
</defs>
</svg>
