<svg width="465" height="267" viewBox="0 0 465 267" fill="none" xmlns="http://www.w3.org/2000/svg">
<g filter="url(#filter0_b_1783_23009)">
<rect width="464.494" height="267" rx="20" transform="matrix(1 0 3.70127e-06 1 0 0)" fill="white" fill-opacity="0.2"/>
<rect width="464.494" height="267" rx="20" transform="matrix(1 0 3.70127e-06 1 0 0)" fill="url(#paint0_radial_1783_23009)" fill-opacity="0.8"/>
<rect x="1" y="1" width="462.494" height="265" rx="19" transform="matrix(1 0 3.70127e-06 1 -3.64167e-06 5.96046e-08)" stroke="url(#paint1_radial_1783_23009)" stroke-width="2"/>
<rect x="1" y="1" width="462.494" height="265" rx="19" transform="matrix(1 0 3.70127e-06 1 -3.64167e-06 5.96046e-08)" stroke="url(#paint2_radial_1783_23009)" stroke-width="2"/>
<rect x="11" y="10" width="441" height="246" rx="10" fill="#FDFDFE"/>
<path d="M21.0156 32L21.0156 30.8955H23.5801L23.5801 26.3887H21.3965L21.3965 25.2715H24.9258L24.9258 30.8955H26.9951L26.9951 32H21.0156ZM24.1768 24.2051C23.6563 24.2051 23.2373 23.7861 23.2373 23.2656C23.2373 22.7451 23.6563 22.3262 24.1768 22.3262C24.6973 22.3262 25.1162 22.7451 25.1162 23.2656C25.1162 23.7861 24.6973 24.2051 24.1768 24.2051ZM32.8223 32L32.8223 27.6201C32.8223 26.8076 32.3779 26.3506 31.6162 26.3506C30.5625 26.3506 30.0293 26.9663 30.0293 28.2168L30.0293 32H28.6836L28.6836 25.2715H29.9023L30.0103 26.4902H30.1563C30.2324 25.5889 30.8037 25.1445 31.9336 25.1445C33.3555 25.1445 34.168 26.0459 34.168 27.6201L34.168 32H32.8223ZM40.1982 32.127C38.1543 32.127 37.3037 31.3271 37.3037 29.4609L37.3037 26.376H35.6152L35.6152 25.2715H37.3037L37.3037 23.2402H38.6494L38.6494 25.2715H41.709L41.709 26.376H38.6494L38.6494 29.3975C38.6494 30.4639 39.1318 30.9209 40.3252 30.9209C40.7441 30.9209 41.2012 30.8701 41.8105 30.7939L41.9629 31.9746C41.3662 32.0762 40.833 32.127 40.1982 32.127ZM47.3076 32.127C45.0098 32.127 43.7148 30.8828 43.7148 28.623C43.7148 26.4268 44.8193 25.1445 46.749 25.1445C48.5645 25.1445 49.6055 26.2744 49.6055 28.3691C49.6055 28.6865 49.5928 28.9658 49.5674 29.2324H45.0225C45.2573 30.356 46.1079 30.9463 47.46 30.9463C48.0186 30.9463 48.5518 30.8828 49.1104 30.7686L49.2754 31.9492C48.4756 32.1016 47.8154 32.127 47.3076 32.127ZM44.9717 28.2041H48.3867C48.3867 26.998 47.7773 26.3252 46.7617 26.3252C45.7207 26.3252 45.0796 27.0044 44.9717 28.2041ZM53.8203 29.1055L53.8203 30.8955H55.4707L55.4707 32H50.9766L50.9766 30.8955H52.4746L52.4746 26.376H51.2305L51.2305 25.2715H53.5664L53.7949 26.998H53.9473C54.0234 25.7539 54.6328 25.1445 55.8008 25.1445C57.1846 25.1445 57.7813 25.8936 57.7813 27.6709H56.4482C56.4482 26.6934 56.1689 26.2871 55.5215 26.2871C54.3789 26.2871 53.8203 27.3027 53.8203 29.1055ZM63.291 32L63.291 27.6201C63.291 26.8076 62.8467 26.3506 62.085 26.3506C61.0313 26.3506 60.498 26.9663 60.498 28.2168L60.498 32H59.1523L59.1523 25.2715H60.3711L60.479 26.4902H60.625C60.7012 25.5889 61.2725 25.1445 62.4023 25.1445C63.8242 25.1445 64.6367 26.0459 64.6367 27.6201L64.6367 32H63.291ZM70.8955 32.0635L70.832 30.5781H70.6987C70.6035 31.6128 69.772 32.127 68.5215 32.127C67.1187 32.127 66.3125 31.4224 66.3125 30.1846C66.3125 28.7627 67.417 27.9756 69.3594 27.9756C69.8418 27.9756 70.2607 28.0073 70.6289 28.0835L70.6289 27.7725C70.6289 26.8774 69.9941 26.4775 68.75 26.4458L67.1377 26.4014L67.2646 25.208L68.623 25.2271C70.8447 25.2588 71.9111 26.1982 71.9111 27.9756L71.9111 30.7812L73.0537 30.9209L73.0537 32L70.8955 32.0635ZM70.6289 29.1182C70.1973 29.0547 69.772 29.0547 69.334 29.0547C68.1851 29.0547 67.582 29.3975 67.582 30.0576C67.582 30.686 68.001 31.0479 68.7373 31.0479C69.9941 31.0479 70.6289 30.2988 70.6289 29.5879L70.6289 29.1182ZM78.0684 32.127C76.5068 32.127 75.8594 31.3271 75.8594 29.4609L75.8594 23.583H73.8789L73.8789 22.4785H77.2051L77.2051 29.3975C77.2051 30.4639 77.4209 30.9209 78.5762 30.9209C78.957 30.9209 79.3633 30.8447 79.9219 30.6797L80.0742 31.8604C79.3887 32.0508 78.792 32.127 78.0684 32.127ZM91.8428 32.127C90.8271 32.127 90.1416 32.0762 89.5449 31.9365L89.6973 30.7178C90.5859 30.8574 91.2334 30.9209 91.8428 30.9209C93.2012 30.9209 93.7852 30.667 93.7852 30.083C93.7852 29.6768 93.5693 29.5117 93.125 29.3975L91.5762 29.0039C90.2495 28.6675 89.6465 28.2549 89.6465 27.2393C89.6465 25.7666 90.7129 25.1445 93.2266 25.1445C93.874 25.1445 94.4072 25.1826 95.0039 25.2715L94.8643 26.4395C94.1787 26.376 93.6836 26.3506 93.1885 26.3506C91.6777 26.3506 91.043 26.5918 91.043 27.1758C91.043 27.5693 91.3159 27.6963 91.8936 27.8359L93.1377 28.1406C94.5469 28.4834 95.1816 28.9785 95.1816 30.0576C95.1816 31.5049 94.1787 32.127 91.8428 32.127ZM100.628 32.127C98.3301 32.127 97.0352 30.8828 97.0352 28.623C97.0352 26.4268 98.1396 25.1445 100.069 25.1445C101.885 25.1445 102.926 26.2744 102.926 28.3691C102.926 28.6865 102.913 28.9658 102.888 29.2324H98.3428C98.5776 30.356 99.4282 30.9463 100.78 30.9463C101.339 30.9463 101.872 30.8828 102.431 30.7686L102.596 31.9492C101.796 32.1016 101.136 32.127 100.628 32.127ZM98.292 28.2041H101.707C101.707 26.998 101.098 26.3252 100.082 26.3252C99.041 26.3252 98.3999 27.0044 98.292 28.2041ZM108.981 32.0635L108.918 30.5781H108.785C108.689 31.6128 107.858 32.127 106.607 32.127C105.205 32.127 104.398 31.4224 104.398 30.1846C104.398 28.7627 105.503 27.9756 107.445 27.9756C107.928 27.9756 108.347 28.0073 108.715 28.0835L108.715 27.7725C108.715 26.8774 108.08 26.4775 106.836 26.4458L105.224 26.4014L105.351 25.208L106.709 25.2271C108.931 25.2588 109.997 26.1982 109.997 27.9756L109.997 30.7812L111.14 30.9209L111.14 32L108.981 32.0635ZM108.715 29.1182C108.283 29.0547 107.858 29.0547 107.42 29.0547C106.271 29.0547 105.668 29.3975 105.668 30.0576C105.668 30.686 106.087 31.0479 106.823 31.0479C108.08 31.0479 108.715 30.2988 108.715 29.5879L108.715 29.1182ZM116.154 32.127C114.593 32.127 113.945 31.3271 113.945 29.4609L113.945 23.583H111.965L111.965 22.4785H115.291L115.291 29.3975C115.291 30.4639 115.507 30.9209 116.662 30.9209C117.043 30.9209 117.449 30.8447 118.008 30.6797L118.16 31.8604C117.475 32.0508 116.878 32.127 116.154 32.127ZM123.479 32.127C121.182 32.127 119.887 30.8828 119.887 28.623C119.887 26.4268 120.991 25.1445 122.921 25.1445C124.736 25.1445 125.777 26.2744 125.777 28.3691C125.777 28.6865 125.765 28.9658 125.739 29.2324H121.194C121.429 30.356 122.28 30.9463 123.632 30.9463C124.19 30.9463 124.724 30.8828 125.282 30.7686L125.447 31.9492C124.647 32.1016 123.987 32.127 123.479 32.127ZM121.144 28.2041H124.559C124.559 26.998 123.949 26.3252 122.934 26.3252C121.893 26.3252 121.251 27.0044 121.144 28.2041ZM129.929 32.127C128.228 32.127 127.25 30.9082 127.25 28.6992C127.25 26.4395 128.228 25.1445 129.941 25.1445C131.021 25.1445 131.604 25.5889 131.719 26.4902H131.846L131.846 22.4785H133.191L133.191 32L131.985 32.0635L131.871 30.959H131.719C131.63 31.7334 130.944 32.127 129.929 32.127ZM131.846 29.1055L131.846 28.2168C131.846 26.9219 131.274 26.2871 130.132 26.2871C129.142 26.2871 128.583 27.1631 128.583 28.6992C128.583 30.21 129.116 30.9844 130.145 30.9844C131.287 30.9844 131.846 30.6035 131.846 29.8418L131.846 29.1055ZM146.204 32.127C145.188 32.127 144.503 31.7334 144.414 30.959H144.287L144.287 34.9199H142.941L142.941 25.2715H144.16L144.268 26.4902H144.414C144.528 25.5889 145.112 25.1445 146.191 25.1445C147.905 25.1445 148.883 26.4395 148.883 28.6992C148.883 30.9082 147.905 32.127 146.204 32.127ZM144.287 29.8418C144.287 30.6035 144.782 30.9844 145.798 30.9844C146.953 30.9844 147.55 30.21 147.55 28.6992C147.55 27.1631 146.921 26.2871 145.811 26.2871C144.795 26.2871 144.287 26.8394 144.287 27.9629L144.287 29.8418ZM154.685 32.0635L154.621 30.5781H154.488C154.393 31.6128 153.561 32.127 152.311 32.127C150.908 32.127 150.102 31.4224 150.102 30.1846C150.102 28.7627 151.206 27.9756 153.148 27.9756C153.631 27.9756 154.05 28.0073 154.418 28.0835L154.418 27.7725C154.418 26.8774 153.783 26.4775 152.539 26.4458L150.927 26.4014L151.054 25.208L152.412 25.2271C154.634 25.2588 155.7 26.1982 155.7 27.9756L155.7 30.7812L156.843 30.9209L156.843 32L154.685 32.0635ZM154.418 29.1182C153.986 29.0547 153.561 29.0547 153.123 29.0547C151.974 29.0547 151.371 29.3975 151.371 30.0576C151.371 30.686 151.79 31.0479 152.526 31.0479C153.783 31.0479 154.418 30.2988 154.418 29.5879L154.418 29.1182ZM160.461 29.1055L160.461 30.8955H162.111L162.111 32H157.617L157.617 30.8955H159.115L159.115 26.376H157.871L157.871 25.2715H160.207L160.436 26.998H160.588C160.664 25.7539 161.273 25.1445 162.441 25.1445C163.825 25.1445 164.422 25.8936 164.422 27.6709H163.089C163.089 26.6934 162.81 26.2871 162.162 26.2871C161.02 26.2871 160.461 27.3027 160.461 29.1055ZM169.69 32.127C167.646 32.127 166.796 31.3271 166.796 29.4609L166.796 26.376H165.107L165.107 25.2715H166.796L166.796 23.2402H168.142L168.142 25.2715H171.201L171.201 26.376H168.142L168.142 29.3975C168.142 30.4639 168.624 30.9209 169.817 30.9209C170.236 30.9209 170.693 30.8701 171.303 30.7939L171.455 31.9746C170.858 32.0762 170.325 32.127 169.69 32.127ZM173.359 32L173.359 30.8955H175.924L175.924 26.3887H173.74L173.74 25.2715H177.27L177.27 30.8955H179.339L179.339 32H173.359ZM176.521 24.2051C176 24.2051 175.581 23.7861 175.581 23.2656C175.581 22.7451 176 22.3262 176.521 22.3262C177.041 22.3262 177.46 22.7451 177.46 23.2656C177.46 23.7861 177.041 24.2051 176.521 24.2051ZM185.153 32.0635L185.09 30.5781H184.957C184.861 31.6128 184.03 32.127 182.779 32.127C181.376 32.127 180.57 31.4224 180.57 30.1846C180.57 28.7627 181.675 27.9756 183.617 27.9756C184.1 27.9756 184.519 28.0073 184.887 28.0835L184.887 27.7725C184.887 26.8774 184.252 26.4775 183.008 26.4458L181.396 26.4014L181.522 25.208L182.881 25.2271C185.103 25.2588 186.169 26.1982 186.169 27.9756L186.169 30.7812L187.312 30.9209L187.312 32L185.153 32.0635ZM184.887 29.1182C184.455 29.0547 184.03 29.0547 183.592 29.0547C182.443 29.0547 181.84 29.3975 181.84 30.0576C181.84 30.686 182.259 31.0479 182.995 31.0479C184.252 31.0479 184.887 30.2988 184.887 29.5879L184.887 29.1182ZM192.326 32.127C190.765 32.127 190.117 31.3271 190.117 29.4609L190.117 23.583H188.137L188.137 22.4785H191.463L191.463 29.3975C191.463 30.4639 191.679 30.9209 192.834 30.9209C193.215 30.9209 193.621 30.8447 194.18 30.6797L194.332 31.8604C193.646 32.0508 193.05 32.127 192.326 32.127ZM207.142 32.127C204.933 32.127 203.676 30.8828 203.676 28.623C203.676 26.4268 204.901 25.1445 207.091 25.1445C208.398 25.1445 209.376 25.6523 209.776 26.541L208.741 27.3218C208.36 26.7061 207.745 26.3506 207.04 26.3506C205.796 26.3506 205.072 27.1504 205.072 28.5596C205.072 30.0957 205.872 30.9209 207.294 30.9209C207.967 30.9209 208.64 30.8574 209.274 30.7559L209.427 31.9365C208.69 32.0889 207.891 32.127 207.142 32.127ZM215.178 32.127C213.616 32.127 212.969 31.3271 212.969 29.4609L212.969 23.583H210.988L210.988 22.4785H214.314L214.314 29.3975C214.314 30.4639 214.53 30.9209 215.686 30.9209C216.066 30.9209 216.473 30.8447 217.031 30.6797L217.184 31.8604C216.498 32.0508 215.901 32.127 215.178 32.127ZM223.239 32.0635L223.176 30.5781H223.042C222.947 31.6128 222.116 32.127 220.865 32.127C219.462 32.127 218.656 31.4224 218.656 30.1846C218.656 28.7627 219.761 27.9756 221.703 27.9756C222.186 27.9756 222.604 28.0073 222.973 28.0835L222.973 27.7725C222.973 26.8774 222.338 26.4775 221.094 26.4458L219.481 26.4014L219.608 25.208L220.967 25.2271C223.188 25.2588 224.255 26.1982 224.255 27.9756L224.255 30.7812L225.397 30.9209L225.397 32L223.239 32.0635ZM222.973 29.1182C222.541 29.0547 222.116 29.0547 221.678 29.0547C220.529 29.0547 219.926 29.3975 219.926 30.0576C219.926 30.686 220.345 31.0479 221.081 31.0479C222.338 31.0479 222.973 30.2988 222.973 29.5879L222.973 29.1182ZM228.952 32.127C227.937 32.127 227.251 32.0762 226.654 31.9365L226.807 30.7178C227.695 30.8574 228.343 30.9209 228.952 30.9209C230.311 30.9209 230.895 30.667 230.895 30.083C230.895 29.6768 230.679 29.5117 230.234 29.3975L228.686 29.0039C227.359 28.6675 226.756 28.2549 226.756 27.2393C226.756 25.7666 227.822 25.1445 230.336 25.1445C230.983 25.1445 231.517 25.1826 232.113 25.2715L231.974 26.4395C231.288 26.376 230.793 26.3506 230.298 26.3506C228.787 26.3506 228.152 26.5918 228.152 27.1758C228.152 27.5693 228.425 27.6963 229.003 27.8359L230.247 28.1406C231.656 28.4834 232.291 28.9785 232.291 30.0576C232.291 31.5049 231.288 32.127 228.952 32.127ZM236.569 32.127C235.554 32.127 234.868 32.0762 234.271 31.9365L234.424 30.7178C235.313 30.8574 235.96 30.9209 236.569 30.9209C237.928 30.9209 238.512 30.667 238.512 30.083C238.512 29.6768 238.296 29.5117 237.852 29.3975L236.303 29.0039C234.976 28.6675 234.373 28.2549 234.373 27.2393C234.373 25.7666 235.439 25.1445 237.953 25.1445C238.601 25.1445 239.134 25.1826 239.73 25.2715L239.591 26.4395C238.905 26.376 238.41 26.3506 237.915 26.3506C236.404 26.3506 235.77 26.5918 235.77 27.1758C235.77 27.5693 236.042 27.6963 236.62 27.8359L237.864 28.1406C239.273 28.4834 239.908 28.9785 239.908 30.0576C239.908 31.5049 238.905 32.127 236.569 32.127ZM54.7979 64.127C53.7822 64.127 53.0967 63.7334 53.0078 62.959H52.8809L52.8809 66.9199H51.5352L51.5352 57.2715H52.7539L52.8618 58.4902H53.0078C53.1221 57.5889 53.7061 57.1445 54.7852 57.1445C56.499 57.1445 57.4766 58.4395 57.4766 60.6992C57.4766 62.9082 56.499 64.127 54.7979 64.127ZM52.8809 61.8418C52.8809 62.6035 53.376 62.9844 54.3916 62.9844C55.5469 62.9844 56.1436 62.21 56.1436 60.6992C56.1436 59.1631 55.5151 58.2871 54.4043 58.2871C53.3887 58.2871 52.8809 58.8394 52.8809 59.9629L52.8809 61.8418ZM61.4375 61.1055L61.4375 62.8955H63.0879L63.0879 64H58.5938L58.5938 62.8955H60.0918L60.0918 58.376H58.8477L58.8477 57.2715H61.1836L61.4121 58.998H61.5645C61.6406 57.7539 62.25 57.1445 63.418 57.1445C64.8018 57.1445 65.3984 57.8936 65.3984 59.6709H64.0654C64.0654 58.6934 63.7861 58.2871 63.1387 58.2871C61.9961 58.2871 61.4375 59.3027 61.4375 61.1055ZM66.7188 64L66.7188 62.8955H69.2832L69.2832 58.3887H67.0996L67.0996 57.2715H70.6289L70.6289 62.8955H72.6982L72.6982 64H66.7188ZM69.8799 56.2051C69.3594 56.2051 68.9404 55.7861 68.9404 55.2656C68.9404 54.7451 69.3594 54.3262 69.8799 54.3262C70.4004 54.3262 70.8193 54.7451 70.8193 55.2656C70.8193 55.7861 70.4004 56.2051 69.8799 56.2051ZM76.2339 64L73.8281 57.2715H75.2627L77.0718 62.8574H77.186L78.9951 57.2715H80.4297L78.0239 64H76.2339ZM86.1299 64.0635L86.0664 62.5781H85.9331C85.8379 63.6128 85.0063 64.127 83.7559 64.127C82.353 64.127 81.5469 63.4224 81.5469 62.1846C81.5469 60.7627 82.6514 59.9756 84.5938 59.9756C85.0762 59.9756 85.4951 60.0073 85.8633 60.0835L85.8633 59.7725C85.8633 58.8774 85.2285 58.4775 83.9844 58.4458L82.3721 58.4014L82.499 57.208L83.8574 57.2271C86.0791 57.2588 87.1455 58.1982 87.1455 59.9756L87.1455 62.7812L88.2881 62.9209L88.2881 64L86.1299 64.0635ZM85.8633 61.1182C85.4316 61.0547 85.0063 61.0547 84.5684 61.0547C83.4194 61.0547 82.8164 61.3975 82.8164 62.0576C82.8164 62.686 83.2354 63.0479 83.9717 63.0479C85.2285 63.0479 85.8633 62.2988 85.8633 61.5879L85.8633 61.1182ZM93.5186 64.127C91.4746 64.127 90.624 63.3271 90.624 61.4609L90.624 58.376H88.9355L88.9355 57.2715H90.624L90.624 55.2402H91.9697L91.9697 57.2715H95.0293L95.0293 58.376H91.9697L91.9697 61.3975C91.9697 62.4639 92.4521 62.9209 93.6455 62.9209C94.0645 62.9209 94.5215 62.8701 95.1309 62.7939L95.2832 63.9746C94.6865 64.0762 94.1533 64.127 93.5186 64.127ZM100.628 64.127C98.3301 64.127 97.0352 62.8828 97.0352 60.623C97.0352 58.4268 98.1396 57.1445 100.069 57.1445C101.885 57.1445 102.926 58.2744 102.926 60.3691C102.926 60.6865 102.913 60.9658 102.888 61.2324H98.3428C98.5776 62.356 99.4282 62.9463 100.78 62.9463C101.339 62.9463 101.872 62.8828 102.431 62.7686L102.596 63.9492C101.796 64.1016 101.136 64.127 100.628 64.127ZM98.292 60.2041H101.707C101.707 58.998 101.098 58.3252 100.082 58.3252C99.041 58.3252 98.3999 59.0044 98.292 60.2041ZM54.7979 80.127C53.7822 80.127 53.0967 79.7334 53.0078 78.959H52.8809L52.8809 82.9199H51.5352L51.5352 73.2715H52.7539L52.8618 74.4902H53.0078C53.1221 73.5889 53.7061 73.1445 54.7852 73.1445C56.499 73.1445 57.4766 74.4395 57.4766 76.6992C57.4766 78.9082 56.499 80.127 54.7979 80.127ZM52.8809 77.8418C52.8809 78.6035 53.376 78.9844 54.3916 78.9844C55.5469 78.9844 56.1436 78.21 56.1436 76.6992C56.1436 75.1631 55.5151 74.2871 54.4043 74.2871C53.3887 74.2871 52.8809 74.8394 52.8809 75.9629L52.8809 77.8418ZM61.4375 77.1055L61.4375 78.8955H63.0879L63.0879 80H58.5938L58.5938 78.8955H60.0918L60.0918 74.376H58.8477L58.8477 73.2715H61.1836L61.4121 74.998H61.5645C61.6406 73.7539 62.25 73.1445 63.418 73.1445C64.8018 73.1445 65.3984 73.8936 65.3984 75.6709H64.0654C64.0654 74.6934 63.7861 74.2871 63.1387 74.2871C61.9961 74.2871 61.4375 75.3027 61.4375 77.1055ZM66.7188 80L66.7188 78.8955H69.2832L69.2832 74.3887H67.0996L67.0996 73.2715H70.6289L70.6289 78.8955H72.6982L72.6982 80H66.7188ZM69.8799 72.2051C69.3594 72.2051 68.9404 71.7861 68.9404 71.2656C68.9404 70.7451 69.3594 70.3262 69.8799 70.3262C70.4004 70.3262 70.8193 70.7451 70.8193 71.2656C70.8193 71.7861 70.4004 72.2051 69.8799 72.2051ZM76.2339 80L73.8281 73.2715H75.2627L77.0718 78.8574H77.186L78.9951 73.2715H80.4297L78.0239 80H76.2339ZM86.1299 80.0635L86.0664 78.5781H85.9331C85.8379 79.6128 85.0063 80.127 83.7559 80.127C82.353 80.127 81.5469 79.4224 81.5469 78.1846C81.5469 76.7627 82.6514 75.9756 84.5938 75.9756C85.0762 75.9756 85.4951 76.0073 85.8633 76.0835L85.8633 75.7725C85.8633 74.8774 85.2285 74.4775 83.9844 74.4458L82.3721 74.4014L82.499 73.208L83.8574 73.2271C86.0791 73.2588 87.1455 74.1982 87.1455 75.9756L87.1455 78.7812L88.2881 78.9209L88.2881 80L86.1299 80.0635ZM85.8633 77.1182C85.4316 77.0547 85.0063 77.0547 84.5684 77.0547C83.4194 77.0547 82.8164 77.3975 82.8164 78.0576C82.8164 78.686 83.2354 79.0479 83.9717 79.0479C85.2285 79.0479 85.8633 78.2988 85.8633 77.5879L85.8633 77.1182ZM93.5186 80.127C91.4746 80.127 90.624 79.3271 90.624 77.4609L90.624 74.376H88.9355L88.9355 73.2715H90.624L90.624 71.2402H91.9697L91.9697 73.2715H95.0293L95.0293 74.376H91.9697L91.9697 77.3975C91.9697 78.4639 92.4521 78.9209 93.6455 78.9209C94.0645 78.9209 94.5215 78.8701 95.1309 78.7939L95.2832 79.9746C94.6865 80.0762 94.1533 80.127 93.5186 80.127ZM100.628 80.127C98.3301 80.127 97.0352 78.8828 97.0352 76.623C97.0352 74.4268 98.1396 73.1445 100.069 73.1445C101.885 73.1445 102.926 74.2744 102.926 76.3691C102.926 76.6865 102.913 76.9658 102.888 77.2324H98.3428C98.5776 78.356 99.4282 78.9463 100.78 78.9463C101.339 78.9463 101.872 78.8828 102.431 78.7686L102.596 79.9492C101.796 80.1016 101.136 80.127 100.628 80.127ZM98.292 76.2041H101.707C101.707 74.998 101.098 74.3252 100.082 74.3252C99.041 74.3252 98.3999 75.0044 98.292 76.2041ZM54.7979 96.127C53.7822 96.127 53.0967 95.7334 53.0078 94.959H52.8809L52.8809 98.9199H51.5352L51.5352 89.2715H52.7539L52.8618 90.4902H53.0078C53.1221 89.5889 53.7061 89.1445 54.7852 89.1445C56.499 89.1445 57.4766 90.4395 57.4766 92.6992C57.4766 94.9082 56.499 96.127 54.7979 96.127ZM52.8809 93.8418C52.8809 94.6035 53.376 94.9844 54.3916 94.9844C55.5469 94.9844 56.1436 94.21 56.1436 92.6992C56.1436 91.1631 55.5151 90.2871 54.4043 90.2871C53.3887 90.2871 52.8809 90.8394 52.8809 91.9629L52.8809 93.8418ZM61.4375 93.1055L61.4375 94.8955H63.0879L63.0879 96H58.5938L58.5938 94.8955H60.0918L60.0918 90.376H58.8477L58.8477 89.2715H61.1836L61.4121 90.998H61.5645C61.6406 89.7539 62.25 89.1445 63.418 89.1445C64.8018 89.1445 65.3984 89.8936 65.3984 91.6709H64.0654C64.0654 90.6934 63.7861 90.2871 63.1387 90.2871C61.9961 90.2871 61.4375 91.3027 61.4375 93.1055ZM66.7188 96L66.7188 94.8955H69.2832L69.2832 90.3887H67.0996L67.0996 89.2715H70.6289L70.6289 94.8955H72.6982L72.6982 96H66.7188ZM69.8799 88.2051C69.3594 88.2051 68.9404 87.7861 68.9404 87.2656C68.9404 86.7451 69.3594 86.3262 69.8799 86.3262C70.4004 86.3262 70.8193 86.7451 70.8193 87.2656C70.8193 87.7861 70.4004 88.2051 69.8799 88.2051ZM76.2339 96L73.8281 89.2715H75.2627L77.0718 94.8574H77.186L78.9951 89.2715H80.4297L78.0239 96H76.2339ZM86.1299 96.0635L86.0664 94.5781H85.9331C85.8379 95.6128 85.0063 96.127 83.7559 96.127C82.353 96.127 81.5469 95.4224 81.5469 94.1846C81.5469 92.7627 82.6514 91.9756 84.5938 91.9756C85.0762 91.9756 85.4951 92.0073 85.8633 92.0835L85.8633 91.7725C85.8633 90.8774 85.2285 90.4775 83.9844 90.4458L82.3721 90.4014L82.499 89.208L83.8574 89.2271C86.0791 89.2588 87.1455 90.1982 87.1455 91.9756L87.1455 94.7812L88.2881 94.9209L88.2881 96L86.1299 96.0635ZM85.8633 93.1182C85.4316 93.0547 85.0063 93.0547 84.5684 93.0547C83.4194 93.0547 82.8164 93.3975 82.8164 94.0576C82.8164 94.686 83.2354 95.0479 83.9717 95.0479C85.2285 95.0479 85.8633 94.2988 85.8633 93.5879L85.8633 93.1182ZM93.5186 96.127C91.4746 96.127 90.624 95.3271 90.624 93.4609L90.624 90.376H88.9355L88.9355 89.2715H90.624L90.624 87.2402H91.9697L91.9697 89.2715H95.0293L95.0293 90.376H91.9697L91.9697 93.3975C91.9697 94.4639 92.4521 94.9209 93.6455 94.9209C94.0645 94.9209 94.5215 94.8701 95.1309 94.7939L95.2832 95.9746C94.6865 96.0762 94.1533 96.127 93.5186 96.127ZM100.628 96.127C98.3301 96.127 97.0352 94.8828 97.0352 92.623C97.0352 90.4268 98.1396 89.1445 100.069 89.1445C101.885 89.1445 102.926 90.2744 102.926 92.3691C102.926 92.6865 102.913 92.9658 102.888 93.2324H98.3428C98.5776 94.356 99.4282 94.9463 100.78 94.9463C101.339 94.9463 101.872 94.8828 102.431 94.7686L102.596 95.9492C101.796 96.1016 101.136 96.127 100.628 96.127ZM98.292 92.2041H101.707C101.707 90.998 101.098 90.3252 100.082 90.3252C99.041 90.3252 98.3999 91.0044 98.292 92.2041ZM114.275 96.127C113.666 96.127 113.082 96.0762 112.473 96L112.473 86.4785H113.818L113.818 90.4902H113.945C114.009 89.5889 114.555 89.1445 115.596 89.1445C117.386 89.1445 118.414 90.249 118.414 92.1914C118.414 94.6924 116.91 96.127 114.275 96.127ZM113.818 92.2168L113.818 94.9653C114.06 94.9844 114.301 94.9844 114.542 94.9844C116.161 94.9844 117.081 93.9688 117.081 92.1914C117.081 90.9727 116.522 90.2871 115.532 90.2871C114.39 90.2871 113.818 90.9219 113.818 92.2168ZM122.832 96.127C120.966 96.127 119.887 94.8574 119.887 92.6357C119.887 90.4141 120.966 89.1445 122.832 89.1445C124.698 89.1445 125.777 90.4141 125.777 92.6357C125.777 94.8574 124.698 96.127 122.832 96.127ZM122.832 94.9209C123.822 94.9209 124.381 94.0957 124.381 92.6357C124.381 91.1758 123.822 90.3506 122.832 90.3506C121.842 90.3506 121.283 91.1758 121.283 92.6357C121.283 94.0957 121.842 94.9209 122.832 94.9209ZM130.449 96.127C128.583 96.127 127.504 94.8574 127.504 92.6357C127.504 90.4141 128.583 89.1445 130.449 89.1445C132.315 89.1445 133.395 90.4141 133.395 92.6357C133.395 94.8574 132.315 96.127 130.449 96.127ZM130.449 94.9209C131.439 94.9209 131.998 94.0957 131.998 92.6357C131.998 91.1758 131.439 90.3506 130.449 90.3506C129.459 90.3506 128.9 91.1758 128.9 92.6357C128.9 94.0957 129.459 94.9209 130.449 94.9209ZM139.006 96.127C137.444 96.127 136.797 95.3271 136.797 93.4609L136.797 87.583H134.816L134.816 86.4785H138.143L138.143 93.3975C138.143 94.4639 138.358 94.9209 139.514 94.9209C139.895 94.9209 140.301 94.8447 140.859 94.6797L141.012 95.8604C140.326 96.0508 139.729 96.127 139.006 96.127ZM54.7979 128.127C53.7822 128.127 53.0967 127.733 53.0078 126.959H52.8809L52.8809 130.92H51.5352L51.5352 121.271H52.7539L52.8618 122.49H53.0078C53.1221 121.589 53.7061 121.145 54.7852 121.145C56.499 121.145 57.4766 122.439 57.4766 124.699C57.4766 126.908 56.499 128.127 54.7979 128.127ZM52.8809 125.842C52.8809 126.604 53.376 126.984 54.3916 126.984C55.5469 126.984 56.1436 126.21 56.1436 124.699C56.1436 123.163 55.5151 122.287 54.4043 122.287C53.3887 122.287 52.8809 122.839 52.8809 123.963L52.8809 125.842ZM61.2979 128.127C59.8823 128.127 59.0762 127.251 59.0762 125.715L59.0762 121.271H60.4219L60.4219 125.715C60.4219 126.489 60.8853 126.921 61.6787 126.921C62.6563 126.921 63.1641 126.356 63.1641 124.89L63.1641 121.271H64.5098L64.5098 126.781L65.4365 126.921L65.4365 128L63.2783 128.063L63.1831 126.705H63.0625C62.8467 127.619 62.1992 128.127 61.2979 128.127ZM68.5723 128.127C67.9629 128.127 67.3789 128.076 66.7695 128L66.7695 118.479H68.1152L68.1152 122.49H68.2422C68.3057 121.589 68.8516 121.145 69.8926 121.145C71.6826 121.145 72.7109 122.249 72.7109 124.191C72.7109 126.692 71.2065 128.127 68.5723 128.127ZM68.1152 124.217L68.1152 126.965C68.3564 126.984 68.5977 126.984 68.8389 126.984C70.4575 126.984 71.3779 125.969 71.3779 124.191C71.3779 122.973 70.8193 122.287 69.8291 122.287C68.6865 122.287 68.1152 122.922 68.1152 124.217ZM78.0684 128.127C76.5068 128.127 75.8594 127.327 75.8594 125.461L75.8594 119.583H73.8789L73.8789 118.479H77.2051L77.2051 125.397C77.2051 126.464 77.4209 126.921 78.5762 126.921C78.957 126.921 79.3633 126.845 79.9219 126.68L80.0742 127.86C79.3887 128.051 78.792 128.127 78.0684 128.127ZM81.9531 128L81.9531 126.896H84.5176L84.5176 122.389H82.334L82.334 121.271H85.8633L85.8633 126.896H87.9326L87.9326 128H81.9531ZM85.1143 120.205C84.5938 120.205 84.1748 119.786 84.1748 119.266C84.1748 118.745 84.5938 118.326 85.1143 118.326C85.6348 118.326 86.0537 118.745 86.0537 119.266C86.0537 119.786 85.6348 120.205 85.1143 120.205ZM92.8838 128.127C90.6748 128.127 89.418 126.883 89.418 124.623C89.418 122.427 90.6431 121.145 92.833 121.145C94.1406 121.145 95.1182 121.652 95.5181 122.541L94.4834 123.322C94.1025 122.706 93.4868 122.351 92.7822 122.351C91.5381 122.351 90.8145 123.15 90.8145 124.56C90.8145 126.096 91.6143 126.921 93.0361 126.921C93.709 126.921 94.3818 126.857 95.0166 126.756L95.1689 127.937C94.4326 128.089 93.6328 128.127 92.8838 128.127ZM85.9014 160.127C83.8574 160.127 83.0068 159.327 83.0068 157.461L83.0068 154.376H81.3184L81.3184 153.271H83.0068L83.0068 151.24H84.3525L84.3525 153.271H87.4121L87.4121 154.376H84.3525L84.3525 157.397C84.3525 158.464 84.835 158.921 86.0283 158.921C86.4473 158.921 86.9043 158.87 87.5137 158.794L87.666 159.975C87.0693 160.076 86.5361 160.127 85.9014 160.127ZM93.7598 160L93.7598 155.62C93.7598 154.77 93.3154 154.287 92.5537 154.287C91.5 154.287 90.9668 154.922 90.9668 156.217L90.9668 160H89.6211L89.6211 150.479H90.9668L90.9668 154.49H91.0938C91.1699 153.589 91.7412 153.145 92.8711 153.145C94.293 153.145 95.1055 154.046 95.1055 155.62L95.1055 160H93.7598ZM97.1875 160L97.1875 158.896H99.752L99.752 154.389H97.5684L97.5684 153.271H101.098L101.098 158.896H103.167L103.167 160H97.1875ZM100.349 152.205C99.8281 152.205 99.4092 151.786 99.4092 151.266C99.4092 150.745 99.8281 150.326 100.349 150.326C100.869 150.326 101.288 150.745 101.288 151.266C101.288 151.786 100.869 152.205 100.349 152.205ZM107.077 160.127C106.062 160.127 105.376 160.076 104.779 159.937L104.932 158.718C105.82 158.857 106.468 158.921 107.077 158.921C108.436 158.921 109.02 158.667 109.02 158.083C109.02 157.677 108.804 157.512 108.359 157.397L106.811 157.004C105.484 156.667 104.881 156.255 104.881 155.239C104.881 153.767 105.947 153.145 108.461 153.145C109.108 153.145 109.642 153.183 110.238 153.271L110.099 154.439C109.413 154.376 108.918 154.351 108.423 154.351C106.912 154.351 106.277 154.592 106.277 155.176C106.277 155.569 106.55 155.696 107.128 155.836L108.372 156.141C109.781 156.483 110.416 156.979 110.416 158.058C110.416 159.505 109.413 160.127 107.077 160.127ZM85.9014 176.127C83.8574 176.127 83.0068 175.327 83.0068 173.461L83.0068 170.376H81.3184L81.3184 169.271H83.0068L83.0068 167.24H84.3525L84.3525 169.271H87.4121L87.4121 170.376H84.3525L84.3525 173.397C84.3525 174.464 84.835 174.921 86.0283 174.921C86.4473 174.921 86.9043 174.87 87.5137 174.794L87.666 175.975C87.0693 176.076 86.5361 176.127 85.9014 176.127ZM93.7598 176L93.7598 171.62C93.7598 170.77 93.3154 170.287 92.5537 170.287C91.5 170.287 90.9668 170.922 90.9668 172.217L90.9668 176H89.6211L89.6211 166.479H90.9668L90.9668 170.49H91.0938C91.1699 169.589 91.7412 169.145 92.8711 169.145C94.293 169.145 95.1055 170.046 95.1055 171.62L95.1055 176H93.7598ZM97.1875 176L97.1875 174.896H99.752L99.752 170.389H97.5684L97.5684 169.271H101.098L101.098 174.896H103.167L103.167 176H97.1875ZM100.349 168.205C99.8281 168.205 99.4092 167.786 99.4092 167.266C99.4092 166.745 99.8281 166.326 100.349 166.326C100.869 166.326 101.288 166.745 101.288 167.266C101.288 167.786 100.869 168.205 100.349 168.205ZM107.077 176.127C106.062 176.127 105.376 176.076 104.779 175.937L104.932 174.718C105.82 174.857 106.468 174.921 107.077 174.921C108.436 174.921 109.02 174.667 109.02 174.083C109.02 173.677 108.804 173.512 108.359 173.397L106.811 173.004C105.484 172.667 104.881 172.255 104.881 171.239C104.881 169.767 105.947 169.145 108.461 169.145C109.108 169.145 109.642 169.183 110.238 169.271L110.099 170.439C109.413 170.376 108.918 170.351 108.423 170.351C106.912 170.351 106.277 170.592 106.277 171.176C106.277 171.569 106.55 171.696 107.128 171.836L108.372 172.141C109.781 172.483 110.416 172.979 110.416 174.058C110.416 175.505 109.413 176.127 107.077 176.127Z" fill="#0078D4"/>
<path d="M253.162 32.127C250.471 32.127 249.125 30.5781 249.125 27.4805C249.125 24.5479 250.585 22.8594 253.111 22.8594C254.375 22.8594 255.365 23.272 255.815 23.9893L254.87 24.9287C254.476 24.3574 253.86 24.0273 253.188 24.0273C251.48 24.0273 250.483 25.2588 250.483 27.417C250.483 29.7783 251.436 30.959 253.314 30.959C253.733 30.959 254.102 30.9019 254.419 30.832L254.419 28.6992H252.578L252.578 27.4932H255.625L255.625 31.7461C255.27 31.8604 254.305 32.127 253.162 32.127ZM260.589 32.127C258.291 32.127 256.996 30.8828 256.996 28.623C256.996 26.4268 258.101 25.1445 260.03 25.1445C261.846 25.1445 262.887 26.2744 262.887 28.3691C262.887 28.6865 262.874 28.9658 262.849 29.2324H258.304C258.539 30.356 259.389 30.9463 260.741 30.9463C261.3 30.9463 261.833 30.8828 262.392 30.7686L262.557 31.9492C261.757 32.1016 261.097 32.127 260.589 32.127ZM258.253 28.2041H261.668C261.668 26.998 261.059 26.3252 260.043 26.3252C259.002 26.3252 258.361 27.0044 258.253 28.2041ZM268.955 32L268.955 27.6201C268.955 26.8076 268.511 26.3506 267.749 26.3506C266.695 26.3506 266.162 26.9663 266.162 28.2168L266.162 32H264.816L264.816 25.2715H266.035L266.143 26.4902H266.289C266.365 25.5889 266.937 25.1445 268.066 25.1445C269.488 25.1445 270.301 26.0459 270.301 27.6201L270.301 32H268.955ZM275.823 32.127C273.525 32.127 272.23 30.8828 272.23 28.623C272.23 26.4268 273.335 25.1445 275.265 25.1445C277.08 25.1445 278.121 26.2744 278.121 28.3691C278.121 28.6865 278.108 28.9658 278.083 29.2324H273.538C273.773 30.356 274.624 30.9463 275.976 30.9463C276.534 30.9463 277.067 30.8828 277.626 30.7686L277.791 31.9492C276.991 32.1016 276.331 32.127 275.823 32.127ZM273.487 28.2041H276.902C276.902 26.998 276.293 26.3252 275.277 26.3252C274.236 26.3252 273.595 27.0044 273.487 28.2041ZM282.336 29.1055L282.336 30.8955H283.986L283.986 32H279.492L279.492 30.8955H280.99L280.99 26.376H279.746L279.746 25.2715H282.082L282.311 26.998H282.463C282.539 25.7539 283.148 25.1445 284.316 25.1445C285.7 25.1445 286.297 25.8936 286.297 27.6709H284.964C284.964 26.6934 284.685 26.2871 284.037 26.2871C282.895 26.2871 282.336 27.3027 282.336 29.1055ZM291.794 32.0635L291.73 30.5781H291.597C291.502 31.6128 290.67 32.127 289.42 32.127C288.017 32.127 287.211 31.4224 287.211 30.1846C287.211 28.7627 288.315 27.9756 290.258 27.9756C290.74 27.9756 291.159 28.0073 291.527 28.0835L291.527 27.7725C291.527 26.8774 290.893 26.4775 289.648 26.4458L288.036 26.4014L288.163 25.208L289.521 25.2271C291.743 25.2588 292.81 26.1982 292.81 27.9756L292.81 30.7812L293.952 30.9209L293.952 32L291.794 32.0635ZM291.527 29.1182C291.096 29.0547 290.67 29.0547 290.232 29.0547C289.083 29.0547 288.48 29.3975 288.48 30.0576C288.48 30.686 288.899 31.0479 289.636 31.0479C290.893 31.0479 291.527 30.2988 291.527 29.5879L291.527 29.1182ZM299.183 32.127C297.139 32.127 296.288 31.3271 296.288 29.4609L296.288 26.376H294.6L294.6 25.2715H296.288L296.288 23.2402H297.634L297.634 25.2715H300.693L300.693 26.376H297.634L297.634 29.3975C297.634 30.4639 298.116 30.9209 299.31 30.9209C299.729 30.9209 300.186 30.8701 300.795 30.7939L300.947 31.9746C300.351 32.0762 299.817 32.127 299.183 32.127ZM306.292 32.127C303.994 32.127 302.699 30.8828 302.699 28.623C302.699 26.4268 303.804 25.1445 305.733 25.1445C307.549 25.1445 308.59 26.2744 308.59 28.3691C308.59 28.6865 308.577 28.9658 308.552 29.2324H304.007C304.242 30.356 305.092 30.9463 306.444 30.9463C307.003 30.9463 307.536 30.8828 308.095 30.7686L308.26 31.9492C307.46 32.1016 306.8 32.127 306.292 32.127ZM303.956 28.2041H307.371C307.371 26.998 306.762 26.3252 305.746 26.3252C304.705 26.3252 304.064 27.0044 303.956 28.2041ZM320.879 32.127C320.358 32.127 319.939 31.708 319.939 31.1875C319.939 30.667 320.358 30.248 320.879 30.248C321.399 30.248 321.818 30.667 321.818 31.1875C321.818 31.708 321.399 32.127 320.879 32.127ZM320.879 27.0234C320.358 27.0234 319.939 26.6045 319.939 26.084C319.939 25.5635 320.358 25.1445 320.879 25.1445C321.399 25.1445 321.818 25.5635 321.818 26.084C321.818 26.6045 321.399 27.0234 320.879 27.0234ZM333.32 32L333.32 22.9863H335.999C337.827 22.9863 338.868 23.8115 338.868 25.2715C338.868 26.3696 338.094 27.0425 336.71 27.1885L336.71 27.2646C338.494 27.29 339.503 28.1089 339.503 29.5244C339.503 31.0986 338.513 32 336.773 32H333.32ZM334.59 30.7939H336.405C337.522 30.7939 338.17 30.2607 338.17 29.334C338.17 28.3882 337.497 27.8423 336.316 27.8423H334.59L334.59 30.7939ZM334.59 26.6362H336.024C336.983 26.6362 337.535 26.1919 337.535 25.3984C337.535 24.624 336.958 24.1924 335.936 24.1924H334.59L334.59 26.6362ZM345.114 32.0635L345.051 30.5781H344.917C344.822 31.6128 343.991 32.127 342.74 32.127C341.337 32.127 340.531 31.4224 340.531 30.1846C340.531 28.7627 341.636 27.9756 343.578 27.9756C344.061 27.9756 344.479 28.0073 344.848 28.0835L344.848 27.7725C344.848 26.8774 344.213 26.4775 342.969 26.4458L341.356 26.4014L341.483 25.208L342.842 25.2271C345.063 25.2588 346.13 26.1982 346.13 27.9756L346.13 30.7812L347.272 30.9209L347.272 32L345.114 32.0635ZM344.848 29.1182C344.416 29.0547 343.991 29.0547 343.553 29.0547C342.404 29.0547 341.801 29.3975 341.801 30.0576C341.801 30.686 342.22 31.0479 342.956 31.0479C344.213 31.0479 344.848 30.2988 344.848 29.5879L344.848 29.1182ZM350.827 32.127C349.812 32.127 349.126 32.0762 348.529 31.9365L348.682 30.7178C349.57 30.8574 350.218 30.9209 350.827 30.9209C352.186 30.9209 352.77 30.667 352.77 30.083C352.77 29.6768 352.554 29.5117 352.109 29.3975L350.561 29.0039C349.234 28.6675 348.631 28.2549 348.631 27.2393C348.631 25.7666 349.697 25.1445 352.211 25.1445C352.858 25.1445 353.392 25.1826 353.988 25.2715L353.849 26.4395C353.163 26.376 352.668 26.3506 352.173 26.3506C350.662 26.3506 350.027 26.5918 350.027 27.1758C350.027 27.5693 350.3 27.6963 350.878 27.8359L352.122 28.1406C353.531 28.4834 354.166 28.9785 354.166 30.0576C354.166 31.5049 353.163 32.127 350.827 32.127ZM359.612 32.127C357.314 32.127 356.02 30.8828 356.02 28.623C356.02 26.4268 357.124 25.1445 359.054 25.1445C360.869 25.1445 361.91 26.2744 361.91 28.3691C361.91 28.6865 361.897 28.9658 361.872 29.2324H357.327C357.562 30.356 358.413 30.9463 359.765 30.9463C360.323 30.9463 360.856 30.8828 361.415 30.7686L361.58 31.9492C360.78 32.1016 360.12 32.127 359.612 32.127ZM357.276 28.2041H360.691C360.691 26.998 360.082 26.3252 359.066 26.3252C358.025 26.3252 357.384 27.0044 357.276 28.2041ZM366.271 32.127C365.243 32.127 364.354 31.9619 363.592 31.6318L363.757 30.3496C364.684 30.7495 365.547 30.959 366.373 30.959C367.553 30.959 368.125 30.5464 368.125 29.7021C368.125 29.1436 367.833 28.7627 367.299 28.5215L365.738 27.8105C364.506 27.252 363.833 26.5029 363.833 25.335C363.833 23.7607 364.824 22.8594 366.557 22.8594C367.769 22.8594 368.645 23.1958 369.508 23.9956L368.62 24.897C367.871 24.2876 367.261 24.0273 366.563 24.0273C365.693 24.0273 365.192 24.4526 365.192 25.2715C365.192 25.8555 365.509 26.1919 366.119 26.4775L367.439 27.0996C368.772 27.728 369.483 28.4453 369.483 29.6768C369.483 31.3081 368.429 32.127 366.271 32.127ZM375.583 32.0635L375.52 30.5781H375.386C375.291 31.6128 374.459 32.127 373.209 32.127C371.806 32.127 371 31.4224 371 30.1846C371 28.7627 372.104 27.9756 374.047 27.9756C374.529 27.9756 374.948 28.0073 375.316 28.0835L375.316 27.7725C375.316 26.8774 374.682 26.4775 373.438 26.4458L371.825 26.4014L371.952 25.208L373.311 25.2271C375.532 25.2588 376.599 26.1982 376.599 27.9756L376.599 30.7812L377.741 30.9209L377.741 32L375.583 32.0635ZM375.316 29.1182C374.885 29.0547 374.459 29.0547 374.021 29.0547C372.873 29.0547 372.27 29.3975 372.27 30.0576C372.27 30.686 372.688 31.0479 373.425 31.0479C374.682 31.0479 375.316 30.2988 375.316 29.5879L375.316 29.1182ZM383.568 32L383.568 26.8584C383.568 26.3887 383.403 26.1602 383.048 26.1602C382.604 26.1602 382.388 26.4648 382.388 27.0742L382.388 32H381.245L381.245 26.7314C381.245 26.3506 381.067 26.1602 380.712 26.1602C380.28 26.1602 380.064 26.4648 380.064 27.0742L380.064 32H378.719L378.719 25.2715H379.912L380.001 26.1094H380.103C380.153 25.4619 380.521 25.1445 381.258 25.1445C381.823 25.1445 382.216 25.4619 382.343 26.1094H382.451C382.489 25.5889 382.87 25.1445 383.581 25.1445C384.508 25.1445 384.914 25.6143 384.914 26.7314L384.914 32H383.568ZM389.954 32.127C388.938 32.127 388.253 31.7334 388.164 30.959H388.037L388.037 34.9199H386.691L386.691 25.2715H387.91L388.018 26.4902H388.164C388.278 25.5889 388.862 25.1445 389.941 25.1445C391.655 25.1445 392.633 26.4395 392.633 28.6992C392.633 30.9082 391.655 32.127 389.954 32.127ZM388.037 29.8418C388.037 30.6035 388.532 30.9844 389.548 30.9844C390.703 30.9844 391.3 30.21 391.3 28.6992C391.3 27.1631 390.671 26.2871 389.561 26.2871C388.545 26.2871 388.037 26.8394 388.037 27.9629L388.037 29.8418ZM397.99 32.127C396.429 32.127 395.781 31.3271 395.781 29.4609L395.781 23.583H393.801L393.801 22.4785H397.127L397.127 29.3975C397.127 30.4639 397.343 30.9209 398.498 30.9209C398.879 30.9209 399.285 30.8447 399.844 30.6797L399.996 31.8604C399.311 32.0508 398.714 32.127 397.99 32.127ZM405.315 32.127C403.018 32.127 401.723 30.8828 401.723 28.623C401.723 26.4268 402.827 25.1445 404.757 25.1445C406.572 25.1445 407.613 26.2744 407.613 28.3691C407.613 28.6865 407.601 28.9658 407.575 29.2324H403.03C403.265 30.356 404.116 30.9463 405.468 30.9463C406.026 30.9463 406.56 30.8828 407.118 30.7686L407.283 31.9492C406.483 32.1016 405.823 32.127 405.315 32.127ZM402.979 28.2041H406.395C406.395 26.998 405.785 26.3252 404.77 26.3252C403.729 26.3252 403.087 27.0044 402.979 28.2041ZM409.492 32L409.492 22.9863H412.146C414.335 22.9863 415.586 24.1226 415.586 26.0967C415.586 28.0771 414.335 29.207 412.146 29.207H410.762L410.762 32H409.492ZM410.762 28.001H412.146C413.485 28.001 414.253 27.3027 414.253 26.0967C414.253 24.8843 413.485 24.1924 412.146 24.1924H410.762L410.762 28.001ZM421.286 32.0635L421.223 30.5781H421.089C420.994 31.6128 420.163 32.127 418.912 32.127C417.509 32.127 416.703 31.4224 416.703 30.1846C416.703 28.7627 417.808 27.9756 419.75 27.9756C420.232 27.9756 420.651 28.0073 421.02 28.0835L421.02 27.7725C421.02 26.8774 420.385 26.4775 419.141 26.4458L417.528 26.4014L417.655 25.208L419.014 25.2271C421.235 25.2588 422.302 26.1982 422.302 27.9756L422.302 30.7812L423.444 30.9209L423.444 32L421.286 32.0635ZM421.02 29.1182C420.588 29.0547 420.163 29.0547 419.725 29.0547C418.576 29.0547 417.973 29.3975 417.973 30.0576C417.973 30.686 418.392 31.0479 419.128 31.0479C420.385 31.0479 421.02 30.2988 421.02 29.5879L421.02 29.1182ZM426.999 32.127C425.298 32.127 424.32 30.9082 424.32 28.6992C424.32 26.4395 425.298 25.1445 427.012 25.1445C428.091 25.1445 428.675 25.5889 428.789 26.4902H428.935L429.043 25.2715H430.262L430.262 31.4033C430.262 33.8027 429.221 34.8945 426.834 34.9707L424.866 35.0342L424.803 33.8027L426.961 33.7393C428.319 33.7012 428.903 32.9902 428.903 31.6064L428.903 30.959H428.789C428.7 31.7334 428.015 32.127 426.999 32.127ZM428.916 29.8418L428.916 27.9629C428.916 26.8394 428.408 26.2871 427.393 26.2871C426.282 26.2871 425.653 27.1631 425.653 28.6992C425.653 30.21 426.25 30.9844 427.405 30.9844C428.421 30.9844 428.916 30.6035 428.916 29.8418ZM435.784 32.127C433.486 32.127 432.191 30.8828 432.191 28.623C432.191 26.4268 433.296 25.1445 435.226 25.1445C437.041 25.1445 438.082 26.2744 438.082 28.3691C438.082 28.6865 438.069 28.9658 438.044 29.2324H433.499C433.734 30.356 434.584 30.9463 435.937 30.9463C436.495 30.9463 437.028 30.8828 437.587 30.7686L437.752 31.9492C436.952 32.1016 436.292 32.127 435.784 32.127ZM433.448 28.2041H436.863C436.863 26.998 436.254 26.3252 435.238 26.3252C434.197 26.3252 433.556 27.0044 433.448 28.2041ZM25.2432 49.3584C23.8657 49.3584 23.0723 48.4951 23.0723 47.0098C23.0723 46.2988 23.3389 45.6196 23.3389 44.877C23.3389 44.166 22.2344 43.9629 21.625 43.9629L21.625 42.96C22.209 42.96 23.3389 42.6299 23.3389 42.0459C23.3389 41.2715 23.0723 40.624 23.0723 39.9131C23.0723 38.4849 23.8657 37.6787 25.2432 37.6787C25.7383 37.6787 26.043 37.7295 26.3223 37.8057L26.1699 38.8848C25.8716 38.8467 25.5923 38.8213 25.3574 38.8213C24.7544 38.8213 24.4307 39.2212 24.4307 39.9131C24.4307 40.6494 24.7227 41.2842 24.7227 42.0205C24.7227 42.8584 24.1069 43.3345 23.0596 43.3535L23.0596 43.5693C24.1069 43.5884 24.7227 44.0962 24.7227 44.9023C24.7227 45.6704 24.4307 46.3052 24.4307 47.0098C24.4307 47.7778 24.7544 48.2158 25.3574 48.2158C25.5923 48.2158 25.8716 48.1904 26.1699 48.1523L26.3223 49.2314C26.043 49.3076 25.7383 49.3584 25.2432 49.3584ZM112.473 64L112.473 62.7939H114.574L114.574 56.1924H112.473L112.473 54.9863H117.957L117.957 56.1924H115.843L115.843 62.7939H117.957L117.957 64H112.473ZM123.835 64.127C121.042 64.127 119.633 62.5781 119.633 59.4805C119.633 56.5479 121.105 54.8594 123.683 54.8594C124.927 54.8594 125.892 55.272 126.317 55.9956L125.377 56.9287C124.997 56.3574 124.381 56.0273 123.695 56.0273C122.058 56.0273 120.991 57.2524 120.991 59.417C120.991 61.7783 122.02 62.959 124.051 62.959C124.673 62.959 125.27 62.832 125.866 62.5781L126.158 63.6953C125.409 63.9873 124.635 64.127 123.835 64.127ZM131.846 64L131.846 59.6201C131.846 58.7695 131.401 58.2871 130.64 58.2871C129.586 58.2871 129.053 58.9219 129.053 60.2168L129.053 64H127.707L127.707 54.4785H129.053L129.053 58.4902H129.18C129.256 57.5889 129.827 57.1445 130.957 57.1445C132.379 57.1445 133.191 58.0459 133.191 59.6201L133.191 64H131.846ZM139.45 64.0635L139.387 62.5781H139.253C139.158 63.6128 138.327 64.127 137.076 64.127C135.673 64.127 134.867 63.4224 134.867 62.1846C134.867 60.7627 135.972 59.9756 137.914 59.9756C138.396 59.9756 138.815 60.0073 139.184 60.0835L139.184 59.7725C139.184 58.8774 138.549 58.4775 137.305 58.4458L135.692 58.4014L135.819 57.208L137.178 57.2271C139.399 57.2588 140.466 58.1982 140.466 59.9756L140.466 62.7812L141.608 62.9209L141.608 64L139.45 64.0635ZM139.184 61.1182C138.752 61.0547 138.327 61.0547 137.889 61.0547C136.74 61.0547 136.137 61.3975 136.137 62.0576C136.137 62.686 136.556 63.0479 137.292 63.0479C138.549 63.0479 139.184 62.2988 139.184 61.5879L139.184 61.1182ZM146.839 64.127C144.795 64.127 143.944 63.3271 143.944 61.4609L143.944 58.376H142.256L142.256 57.2715H143.944L143.944 55.2402H145.29L145.29 57.2715H148.35L148.35 58.376H145.29L145.29 61.3975C145.29 62.4639 145.772 62.9209 146.966 62.9209C147.385 62.9209 147.842 62.8701 148.451 62.7939L148.604 63.9746C148.007 64.0762 147.474 64.127 146.839 64.127ZM154.304 64.127C151.511 64.127 150.102 62.5781 150.102 59.4805C150.102 56.5479 151.574 54.8594 154.151 54.8594C155.396 54.8594 156.36 55.272 156.786 55.9956L155.846 56.9287C155.465 56.3574 154.85 56.0273 154.164 56.0273C152.526 56.0273 151.46 57.2524 151.46 59.417C151.46 61.7783 152.488 62.959 154.52 62.959C155.142 62.959 155.738 62.832 156.335 62.5781L156.627 63.6953C155.878 63.9873 155.104 64.127 154.304 64.127ZM161.857 64.127C160.296 64.127 159.648 63.3271 159.648 61.4609L159.648 55.583H157.668L157.668 54.4785H160.994L160.994 61.3975C160.994 62.4639 161.21 62.9209 162.365 62.9209C162.746 62.9209 163.152 62.8447 163.711 62.6797L163.863 63.8604C163.178 64.0508 162.581 64.127 161.857 64.127ZM165.742 64L165.742 62.8955H168.307L168.307 58.3887H166.123L166.123 57.2715H169.652L169.652 62.8955H171.722L171.722 64H165.742ZM168.903 56.2051C168.383 56.2051 167.964 55.7861 167.964 55.2656C167.964 54.7451 168.383 54.3262 168.903 54.3262C169.424 54.3262 169.843 54.7451 169.843 55.2656C169.843 55.7861 169.424 56.2051 168.903 56.2051ZM176.8 64.127C174.502 64.127 173.207 62.8828 173.207 60.623C173.207 58.4268 174.312 57.1445 176.241 57.1445C178.057 57.1445 179.098 58.2744 179.098 60.3691C179.098 60.6865 179.085 60.9658 179.06 61.2324H174.515C174.75 62.356 175.6 62.9463 176.952 62.9463C177.511 62.9463 178.044 62.8828 178.603 62.7686L178.768 63.9492C177.968 64.1016 177.308 64.127 176.8 64.127ZM174.464 60.2041H177.879C177.879 58.998 177.27 58.3252 176.254 58.3252C175.213 58.3252 174.572 59.0044 174.464 60.2041ZM185.166 64L185.166 59.6201C185.166 58.8076 184.722 58.3506 183.96 58.3506C182.906 58.3506 182.373 58.9663 182.373 60.2168L182.373 64H181.027L181.027 57.2715H182.246L182.354 58.4902H182.5C182.576 57.5889 183.147 57.1445 184.277 57.1445C185.699 57.1445 186.512 58.0459 186.512 59.6201L186.512 64H185.166ZM192.542 64.127C190.498 64.127 189.647 63.3271 189.647 61.4609L189.647 58.376H187.959L187.959 57.2715H189.647L189.647 55.2402H190.993L190.993 57.2715H194.053L194.053 58.376H190.993L190.993 61.3975C190.993 62.4639 191.476 62.9209 192.669 62.9209C193.088 62.9209 193.545 62.8701 194.154 62.7939L194.307 63.9746C193.71 64.0762 193.177 64.127 192.542 64.127ZM198.369 61.1055L198.369 60.4961C198.369 59.6582 198.712 59.0234 199.41 58.5791C200.096 58.1538 200.438 57.6523 200.438 57.0684C200.438 56.4336 199.994 56.0654 199.22 56.0654C198.426 56.0654 197.601 56.4971 197.062 57.1572L196.186 56.2495C196.776 55.4116 197.957 54.8594 199.232 54.8594C200.883 54.8594 201.835 55.6465 201.835 57.0049C201.835 57.9443 201.365 58.7124 200.426 59.3154C199.88 59.6709 199.613 60.0898 199.613 60.585L199.613 61.1055H198.369ZM199.017 64.127C198.496 64.127 198.077 63.708 198.077 63.1875C198.077 62.667 198.496 62.248 199.017 62.248C199.537 62.248 199.956 62.667 199.956 63.1875C199.956 63.708 199.537 64.127 199.017 64.127ZM215.99 64L215.99 58.8584C215.99 58.3887 215.825 58.1602 215.47 58.1602C215.025 58.1602 214.81 58.4648 214.81 59.0742L214.81 64H213.667L213.667 58.7314C213.667 58.3506 213.489 58.1602 213.134 58.1602C212.702 58.1602 212.486 58.4648 212.486 59.0742L212.486 64H211.141L211.141 57.2715H212.334L212.423 58.1094H212.524C212.575 57.4619 212.943 57.1445 213.68 57.1445C214.245 57.1445 214.638 57.4619 214.765 58.1094H214.873C214.911 57.5889 215.292 57.1445 216.003 57.1445C216.93 57.1445 217.336 57.6143 217.336 58.7314L217.336 64H215.99ZM221.855 64.127C219.989 64.127 218.91 62.8574 218.91 60.6357C218.91 58.4141 219.989 57.1445 221.855 57.1445C223.722 57.1445 224.801 58.4141 224.801 60.6357C224.801 62.8574 223.722 64.127 221.855 64.127ZM221.855 62.9209C222.846 62.9209 223.404 62.0957 223.404 60.6357C223.404 59.1758 222.846 58.3506 221.855 58.3506C220.865 58.3506 220.307 59.1758 220.307 60.6357C220.307 62.0957 220.865 62.9209 221.855 62.9209ZM228.952 64.127C227.251 64.127 226.273 62.9082 226.273 60.6992C226.273 58.4395 227.251 57.1445 228.965 57.1445C230.044 57.1445 230.628 57.5889 230.742 58.4902H230.869L230.869 54.4785H232.215L232.215 64L231.009 64.0635L230.895 62.959H230.742C230.653 63.7334 229.968 64.127 228.952 64.127ZM230.869 61.1055L230.869 60.2168C230.869 58.9219 230.298 58.2871 229.155 58.2871C228.165 58.2871 227.606 59.1631 227.606 60.6992C227.606 62.21 228.14 62.9844 229.168 62.9844C230.311 62.9844 230.869 62.6035 230.869 61.8418L230.869 61.1055ZM237.737 64.127C235.439 64.127 234.145 62.8828 234.145 60.623C234.145 58.4268 235.249 57.1445 237.179 57.1445C238.994 57.1445 240.035 58.2744 240.035 60.3691C240.035 60.6865 240.022 60.9658 239.997 61.2324H235.452C235.687 62.356 236.538 62.9463 237.89 62.9463C238.448 62.9463 238.981 62.8828 239.54 62.7686L239.705 63.9492C238.905 64.1016 238.245 64.127 237.737 64.127ZM235.401 60.2041H238.816C238.816 58.998 238.207 58.3252 237.191 58.3252C236.15 58.3252 235.509 59.0044 235.401 60.2041ZM245.646 64.127C244.085 64.127 243.438 63.3271 243.438 61.4609L243.438 55.583H241.457L241.457 54.4785H244.783L244.783 61.3975C244.783 62.4639 244.999 62.9209 246.154 62.9209C246.535 62.9209 246.941 62.8447 247.5 62.6797L247.652 63.8604C246.967 64.0508 246.37 64.127 245.646 64.127ZM251.067 66.7676L251.575 62.3877H253.048L252.286 66.7676H251.067ZM252.324 59.0234C251.804 59.0234 251.385 58.6045 251.385 58.084C251.385 57.5635 251.804 57.1445 252.324 57.1445C252.845 57.1445 253.264 57.5635 253.264 58.084C253.264 58.6045 252.845 59.0234 252.324 59.0234ZM116.218 80.127C113.425 80.127 112.016 78.5781 112.016 75.4805C112.016 72.5479 113.488 70.8594 116.065 70.8594C117.31 70.8594 118.274 71.272 118.7 71.9956L117.76 72.9287C117.379 72.3574 116.764 72.0273 116.078 72.0273C114.44 72.0273 113.374 73.2524 113.374 75.417C113.374 77.7783 114.402 78.959 116.434 78.959C117.056 78.959 117.652 78.832 118.249 78.5781L118.541 79.6953C117.792 79.9873 117.018 80.127 116.218 80.127ZM124.216 80.0635L124.152 78.5781H124.019C123.924 79.6128 123.092 80.127 121.842 80.127C120.439 80.127 119.633 79.4224 119.633 78.1846C119.633 76.7627 120.737 75.9756 122.68 75.9756C123.162 75.9756 123.581 76.0073 123.949 76.0835L123.949 75.7725C123.949 74.8774 123.314 74.4775 122.07 74.4458L120.458 74.4014L120.585 73.208L121.943 73.2271C124.165 73.2588 125.231 74.1982 125.231 75.9756L125.231 78.7812L126.374 78.9209L126.374 80L124.216 80.0635ZM123.949 77.1182C123.518 77.0547 123.092 77.0547 122.654 77.0547C121.505 77.0547 120.902 77.3975 120.902 78.0576C120.902 78.686 121.321 79.0479 122.058 79.0479C123.314 79.0479 123.949 78.2988 123.949 77.5879L123.949 77.1182ZM131.846 80L131.846 75.6201C131.846 74.8076 131.401 74.3506 130.64 74.3506C129.586 74.3506 129.053 74.9663 129.053 76.2168L129.053 80H127.707L127.707 73.2715H128.926L129.034 74.4902H129.18C129.256 73.5889 129.827 73.1445 130.957 73.1445C132.379 73.1445 133.191 74.0459 133.191 75.6201L133.191 80H131.846ZM138.587 80.127C136.378 80.127 135.121 78.8828 135.121 76.623C135.121 74.4268 136.346 73.1445 138.536 73.1445C139.844 73.1445 140.821 73.6523 141.221 74.541L140.187 75.3218C139.806 74.7061 139.19 74.3506 138.485 74.3506C137.241 74.3506 136.518 75.1504 136.518 76.5596C136.518 78.0957 137.317 78.9209 138.739 78.9209C139.412 78.9209 140.085 78.8574 140.72 78.7559L140.872 79.9365C140.136 80.0889 139.336 80.127 138.587 80.127ZM146.331 80.127C144.033 80.127 142.738 78.8828 142.738 76.623C142.738 74.4268 143.843 73.1445 145.772 73.1445C147.588 73.1445 148.629 74.2744 148.629 76.3691C148.629 76.6865 148.616 76.9658 148.591 77.2324H144.046C144.281 78.356 145.131 78.9463 146.483 78.9463C147.042 78.9463 147.575 78.8828 148.134 78.7686L148.299 79.9492C147.499 80.1016 146.839 80.127 146.331 80.127ZM143.995 76.2041H147.41C147.41 74.998 146.801 74.3252 145.785 74.3252C144.744 74.3252 144.103 75.0044 143.995 76.2041ZM154.24 80.127C152.679 80.127 152.031 79.3271 152.031 77.4609L152.031 71.583H150.051L150.051 70.4785H153.377L153.377 77.3975C153.377 78.4639 153.593 78.9209 154.748 78.9209C155.129 78.9209 155.535 78.8447 156.094 78.6797L156.246 79.8604C155.561 80.0508 154.964 80.127 154.24 80.127ZM161.857 80.127C160.296 80.127 159.648 79.3271 159.648 77.4609L159.648 71.583H157.668L157.668 70.4785H160.994L160.994 77.3975C160.994 78.4639 161.21 78.9209 162.365 78.9209C162.746 78.9209 163.152 78.8447 163.711 78.6797L163.863 79.8604C163.178 80.0508 162.581 80.127 161.857 80.127ZM169.919 80.0635L169.855 78.5781H169.722C169.627 79.6128 168.795 80.127 167.545 80.127C166.142 80.127 165.336 79.4224 165.336 78.1846C165.336 76.7627 166.44 75.9756 168.383 75.9756C168.865 75.9756 169.284 76.0073 169.652 76.0835L169.652 75.7725C169.652 74.8774 169.018 74.4775 167.773 74.4458L166.161 74.4014L166.288 73.208L167.646 73.2271C169.868 73.2588 170.935 74.1982 170.935 75.9756L170.935 78.7812L172.077 78.9209L172.077 80L169.919 80.0635ZM169.652 77.1182C169.221 77.0547 168.795 77.0547 168.357 77.0547C167.208 77.0547 166.605 77.3975 166.605 78.0576C166.605 78.686 167.024 79.0479 167.761 79.0479C169.018 79.0479 169.652 78.2988 169.652 77.5879L169.652 77.1182ZM177.308 80.127C175.264 80.127 174.413 79.3271 174.413 77.4609L174.413 74.376H172.725L172.725 73.2715H174.413L174.413 71.2402H175.759L175.759 73.2715H178.818L178.818 74.376H175.759L175.759 77.3975C175.759 78.4639 176.241 78.9209 177.435 78.9209C177.854 78.9209 178.311 78.8701 178.92 78.7939L179.072 79.9746C178.476 80.0762 177.942 80.127 177.308 80.127ZM180.977 80L180.977 78.8955H183.541L183.541 74.3887H181.357L181.357 73.2715H184.887L184.887 78.8955H186.956L186.956 80H180.977ZM184.138 72.2051C183.617 72.2051 183.198 71.7861 183.198 71.2656C183.198 70.7451 183.617 70.3262 184.138 70.3262C184.658 70.3262 185.077 70.7451 185.077 71.2656C185.077 71.7861 184.658 72.2051 184.138 72.2051ZM191.387 80.127C189.521 80.127 188.441 78.8574 188.441 76.6357C188.441 74.4141 189.521 73.1445 191.387 73.1445C193.253 73.1445 194.332 74.4141 194.332 76.6357C194.332 78.8574 193.253 80.127 191.387 80.127ZM191.387 78.9209C192.377 78.9209 192.936 78.0957 192.936 76.6357C192.936 75.1758 192.377 74.3506 191.387 74.3506C190.396 74.3506 189.838 75.1758 189.838 76.6357C189.838 78.0957 190.396 78.9209 191.387 78.9209ZM200.4 80L200.4 75.6201C200.4 74.8076 199.956 74.3506 199.194 74.3506C198.141 74.3506 197.607 74.9663 197.607 76.2168L197.607 80H196.262L196.262 73.2715H197.48L197.588 74.4902H197.734C197.811 73.5889 198.382 73.1445 199.512 73.1445C200.934 73.1445 201.746 74.0459 201.746 75.6201L201.746 80H200.4ZM205.986 80L205.986 72.1924H203.32L203.32 70.9863H209.922L209.922 72.1924H207.256L207.256 80H205.986ZM214.238 80.127C212.372 80.127 211.293 78.8574 211.293 76.6357C211.293 74.4141 212.372 73.1445 214.238 73.1445C216.104 73.1445 217.184 74.4141 217.184 76.6357C217.184 78.8574 216.104 80.127 214.238 80.127ZM214.238 78.9209C215.229 78.9209 215.787 78.0957 215.787 76.6357C215.787 75.1758 215.229 74.3506 214.238 74.3506C213.248 74.3506 212.689 75.1758 212.689 76.6357C212.689 78.0957 213.248 78.9209 214.238 78.9209ZM219.063 80L219.063 70.4785H220.408L220.408 76.2422H220.776C222.452 76.2422 223.163 75.4487 223.455 73.2715H224.852C224.642 74.9219 224.128 76.0771 223.303 76.7437L225.283 80H223.62L222.065 77.3403C221.767 77.4102 221.443 77.4482 221.094 77.4482H220.408L220.408 80H219.063ZM230.12 80.127C227.822 80.127 226.527 78.8828 226.527 76.623C226.527 74.4268 227.632 73.1445 229.562 73.1445C231.377 73.1445 232.418 74.2744 232.418 76.3691C232.418 76.6865 232.405 76.9658 232.38 77.2324H227.835C228.07 78.356 228.92 78.9463 230.272 78.9463C230.831 78.9463 231.364 78.8828 231.923 78.7686L232.088 79.9492C231.288 80.1016 230.628 80.127 230.12 80.127ZM227.784 76.2041H231.199C231.199 74.998 230.59 74.3252 229.574 74.3252C228.533 74.3252 227.892 75.0044 227.784 76.2041ZM238.486 80L238.486 75.6201C238.486 74.8076 238.042 74.3506 237.28 74.3506C236.227 74.3506 235.693 74.9663 235.693 76.2168L235.693 80H234.348L234.348 73.2715H235.566L235.674 74.4902H235.82C235.896 73.5889 236.468 73.1445 237.598 73.1445C239.02 73.1445 239.832 74.0459 239.832 75.6201L239.832 80H238.486ZM244.396 80.127C243.368 80.127 242.479 79.9619 241.717 79.6318L241.882 78.3496C242.809 78.7495 243.672 78.959 244.498 78.959C245.678 78.959 246.25 78.5464 246.25 77.7021C246.25 77.1436 245.958 76.7627 245.424 76.5215L243.863 75.8105C242.631 75.252 241.958 74.5029 241.958 73.335C241.958 71.7607 242.949 70.8594 244.682 70.8594C245.894 70.8594 246.77 71.1958 247.633 71.9956L246.745 72.897C245.996 72.2876 245.386 72.0273 244.688 72.0273C243.818 72.0273 243.317 72.4526 243.317 73.2715C243.317 73.8555 243.634 74.1919 244.244 74.4775L245.564 75.0996C246.897 75.728 247.608 76.4453 247.608 77.6768C247.608 79.3081 246.554 80.127 244.396 80.127ZM252.324 80.127C250.458 80.127 249.379 78.8574 249.379 76.6357C249.379 74.4141 250.458 73.1445 252.324 73.1445C254.19 73.1445 255.27 74.4141 255.27 76.6357C255.27 78.8574 254.19 80.127 252.324 80.127ZM252.324 78.9209C253.314 78.9209 253.873 78.0957 253.873 76.6357C253.873 75.1758 253.314 74.3506 252.324 74.3506C251.334 74.3506 250.775 75.1758 250.775 76.6357C250.775 78.0957 251.334 78.9209 252.324 78.9209ZM259.345 80.127C257.929 80.127 257.123 79.251 257.123 77.7148L257.123 73.2715H258.469L258.469 77.7148C258.469 78.4893 258.932 78.9209 259.726 78.9209C260.703 78.9209 261.211 78.356 261.211 76.8896L261.211 73.2715H262.557L262.557 78.7812L263.483 78.9209L263.483 80L261.325 80.0635L261.23 78.7051H261.109C260.894 79.6191 260.246 80.127 259.345 80.127ZM267.102 77.1055L267.102 78.8955H268.752L268.752 80H264.258L264.258 78.8955H265.756L265.756 74.376H264.512L264.512 73.2715H266.848L267.076 74.998H267.229C267.305 73.7539 267.914 73.1445 269.082 73.1445C270.466 73.1445 271.063 73.8936 271.063 75.6709H269.729C269.729 74.6934 269.45 74.2871 268.803 74.2871C267.66 74.2871 267.102 75.3027 267.102 77.1055ZM275.696 80.127C273.487 80.127 272.23 78.8828 272.23 76.623C272.23 74.4268 273.456 73.1445 275.646 73.1445C276.953 73.1445 277.931 73.6523 278.331 74.541L277.296 75.3218C276.915 74.7061 276.299 74.3506 275.595 74.3506C274.351 74.3506 273.627 75.1504 273.627 76.5596C273.627 78.0957 274.427 78.9209 275.849 78.9209C276.521 78.9209 277.194 78.8574 277.829 78.7559L277.981 79.9365C277.245 80.0889 276.445 80.127 275.696 80.127ZM283.44 80.127C281.143 80.127 279.848 78.8828 279.848 76.623C279.848 74.4268 280.952 73.1445 282.882 73.1445C284.697 73.1445 285.738 74.2744 285.738 76.3691C285.738 76.6865 285.726 76.9658 285.7 77.2324H281.155C281.39 78.356 282.241 78.9463 283.593 78.9463C284.151 78.9463 284.685 78.8828 285.243 78.7686L285.408 79.9492C284.608 80.1016 283.948 80.127 283.44 80.127ZM281.104 76.2041H284.52C284.52 74.998 283.91 74.3252 282.895 74.3252C281.854 74.3252 281.212 75.0044 281.104 76.2041ZM289.775 77.1055L289.775 76.4961C289.775 75.6582 290.118 75.0234 290.816 74.5791C291.502 74.1538 291.845 73.6523 291.845 73.0684C291.845 72.4336 291.4 72.0654 290.626 72.0654C289.833 72.0654 289.007 72.4971 288.468 73.1572L287.592 72.2495C288.182 71.4116 289.363 70.8594 290.639 70.8594C292.289 70.8594 293.241 71.6465 293.241 73.0049C293.241 73.9443 292.771 74.7124 291.832 75.3154C291.286 75.6709 291.02 76.0898 291.02 76.585L291.02 77.1055H289.775ZM290.423 80.127C289.902 80.127 289.483 79.708 289.483 79.1875C289.483 78.667 289.902 78.248 290.423 78.248C290.943 78.248 291.362 78.667 291.362 79.1875C291.362 79.708 290.943 80.127 290.423 80.127ZM150.508 96L150.508 94.8955H153.072L153.072 90.3887H150.889L150.889 89.2715H154.418L154.418 94.8955H156.487L156.487 96H150.508ZM153.669 88.2051C153.148 88.2051 152.729 87.7861 152.729 87.2656C152.729 86.7451 153.148 86.3262 153.669 86.3262C154.189 86.3262 154.608 86.7451 154.608 87.2656C154.608 87.7861 154.189 88.2051 153.669 88.2051ZM160.397 96.127C159.382 96.127 158.696 96.0762 158.1 95.9365L158.252 94.7178C159.141 94.8574 159.788 94.9209 160.397 94.9209C161.756 94.9209 162.34 94.667 162.34 94.083C162.34 93.6768 162.124 93.5117 161.68 93.3975L160.131 93.0039C158.804 92.6675 158.201 92.2549 158.201 91.2393C158.201 89.7666 159.268 89.1445 161.781 89.1445C162.429 89.1445 162.962 89.1826 163.559 89.2715L163.419 90.4395C162.733 90.376 162.238 90.3506 161.743 90.3506C160.232 90.3506 159.598 90.5918 159.598 91.1758C159.598 91.5693 159.871 91.6963 160.448 91.8359L161.692 92.1406C163.102 92.4834 163.736 92.9785 163.736 94.0576C163.736 95.5049 162.733 96.127 160.397 96.127ZM165.742 96L165.742 86.9863H168.396C170.585 86.9863 171.836 88.1226 171.836 90.0967C171.836 92.0771 170.585 93.207 168.396 93.207H167.012L167.012 96H165.742ZM167.012 92.001H168.396C169.735 92.001 170.503 91.3027 170.503 90.0967C170.503 88.8843 169.735 88.1924 168.396 88.1924H167.012L167.012 92.001ZM175.695 93.1055L175.695 94.8955H177.346L177.346 96H172.852L172.852 94.8955H174.35L174.35 90.376H173.105L173.105 89.2715H175.441L175.67 90.998H175.822C175.898 89.7539 176.508 89.1445 177.676 89.1445C179.06 89.1445 179.656 89.8936 179.656 91.6709H178.323C178.323 90.6934 178.044 90.2871 177.396 90.2871C176.254 90.2871 175.695 91.3027 175.695 93.1055ZM183.77 96.127C181.903 96.127 180.824 94.8574 180.824 92.6357C180.824 90.4141 181.903 89.1445 183.77 89.1445C185.636 89.1445 186.715 90.4141 186.715 92.6357C186.715 94.8574 185.636 96.127 183.77 96.127ZM183.77 94.9209C184.76 94.9209 185.318 94.0957 185.318 92.6357C185.318 91.1758 184.76 90.3506 183.77 90.3506C182.779 90.3506 182.221 91.1758 182.221 92.6357C182.221 94.0957 182.779 94.9209 183.77 94.9209ZM190.866 96.127C189.165 96.127 188.188 94.9082 188.188 92.6992C188.188 90.4395 189.165 89.1445 190.879 89.1445C191.958 89.1445 192.542 89.5889 192.656 90.4902H192.802L192.91 89.2715H194.129L194.129 95.4033C194.129 97.8027 193.088 98.8945 190.701 98.9707L188.733 99.0342L188.67 97.8027L190.828 97.7393C192.187 97.7012 192.771 96.9902 192.771 95.6064L192.771 94.959H192.656C192.567 95.7334 191.882 96.127 190.866 96.127ZM192.783 93.8418L192.783 91.9629C192.783 90.8394 192.275 90.2871 191.26 90.2871C190.149 90.2871 189.521 91.1631 189.521 92.6992C189.521 94.21 190.117 94.9844 191.272 94.9844C192.288 94.9844 192.783 94.6035 192.783 93.8418ZM198.547 93.1055L198.547 94.8955H200.197L200.197 96H195.703L195.703 94.8955H197.201L197.201 90.376H195.957L195.957 89.2715H198.293L198.521 90.998H198.674C198.75 89.7539 199.359 89.1445 200.527 89.1445C201.911 89.1445 202.508 89.8936 202.508 91.6709H201.175C201.175 90.6934 200.896 90.2871 200.248 90.2871C199.105 90.2871 198.547 91.3027 198.547 93.1055ZM207.269 96.127C204.971 96.127 203.676 94.8828 203.676 92.623C203.676 90.4268 204.78 89.1445 206.71 89.1445C208.525 89.1445 209.566 90.2744 209.566 92.3691C209.566 92.6865 209.554 92.9658 209.528 93.2324H204.983C205.218 94.356 206.069 94.9463 207.421 94.9463C207.979 94.9463 208.513 94.8828 209.071 94.7686L209.236 95.9492C208.437 96.1016 207.776 96.127 207.269 96.127ZM204.933 92.2041H208.348C208.348 90.998 207.738 90.3252 206.723 90.3252C205.682 90.3252 205.041 91.0044 204.933 92.2041ZM213.718 96.127C212.702 96.127 212.017 96.0762 211.42 95.9365L211.572 94.7178C212.461 94.8574 213.108 94.9209 213.718 94.9209C215.076 94.9209 215.66 94.667 215.66 94.083C215.66 93.6768 215.444 93.5117 215 93.3975L213.451 93.0039C212.125 92.6675 211.521 92.2549 211.521 91.2393C211.521 89.7666 212.588 89.1445 215.102 89.1445C215.749 89.1445 216.282 89.1826 216.879 89.2715L216.739 90.4395C216.054 90.376 215.559 90.3506 215.063 90.3506C213.553 90.3506 212.918 90.5918 212.918 91.1758C212.918 91.5693 213.191 91.6963 213.769 91.8359L215.013 92.1406C216.422 92.4834 217.057 92.9785 217.057 94.0576C217.057 95.5049 216.054 96.127 213.718 96.127ZM221.335 96.127C220.319 96.127 219.634 96.0762 219.037 95.9365L219.189 94.7178C220.078 94.8574 220.726 94.9209 221.335 94.9209C222.693 94.9209 223.277 94.667 223.277 94.083C223.277 93.6768 223.062 93.5117 222.617 93.3975L221.068 93.0039C219.742 92.6675 219.139 92.2549 219.139 91.2393C219.139 89.7666 220.205 89.1445 222.719 89.1445C223.366 89.1445 223.899 89.1826 224.496 89.2715L224.356 90.4395C223.671 90.376 223.176 90.3506 222.681 90.3506C221.17 90.3506 220.535 90.5918 220.535 91.1758C220.535 91.5693 220.808 91.6963 221.386 91.8359L222.63 92.1406C224.039 92.4834 224.674 92.9785 224.674 94.0576C224.674 95.5049 223.671 96.127 221.335 96.127ZM228.489 96L225.95 86.9863H227.308L229.416 94.9209H229.53L231.637 86.9863H232.996L230.457 96H228.489ZM234.297 96L234.297 94.8955H236.861L236.861 90.3887H234.678L234.678 89.2715H238.207L238.207 94.8955H240.276L240.276 96H234.297ZM237.458 88.2051C236.938 88.2051 236.519 87.7861 236.519 87.2656C236.519 86.7451 236.938 86.3262 237.458 86.3262C237.979 86.3262 238.397 86.7451 238.397 87.2656C238.397 87.7861 237.979 88.2051 237.458 88.2051ZM244.187 96.127C243.171 96.127 242.485 96.0762 241.889 95.9365L242.041 94.7178C242.93 94.8574 243.577 94.9209 244.187 94.9209C245.545 94.9209 246.129 94.667 246.129 94.083C246.129 93.6768 245.913 93.5117 245.469 93.3975L243.92 93.0039C242.593 92.6675 241.99 92.2549 241.99 91.2393C241.99 89.7666 243.057 89.1445 245.57 89.1445C246.218 89.1445 246.751 89.1826 247.348 89.2715L247.208 90.4395C246.522 90.376 246.027 90.3506 245.532 90.3506C244.021 90.3506 243.387 90.5918 243.387 91.1758C243.387 91.5693 243.66 91.6963 244.237 91.8359L245.481 92.1406C246.891 92.4834 247.525 92.9785 247.525 94.0576C247.525 95.5049 246.522 96.127 244.187 96.127ZM249.531 96L249.531 94.8955H252.096L252.096 90.3887H249.912L249.912 89.2715H253.441L253.441 94.8955H255.511L255.511 96H249.531ZM252.692 88.2051C252.172 88.2051 251.753 87.7861 251.753 87.2656C251.753 86.7451 252.172 86.3262 252.692 86.3262C253.213 86.3262 253.632 86.7451 253.632 87.2656C253.632 87.7861 253.213 88.2051 252.692 88.2051ZM259.002 96.127C258.393 96.127 257.809 96.0762 257.199 96L257.199 86.4785H258.545L258.545 90.4902H258.672C258.735 89.5889 259.281 89.1445 260.322 89.1445C262.112 89.1445 263.141 90.249 263.141 92.1914C263.141 94.6924 261.636 96.127 259.002 96.127ZM258.545 92.2168L258.545 94.9653C258.786 94.9844 259.027 94.9844 259.269 94.9844C260.887 94.9844 261.808 93.9688 261.808 92.1914C261.808 90.9727 261.249 90.2871 260.259 90.2871C259.116 90.2871 258.545 90.9219 258.545 92.2168ZM268.498 96.127C266.937 96.127 266.289 95.3271 266.289 93.4609L266.289 87.583H264.309L264.309 86.4785H267.635L267.635 93.3975C267.635 94.4639 267.851 94.9209 269.006 94.9209C269.387 94.9209 269.793 94.8447 270.352 94.6797L270.504 95.8604C269.818 96.0508 269.222 96.127 268.498 96.127ZM275.823 96.127C273.525 96.127 272.23 94.8828 272.23 92.623C272.23 90.4268 273.335 89.1445 275.265 89.1445C277.08 89.1445 278.121 90.2744 278.121 92.3691C278.121 92.6865 278.108 92.9658 278.083 93.2324H273.538C273.773 94.356 274.624 94.9463 275.976 94.9463C276.534 94.9463 277.067 94.8828 277.626 94.7686L277.791 95.9492C276.991 96.1016 276.331 96.127 275.823 96.127ZM273.487 92.2041H276.902C276.902 90.998 276.293 90.3252 275.277 90.3252C274.236 90.3252 273.595 91.0044 273.487 92.2041ZM281.536 98.7676L282.044 94.3877H283.517L282.755 98.7676H281.536ZM282.793 91.0234C282.272 91.0234 281.854 90.6045 281.854 90.084C281.854 89.5635 282.272 89.1445 282.793 89.1445C283.313 89.1445 283.732 89.5635 283.732 90.084C283.732 90.6045 283.313 91.0234 282.793 91.0234ZM108.436 128.127C105.744 128.127 104.398 126.578 104.398 123.48C104.398 120.548 105.858 118.859 108.385 118.859C109.648 118.859 110.638 119.272 111.089 119.989L110.143 120.929C109.75 120.357 109.134 120.027 108.461 120.027C106.753 120.027 105.757 121.259 105.757 123.417C105.757 125.778 106.709 126.959 108.588 126.959C109.007 126.959 109.375 126.902 109.692 126.832L109.692 124.699H107.852L107.852 123.493H110.898L110.898 127.746C110.543 127.86 109.578 128.127 108.436 128.127ZM115.862 128.127C113.564 128.127 112.27 126.883 112.27 124.623C112.27 122.427 113.374 121.145 115.304 121.145C117.119 121.145 118.16 122.274 118.16 124.369C118.16 124.687 118.147 124.966 118.122 125.232H113.577C113.812 126.356 114.663 126.946 116.015 126.946C116.573 126.946 117.106 126.883 117.665 126.769L117.83 127.949C117.03 128.102 116.37 128.127 115.862 128.127ZM113.526 124.204H116.941C116.941 122.998 116.332 122.325 115.316 122.325C114.275 122.325 113.634 123.004 113.526 124.204ZM124.229 128L124.229 123.62C124.229 122.808 123.784 122.351 123.022 122.351C121.969 122.351 121.436 122.966 121.436 124.217L121.436 128H120.09L120.09 121.271H121.309L121.417 122.49H121.563C121.639 121.589 122.21 121.145 123.34 121.145C124.762 121.145 125.574 122.046 125.574 123.62L125.574 128H124.229ZM131.097 128.127C128.799 128.127 127.504 126.883 127.504 124.623C127.504 122.427 128.608 121.145 130.538 121.145C132.354 121.145 133.395 122.274 133.395 124.369C133.395 124.687 133.382 124.966 133.356 125.232H128.812C129.046 126.356 129.897 126.946 131.249 126.946C131.808 126.946 132.341 126.883 132.899 126.769L133.064 127.949C132.265 128.102 131.604 128.127 131.097 128.127ZM128.761 124.204H132.176C132.176 122.998 131.566 122.325 130.551 122.325C129.51 122.325 128.869 123.004 128.761 124.204ZM137.609 125.105L137.609 126.896H139.26L139.26 128H134.766L134.766 126.896H136.264L136.264 122.376H135.02L135.02 121.271H137.355L137.584 122.998H137.736C137.813 121.754 138.422 121.145 139.59 121.145C140.974 121.145 141.57 121.894 141.57 123.671H140.237C140.237 122.693 139.958 122.287 139.311 122.287C138.168 122.287 137.609 123.303 137.609 125.105ZM147.067 128.063L147.004 126.578H146.871C146.775 127.613 145.944 128.127 144.693 128.127C143.291 128.127 142.484 127.422 142.484 126.185C142.484 124.763 143.589 123.976 145.531 123.976C146.014 123.976 146.433 124.007 146.801 124.083L146.801 123.772C146.801 122.877 146.166 122.478 144.922 122.446L143.31 122.401L143.437 121.208L144.795 121.227C147.017 121.259 148.083 122.198 148.083 123.976L148.083 126.781L149.226 126.921L149.226 128L147.067 128.063ZM146.801 125.118C146.369 125.055 145.944 125.055 145.506 125.055C144.357 125.055 143.754 125.397 143.754 126.058C143.754 126.686 144.173 127.048 144.909 127.048C146.166 127.048 146.801 126.299 146.801 125.588L146.801 125.118ZM154.456 128.127C152.412 128.127 151.562 127.327 151.562 125.461L151.562 122.376H149.873L149.873 121.271H151.562L151.562 119.24H152.907L152.907 121.271H155.967L155.967 122.376H152.907L152.907 125.397C152.907 126.464 153.39 126.921 154.583 126.921C155.002 126.921 155.459 126.87 156.068 126.794L156.221 127.975C155.624 128.076 155.091 128.127 154.456 128.127ZM161.565 128.127C159.268 128.127 157.973 126.883 157.973 124.623C157.973 122.427 159.077 121.145 161.007 121.145C162.822 121.145 163.863 122.274 163.863 124.369C163.863 124.687 163.851 124.966 163.825 125.232H159.28C159.515 126.356 160.366 126.946 161.718 126.946C162.276 126.946 162.81 126.883 163.368 126.769L163.533 127.949C162.733 128.102 162.073 128.127 161.565 128.127ZM159.229 124.204H162.645C162.645 122.998 162.035 122.325 161.02 122.325C159.979 122.325 159.337 123.004 159.229 124.204ZM170.757 129.27C168.002 129.27 166.415 127.156 166.415 123.455C166.415 119.805 168.002 117.717 170.757 117.717H171.062L170.935 118.859H170.884C168.878 118.859 167.748 120.542 167.748 123.455C167.748 126.419 168.878 128.127 170.884 128.127H170.935L171.062 129.27H170.757ZM173.626 129.27L173.753 128.127H173.804C175.81 128.127 176.939 126.419 176.939 123.455C176.939 120.542 175.81 118.859 173.804 118.859H173.753L173.626 117.717H173.931C176.686 117.717 178.272 119.805 178.272 123.455C178.272 127.156 176.686 129.27 173.931 129.27H173.626ZM55.7119 145.358C54.3345 145.358 53.541 144.495 53.541 143.01C53.541 142.299 53.8076 141.62 53.8076 140.877C53.8076 140.166 52.7031 139.963 52.0938 139.963L52.0938 138.96C52.6777 138.96 53.8076 138.63 53.8076 138.046C53.8076 137.271 53.541 136.624 53.541 135.913C53.541 134.485 54.3345 133.679 55.7119 133.679C56.207 133.679 56.5117 133.729 56.791 133.806L56.6387 134.885C56.3403 134.847 56.061 134.821 55.8262 134.821C55.2231 134.821 54.8994 135.221 54.8994 135.913C54.8994 136.649 55.1914 137.284 55.1914 138.021C55.1914 138.858 54.5757 139.334 53.5283 139.354L53.5283 139.569C54.5757 139.588 55.1914 140.096 55.1914 140.902C55.1914 141.67 54.8994 142.305 54.8994 143.01C54.8994 143.778 55.2231 144.216 55.8262 144.216C56.061 144.216 56.3403 144.19 56.6387 144.152L56.791 145.231C56.5117 145.308 56.207 145.358 55.7119 145.358ZM115.215 160.127C114.694 160.127 114.275 159.708 114.275 159.188C114.275 158.667 114.694 158.248 115.215 158.248C115.735 158.248 116.154 158.667 116.154 159.188C116.154 159.708 115.735 160.127 115.215 160.127ZM122.807 160.127C120.877 160.127 119.912 159.124 119.912 157.105L119.912 150.986H121.182L121.182 157.105C121.182 158.312 121.689 158.921 122.832 158.921C123.924 158.921 124.482 158.312 124.482 157.105L124.482 150.986H125.752L125.752 157.105C125.752 159.124 124.736 160.127 122.807 160.127ZM131.846 160L131.846 155.62C131.846 154.808 131.401 154.351 130.64 154.351C129.586 154.351 129.053 154.966 129.053 156.217L129.053 160H127.707L127.707 153.271H128.926L129.034 154.49H129.18C129.256 153.589 129.827 153.145 130.957 153.145C132.379 153.145 133.191 154.046 133.191 155.62L133.191 160H131.846ZM139.006 160.127C137.444 160.127 136.797 159.327 136.797 157.461L136.797 151.583H134.816L134.816 150.479H138.143L138.143 157.397C138.143 158.464 138.358 158.921 139.514 158.921C139.895 158.921 140.301 158.845 140.859 158.68L141.012 159.86C140.326 160.051 139.729 160.127 139.006 160.127ZM145.684 160.127C143.817 160.127 142.738 158.857 142.738 156.636C142.738 154.414 143.817 153.145 145.684 153.145C147.55 153.145 148.629 154.414 148.629 156.636C148.629 158.857 147.55 160.127 145.684 160.127ZM145.684 158.921C146.674 158.921 147.232 158.096 147.232 156.636C147.232 155.176 146.674 154.351 145.684 154.351C144.693 154.351 144.135 155.176 144.135 156.636C144.135 158.096 144.693 158.921 145.684 158.921ZM154.685 160.063L154.621 158.578H154.488C154.393 159.613 153.561 160.127 152.311 160.127C150.908 160.127 150.102 159.422 150.102 158.185C150.102 156.763 151.206 155.976 153.148 155.976C153.631 155.976 154.05 156.007 154.418 156.083L154.418 155.772C154.418 154.877 153.783 154.478 152.539 154.446L150.927 154.401L151.054 153.208L152.412 153.227C154.634 153.259 155.7 154.198 155.7 155.976L155.7 158.781L156.843 158.921L156.843 160L154.685 160.063ZM154.418 157.118C153.986 157.055 153.561 157.055 153.123 157.055C151.974 157.055 151.371 157.397 151.371 158.058C151.371 158.686 151.79 159.048 152.526 159.048C153.783 159.048 154.418 158.299 154.418 157.588L154.418 157.118ZM160.397 160.127C158.696 160.127 157.719 158.908 157.719 156.699C157.719 154.439 158.696 153.145 160.41 153.145C161.489 153.145 162.073 153.589 162.188 154.49H162.314L162.314 150.479H163.66L163.66 160L162.454 160.063L162.34 158.959H162.188C162.099 159.733 161.413 160.127 160.397 160.127ZM162.314 157.105L162.314 156.217C162.314 154.922 161.743 154.287 160.601 154.287C159.61 154.287 159.052 155.163 159.052 156.699C159.052 158.21 159.585 158.984 160.613 158.984C161.756 158.984 162.314 158.604 162.314 157.842L162.314 157.105ZM169.183 160.127C166.885 160.127 165.59 158.883 165.59 156.623C165.59 154.427 166.694 153.145 168.624 153.145C170.439 153.145 171.48 154.274 171.48 156.369C171.48 156.687 171.468 156.966 171.442 157.232H166.897C167.132 158.356 167.983 158.946 169.335 158.946C169.894 158.946 170.427 158.883 170.985 158.769L171.15 159.949C170.351 160.102 169.69 160.127 169.183 160.127ZM166.847 156.204H170.262C170.262 154.998 169.652 154.325 168.637 154.325C167.596 154.325 166.955 155.004 166.847 156.204ZM175.632 160.127C173.931 160.127 172.953 158.908 172.953 156.699C172.953 154.439 173.931 153.145 175.645 153.145C176.724 153.145 177.308 153.589 177.422 154.49H177.549L177.549 150.479H178.895L178.895 160L177.688 160.063L177.574 158.959H177.422C177.333 159.733 176.647 160.127 175.632 160.127ZM177.549 157.105L177.549 156.217C177.549 154.922 176.978 154.287 175.835 154.287C174.845 154.287 174.286 155.163 174.286 156.699C174.286 158.21 174.819 158.984 175.848 158.984C176.99 158.984 177.549 158.604 177.549 157.842L177.549 157.105ZM190.777 158.794L190.777 156.083H188.213L188.213 154.903H190.777L190.777 152.205H191.996L191.996 154.903H194.561L194.561 156.083H191.996L191.996 158.794H190.777ZM195.83 157.677L195.83 156.496H202.178L202.178 157.677H195.83ZM195.83 154.503L195.83 153.322H202.178L202.178 154.503H195.83ZM216.46 161.27C213.705 161.27 212.118 159.156 212.118 155.455C212.118 151.805 213.705 149.717 216.46 149.717H216.765L216.638 150.859H216.587C214.581 150.859 213.451 152.542 213.451 155.455C213.451 158.419 214.581 160.127 216.587 160.127H216.638L216.765 161.27H216.46ZM221.335 160.127C220.319 160.127 219.634 160.076 219.037 159.937L219.189 158.718C220.078 158.857 220.726 158.921 221.335 158.921C222.693 158.921 223.277 158.667 223.277 158.083C223.277 157.677 223.062 157.512 222.617 157.397L221.068 157.004C219.742 156.667 219.139 156.255 219.139 155.239C219.139 153.767 220.205 153.145 222.719 153.145C223.366 153.145 223.899 153.183 224.496 153.271L224.356 154.439C223.671 154.376 223.176 154.351 222.681 154.351C221.17 154.351 220.535 154.592 220.535 155.176C220.535 155.569 220.808 155.696 221.386 155.836L222.63 156.141C224.039 156.483 224.674 156.979 224.674 158.058C224.674 159.505 223.671 160.127 221.335 160.127ZM228.216 162.768L228.724 158.388H230.196L229.435 162.768H228.216ZM245.354 160.127C243.057 160.127 241.762 158.883 241.762 156.623C241.762 154.427 242.866 153.145 244.796 153.145C246.611 153.145 247.652 154.274 247.652 156.369C247.652 156.687 247.64 156.966 247.614 157.232H243.069C243.304 158.356 244.155 158.946 245.507 158.946C246.065 158.946 246.599 158.883 247.157 158.769L247.322 159.949C246.522 160.102 245.862 160.127 245.354 160.127ZM243.019 156.204H246.434C246.434 154.998 245.824 154.325 244.809 154.325C243.768 154.325 243.126 155.004 243.019 156.204ZM249.798 161.27L249.925 160.127H249.976C251.981 160.127 253.111 158.419 253.111 155.455C253.111 152.542 251.981 150.859 249.976 150.859H249.925L249.798 149.717H250.103C252.857 149.717 254.444 151.805 254.444 155.455C254.444 159.156 252.857 161.27 250.103 161.27H249.798ZM271.405 159.289L271.405 157.893L272.675 157.702L272.675 157.55H265.527L265.527 156.369H274.135L275.595 155.557L275.595 155.442L274.192 154.63H265.527L265.527 153.449H272.7L272.7 153.322L271.405 153.119L271.405 151.723L277.461 155.112L277.461 155.887L271.405 159.289ZM291.413 160.127C288.62 160.127 287.211 158.578 287.211 155.48C287.211 152.548 288.684 150.859 291.261 150.859C292.505 150.859 293.47 151.272 293.895 151.996L292.956 152.929C292.575 152.357 291.959 152.027 291.273 152.027C289.636 152.027 288.569 153.252 288.569 155.417C288.569 157.778 289.598 158.959 291.629 158.959C292.251 158.959 292.848 158.832 293.444 158.578L293.736 159.695C292.987 159.987 292.213 160.127 291.413 160.127ZM298.967 160.127C297.405 160.127 296.758 159.327 296.758 157.461L296.758 151.583H294.777L294.777 150.479H298.104L298.104 157.397C298.104 158.464 298.319 158.921 299.475 158.921C299.855 158.921 300.262 158.845 300.82 158.68L300.973 159.86C300.287 160.051 299.69 160.127 298.967 160.127ZM306.292 160.127C303.994 160.127 302.699 158.883 302.699 156.623C302.699 154.427 303.804 153.145 305.733 153.145C307.549 153.145 308.59 154.274 308.59 156.369C308.59 156.687 308.577 156.966 308.552 157.232H304.007C304.242 158.356 305.092 158.946 306.444 158.946C307.003 158.946 307.536 158.883 308.095 158.769L308.26 159.949C307.46 160.102 306.8 160.127 306.292 160.127ZM303.956 156.204H307.371C307.371 154.998 306.762 154.325 305.746 154.325C304.705 154.325 304.064 155.004 303.956 156.204ZM314.646 160.063L314.582 158.578H314.449C314.354 159.613 313.522 160.127 312.271 160.127C310.869 160.127 310.063 159.422 310.063 158.185C310.063 156.763 311.167 155.976 313.109 155.976C313.592 155.976 314.011 156.007 314.379 156.083L314.379 155.772C314.379 154.877 313.744 154.478 312.5 154.446L310.888 154.401L311.015 153.208L312.373 153.227C314.595 153.259 315.661 154.198 315.661 155.976L315.661 158.781L316.804 158.921L316.804 160L314.646 160.063ZM314.379 157.118C313.947 157.055 313.522 157.055 313.084 157.055C311.935 157.055 311.332 157.397 311.332 158.058C311.332 158.686 311.751 159.048 312.487 159.048C313.744 159.048 314.379 158.299 314.379 157.588L314.379 157.118ZM322.275 160L322.275 155.62C322.275 154.808 321.831 154.351 321.069 154.351C320.016 154.351 319.482 154.966 319.482 156.217L319.482 160H318.137L318.137 153.271H319.355L319.463 154.49H319.609C319.686 153.589 320.257 153.145 321.387 153.145C322.809 153.145 323.621 154.046 323.621 155.62L323.621 160H322.275ZM328.471 160.127C326.541 160.127 325.576 159.124 325.576 157.105L325.576 150.986H326.846L326.846 157.105C326.846 158.312 327.354 158.921 328.496 158.921C329.588 158.921 330.146 158.312 330.146 157.105L330.146 150.986H331.416L331.416 157.105C331.416 159.124 330.4 160.127 328.471 160.127ZM336.634 160.127C335.618 160.127 334.933 159.733 334.844 158.959H334.717L334.717 162.92H333.371L333.371 153.271H334.59L334.698 154.49H334.844C334.958 153.589 335.542 153.145 336.621 153.145C338.335 153.145 339.313 154.439 339.313 156.699C339.313 158.908 338.335 160.127 336.634 160.127ZM334.717 157.842C334.717 158.604 335.212 158.984 336.228 158.984C337.383 158.984 337.979 158.21 337.979 156.699C337.979 155.163 337.351 154.287 336.24 154.287C335.225 154.287 334.717 154.839 334.717 155.963L334.717 157.842ZM345.952 161.27C343.197 161.27 341.61 159.156 341.61 155.455C341.61 151.805 343.197 149.717 345.952 149.717H346.257L346.13 150.859H346.079C344.073 150.859 342.943 152.542 342.943 155.455C342.943 158.419 344.073 160.127 346.079 160.127H346.13L346.257 161.27H345.952ZM348.821 161.27L348.948 160.127H348.999C351.005 160.127 352.135 158.419 352.135 155.455C352.135 152.542 351.005 150.859 348.999 150.859H348.948L348.821 149.717H349.126C351.881 149.717 353.468 151.805 353.468 155.455C353.468 159.156 351.881 161.27 349.126 161.27H348.821ZM357.708 162.768L358.216 158.388H359.688L358.927 162.768H357.708ZM358.965 155.023C358.444 155.023 358.025 154.604 358.025 154.084C358.025 153.563 358.444 153.145 358.965 153.145C359.485 153.145 359.904 153.563 359.904 154.084C359.904 154.604 359.485 155.023 358.965 155.023ZM115.215 176.127C114.694 176.127 114.275 175.708 114.275 175.188C114.275 174.667 114.694 174.248 115.215 174.248C115.735 174.248 116.154 174.667 116.154 175.188C116.154 175.708 115.735 176.127 115.215 176.127ZM120.09 176L120.09 174.794H122.191L122.191 168.192H120.09L120.09 166.986H125.574L125.574 168.192H123.46L123.46 174.794H125.574L125.574 176H120.09ZM131.846 176L131.846 171.62C131.846 170.808 131.401 170.351 130.64 170.351C129.586 170.351 129.053 170.966 129.053 172.217L129.053 176H127.707L127.707 169.271H128.926L129.034 170.49H129.18C129.256 169.589 129.827 169.145 130.957 169.145C132.379 169.145 133.191 170.046 133.191 171.62L133.191 176H131.846ZM135.273 176L135.273 174.896H137.838L137.838 170.389H135.654L135.654 169.271H139.184L139.184 174.896H141.253L141.253 176H135.273ZM138.435 168.205C137.914 168.205 137.495 167.786 137.495 167.266C137.495 166.745 137.914 166.326 138.435 166.326C138.955 166.326 139.374 166.745 139.374 167.266C139.374 167.786 138.955 168.205 138.435 168.205ZM146.839 176.127C144.795 176.127 143.944 175.327 143.944 173.461L143.944 170.376H142.256L142.256 169.271H143.944L143.944 167.24H145.29L145.29 169.271H148.35L148.35 170.376H145.29L145.29 173.397C145.29 174.464 145.772 174.921 146.966 174.921C147.385 174.921 147.842 174.87 148.451 174.794L148.604 175.975C148.007 176.076 147.474 176.127 146.839 176.127ZM150.508 176L150.508 174.896H153.072L153.072 170.389H150.889L150.889 169.271H154.418L154.418 174.896H156.487L156.487 176H150.508ZM153.669 168.205C153.148 168.205 152.729 167.786 152.729 167.266C152.729 166.745 153.148 166.326 153.669 166.326C154.189 166.326 154.608 166.745 154.608 167.266C154.608 167.786 154.189 168.205 153.669 168.205ZM162.302 176.063L162.238 174.578H162.105C162.01 175.613 161.178 176.127 159.928 176.127C158.525 176.127 157.719 175.422 157.719 174.185C157.719 172.763 158.823 171.976 160.766 171.976C161.248 171.976 161.667 172.007 162.035 172.083L162.035 171.772C162.035 170.877 161.4 170.478 160.156 170.446L158.544 170.401L158.671 169.208L160.029 169.227C162.251 169.259 163.317 170.198 163.317 171.976L163.317 174.781L164.46 174.921L164.46 176L162.302 176.063ZM162.035 173.118C161.604 173.055 161.178 173.055 160.74 173.055C159.591 173.055 158.988 173.397 158.988 174.058C158.988 174.686 159.407 175.048 160.144 175.048C161.4 175.048 162.035 174.299 162.035 173.588L162.035 173.118ZM169.475 176.127C167.913 176.127 167.266 175.327 167.266 173.461L167.266 167.583H165.285L165.285 166.479H168.611L168.611 173.397C168.611 174.464 168.827 174.921 169.982 174.921C170.363 174.921 170.77 174.845 171.328 174.68L171.48 175.86C170.795 176.051 170.198 176.127 169.475 176.127ZM173.359 176L173.359 174.896H175.924L175.924 170.389H173.74L173.74 169.271H177.27L177.27 174.896H179.339L179.339 176H173.359ZM176.521 168.205C176 168.205 175.581 167.786 175.581 167.266C175.581 166.745 176 166.326 176.521 166.326C177.041 166.326 177.46 166.745 177.46 167.266C177.46 167.786 177.041 168.205 176.521 168.205ZM180.977 176L180.977 174.883L184.842 170.389H180.977L180.977 169.271H186.41L186.41 170.389L182.563 174.883H186.537L186.537 176H180.977ZM192.034 176.127C189.736 176.127 188.441 174.883 188.441 172.623C188.441 170.427 189.546 169.145 191.476 169.145C193.291 169.145 194.332 170.274 194.332 172.369C194.332 172.687 194.319 172.966 194.294 173.232H189.749C189.984 174.356 190.834 174.946 192.187 174.946C192.745 174.946 193.278 174.883 193.837 174.769L194.002 175.949C193.202 176.102 192.542 176.127 192.034 176.127ZM189.698 172.204H193.113C193.113 170.998 192.504 170.325 191.488 170.325C190.447 170.325 189.806 171.004 189.698 172.204ZM200.007 176.127C197.214 176.127 195.805 174.578 195.805 171.48C195.805 168.548 197.277 166.859 199.854 166.859C201.099 166.859 202.063 167.272 202.489 167.996L201.549 168.929C201.168 168.357 200.553 168.027 199.867 168.027C198.229 168.027 197.163 169.252 197.163 171.417C197.163 173.778 198.191 174.959 200.223 174.959C200.845 174.959 201.441 174.832 202.038 174.578L202.33 175.695C201.581 175.987 200.807 176.127 200.007 176.127ZM206.621 176.127C204.755 176.127 203.676 174.857 203.676 172.636C203.676 170.414 204.755 169.145 206.621 169.145C208.487 169.145 209.566 170.414 209.566 172.636C209.566 174.857 208.487 176.127 206.621 176.127ZM206.621 174.921C207.611 174.921 208.17 174.096 208.17 172.636C208.17 171.176 207.611 170.351 206.621 170.351C205.631 170.351 205.072 171.176 205.072 172.636C205.072 174.096 205.631 174.921 206.621 174.921ZM215.99 176L215.99 170.858C215.99 170.389 215.825 170.16 215.47 170.16C215.025 170.16 214.81 170.465 214.81 171.074L214.81 176H213.667L213.667 170.731C213.667 170.351 213.489 170.16 213.134 170.16C212.702 170.16 212.486 170.465 212.486 171.074L212.486 176H211.141L211.141 169.271H212.334L212.423 170.109H212.524C212.575 169.462 212.943 169.145 213.68 169.145C214.245 169.145 214.638 169.462 214.765 170.109H214.873C214.911 169.589 215.292 169.145 216.003 169.145C216.93 169.145 217.336 169.614 217.336 170.731L217.336 176H215.99ZM222.376 176.127C221.36 176.127 220.675 175.733 220.586 174.959H220.459L220.459 178.92H219.113L219.113 169.271H220.332L220.44 170.49H220.586C220.7 169.589 221.284 169.145 222.363 169.145C224.077 169.145 225.055 170.439 225.055 172.699C225.055 174.908 224.077 176.127 222.376 176.127ZM220.459 173.842C220.459 174.604 220.954 174.984 221.97 174.984C223.125 174.984 223.722 174.21 223.722 172.699C223.722 171.163 223.093 170.287 221.982 170.287C220.967 170.287 220.459 170.839 220.459 171.963L220.459 173.842ZM229.473 176.127C227.606 176.127 226.527 174.857 226.527 172.636C226.527 170.414 227.606 169.145 229.473 169.145C231.339 169.145 232.418 170.414 232.418 172.636C232.418 174.857 231.339 176.127 229.473 176.127ZM229.473 174.921C230.463 174.921 231.021 174.096 231.021 172.636C231.021 171.176 230.463 170.351 229.473 170.351C228.482 170.351 227.924 171.176 227.924 172.636C227.924 174.096 228.482 174.921 229.473 174.921ZM238.486 176L238.486 171.62C238.486 170.808 238.042 170.351 237.28 170.351C236.227 170.351 235.693 170.966 235.693 172.217L235.693 176H234.348L234.348 169.271H235.566L235.674 170.49H235.82C235.896 169.589 236.468 169.145 237.598 169.145C239.02 169.145 239.832 170.046 239.832 171.62L239.832 176H238.486ZM245.354 176.127C243.057 176.127 241.762 174.883 241.762 172.623C241.762 170.427 242.866 169.145 244.796 169.145C246.611 169.145 247.652 170.274 247.652 172.369C247.652 172.687 247.64 172.966 247.614 173.232H243.069C243.304 174.356 244.155 174.946 245.507 174.946C246.065 174.946 246.599 174.883 247.157 174.769L247.322 175.949C246.522 176.102 245.862 176.127 245.354 176.127ZM243.019 172.204H246.434C246.434 170.998 245.824 170.325 244.809 170.325C243.768 170.325 243.126 171.004 243.019 172.204ZM253.721 176L253.721 171.62C253.721 170.808 253.276 170.351 252.515 170.351C251.461 170.351 250.928 170.966 250.928 172.217L250.928 176H249.582L249.582 169.271H250.801L250.909 170.49H251.055C251.131 169.589 251.702 169.145 252.832 169.145C254.254 169.145 255.066 170.046 255.066 171.62L255.066 176H253.721ZM261.097 176.127C259.053 176.127 258.202 175.327 258.202 173.461L258.202 170.376H256.514L256.514 169.271H258.202L258.202 167.24H259.548L259.548 169.271H262.607L262.607 170.376H259.548L259.548 173.397C259.548 174.464 260.03 174.921 261.224 174.921C261.643 174.921 262.1 174.87 262.709 174.794L262.861 175.975C262.265 176.076 261.731 176.127 261.097 176.127ZM269.78 177.27C267.025 177.27 265.438 175.156 265.438 171.455C265.438 167.805 267.025 165.717 269.78 165.717H270.085L269.958 166.859H269.907C267.901 166.859 266.771 168.542 266.771 171.455C266.771 174.419 267.901 176.127 269.907 176.127H269.958L270.085 177.27H269.78ZM272.649 177.27L272.776 176.127H272.827C274.833 176.127 275.963 174.419 275.963 171.455C275.963 168.542 274.833 166.859 272.827 166.859H272.776L272.649 165.717H272.954C275.709 165.717 277.296 167.805 277.296 171.455C277.296 175.156 275.709 177.27 272.954 177.27H272.649ZM281.536 178.768L282.044 174.388H283.517L282.755 178.768H281.536ZM282.793 171.023C282.272 171.023 281.854 170.604 281.854 170.084C281.854 169.563 282.272 169.145 282.793 169.145C283.313 169.145 283.732 169.563 283.732 170.084C283.732 170.604 283.313 171.023 282.793 171.023ZM52.8555 193.358C52.3604 193.358 52.0557 193.308 51.7764 193.231L51.9287 192.152C52.2271 192.19 52.5063 192.216 52.7412 192.216C53.3442 192.216 53.668 191.778 53.668 191.01C53.668 190.305 53.376 189.67 53.376 188.902C53.376 188.096 53.9917 187.588 55.0391 187.569L55.0391 187.354C53.9917 187.334 53.376 186.858 53.376 186.021C53.376 185.284 53.668 184.649 53.668 183.913C53.668 183.221 53.3442 182.821 52.7412 182.821C52.5063 182.821 52.2271 182.847 51.9287 182.885L51.7764 181.806C52.0557 181.729 52.3604 181.679 52.8555 181.679C54.2329 181.679 55.0264 182.485 55.0264 183.913C55.0264 184.624 54.7598 185.271 54.7598 186.046C54.7598 186.63 55.8896 186.96 56.4736 186.96L56.4736 187.963C55.8643 187.963 54.7598 188.166 54.7598 188.877C54.7598 189.62 55.0264 190.299 55.0264 191.01C55.0264 192.495 54.2329 193.358 52.8555 193.358Z" fill="black"/>
</g>
<defs>
<filter id="filter0_b_1783_23009" x="-54.3779" y="-54.3779" width="573.25" height="375.756" filterUnits="userSpaceOnUse" color-interpolation-filters="sRGB">
<feFlood flood-opacity="0" result="BackgroundImageFix"/>
<feGaussianBlur in="BackgroundImageFix" stdDeviation="27.189"/>
<feComposite in2="SourceAlpha" operator="in" result="effect1_backgroundBlur_1783_23009"/>
<feBlend mode="normal" in="SourceGraphic" in2="effect1_backgroundBlur_1783_23009" result="shape"/>
</filter>
<radialGradient id="paint0_radial_1783_23009" cx="0" cy="0" r="1" gradientUnits="userSpaceOnUse" gradientTransform="translate(464.494 2.60811e-05) rotate(150.109) scale(535.764 423.808)">
<stop stop-color="white"/>
<stop offset="1" stop-color="white" stop-opacity="0.05"/>
</radialGradient>
<radialGradient id="paint1_radial_1783_23009" cx="0" cy="0" r="1" gradientUnits="userSpaceOnUse" gradientTransform="translate(-0.000210374 267) rotate(-29.8911) scale(535.764 174.695)">
<stop offset="0.104014" stop-color="white"/>
<stop offset="1" stop-color="white" stop-opacity="0.143801"/>
</radialGradient>
<radialGradient id="paint2_radial_1783_23009" cx="0" cy="0" r="1" gradientUnits="userSpaceOnUse" gradientTransform="translate(464.494 0.925206) rotate(150.195) scale(535.304 173.978)">
<stop offset="0.104014" stop-color="white"/>
<stop offset="1" stop-color="white" stop-opacity="0.143801"/>
</radialGradient>
</defs>
</svg>
