<svg width="272" height="165" viewBox="0 0 272 165" fill="none" xmlns="http://www.w3.org/2000/svg">
<g filter="url(#filter0_b_1783_23318)">
<rect width="48" height="48" rx="8" transform="matrix(1 0 3.70127e-06 1 181 117)" fill="white" fill-opacity="0.2"/>
<rect width="48" height="48" rx="8" transform="matrix(1 0 3.70127e-06 1 181 117)" fill="url(#paint0_radial_1783_23318)" fill-opacity="0.8"/>
<rect x="1" y="1" width="46" height="46" rx="7" transform="matrix(1 0 3.70127e-06 1 181 117)" stroke="url(#paint1_radial_1783_23318)" stroke-width="2"/>
<rect x="1" y="1" width="46" height="46" rx="7" transform="matrix(1 0 3.70127e-06 1 181 117)" stroke="url(#paint2_radial_1783_23318)" stroke-width="2"/>
<g clip-path="url(#clip0_1783_23318)">
<path d="M217.709 147.961C217.845 147.758 217.936 147.528 217.976 147.286C218.017 147.045 218.005 146.797 217.943 146.561C217.853 146.219 217.667 145.935 217.415 145.73C217.537 145.531 217.617 145.309 217.65 145.077C217.722 144.574 217.555 144.072 217.18 143.662C216.887 143.343 216.474 143.168 216.016 143.168C215.962 143.168 215.908 143.171 215.853 143.176C216.2 142.067 216.376 140.911 216.375 139.749C216.375 133.427 211.249 128.301 204.926 128.301C198.604 128.301 193.477 133.426 193.477 139.749C193.476 140.908 193.651 142.061 193.996 143.168H193.984C193.526 143.168 193.113 143.343 192.82 143.662C192.445 144.071 192.278 144.574 192.35 145.077C192.383 145.308 192.463 145.531 192.585 145.73C192.332 145.934 192.147 146.219 192.057 146.56C191.995 146.797 191.983 147.045 192.024 147.286C192.064 147.528 192.155 147.758 192.291 147.961C192.267 147.999 192.245 148.038 192.224 148.078C191.997 148.508 191.983 148.993 192.183 149.445C192.485 150.13 193.238 150.67 194.699 151.249C195.608 151.61 196.44 151.84 196.447 151.842C197.649 152.154 198.736 152.312 199.677 152.312C201.222 152.312 202.375 151.889 203.111 151.054C204.357 151.252 205.627 151.245 206.87 151.033C207.606 151.882 208.765 152.312 210.323 152.312C211.264 152.312 212.351 152.154 213.553 151.842C213.56 151.84 214.392 151.61 215.301 151.249C216.762 150.67 217.515 150.13 217.818 149.445C218.017 148.993 218.003 148.508 217.777 148.078C217.756 148.038 217.733 147.999 217.709 147.961ZM202.585 149.747C202.521 149.858 202.453 149.966 202.381 150.071C202.191 150.35 201.94 150.563 201.65 150.721C201.094 151.024 200.391 151.13 199.677 151.13C198.549 151.13 197.392 150.866 196.744 150.698C196.712 150.69 192.77 149.576 193.269 148.628C193.353 148.469 193.491 148.405 193.665 148.405C194.368 148.405 195.648 149.452 196.197 149.452C196.32 149.452 196.407 149.399 196.442 149.272C196.677 148.431 192.88 148.078 193.2 146.861C193.257 146.646 193.41 146.558 193.625 146.558C194.554 146.558 196.639 148.192 197.075 148.192C197.108 148.192 197.132 148.182 197.145 148.161C197.147 148.158 197.149 148.155 197.151 148.152C197.356 147.814 197.238 147.568 195.836 146.709L195.701 146.627C194.158 145.693 193.075 145.131 193.691 144.461C193.762 144.383 193.862 144.349 193.985 144.349C194.129 144.349 194.304 144.398 194.497 144.479C195.312 144.823 196.442 145.76 196.914 146.169C196.988 146.233 197.062 146.298 197.135 146.364C197.135 146.364 197.732 146.985 198.093 146.985C198.177 146.985 198.247 146.952 198.295 146.871C198.551 146.439 195.916 144.442 195.767 143.618C195.666 143.06 195.838 142.777 196.155 142.777C196.306 142.777 196.49 142.841 196.693 142.97C197.323 143.37 198.539 145.46 198.984 146.273C199.133 146.545 199.388 146.661 199.618 146.661C200.073 146.661 200.43 146.208 199.66 145.632C198.502 144.766 198.908 143.351 199.461 143.264C199.484 143.26 199.508 143.258 199.532 143.258C200.034 143.258 200.256 144.124 200.256 144.124C200.256 144.124 200.905 145.754 202.021 146.869C203.033 147.881 203.174 148.711 202.585 149.747ZM206.192 149.938L206.134 149.945L206.035 149.956C205.984 149.962 205.932 149.967 205.879 149.972L205.829 149.976L205.782 149.98L205.716 149.985L205.643 149.991L205.571 149.995L205.555 149.996C205.536 149.998 205.517 149.999 205.498 150L205.473 150.001C205.451 150.002 205.428 150.003 205.406 150.004L205.327 150.008L205.256 150.01L205.208 150.012H205.184C205.169 150.012 205.154 150.012 205.139 150.012H205.115C205.101 150.012 205.086 150.012 205.071 150.013L205.01 150.014H204.926C204.859 150.014 204.793 150.013 204.727 150.012L204.673 150.011C204.658 150.011 204.642 150.01 204.627 150.009L204.57 150.008L204.5 150.005L204.436 150.002L204.42 150.002L204.359 149.999C204.342 149.998 204.326 149.997 204.309 149.996L204.27 149.993C204.22 149.99 204.171 149.987 204.122 149.983L204.071 149.979C204.049 149.977 204.027 149.975 204.006 149.973C203.98 149.971 203.955 149.969 203.93 149.966C203.887 149.962 203.845 149.958 203.803 149.953H203.801C204.42 148.572 204.107 147.282 202.855 146.032C202.035 145.213 201.489 144.003 201.376 143.737C201.147 142.951 200.54 142.077 199.533 142.077C199.447 142.077 199.362 142.083 199.278 142.097C198.837 142.166 198.451 142.42 198.176 142.802C197.878 142.432 197.589 142.138 197.328 141.972C196.933 141.722 196.54 141.595 196.157 141.595C195.678 141.595 195.251 141.792 194.953 142.148L194.945 142.157C194.94 142.134 194.934 142.11 194.929 142.087L194.928 142.084C194.871 141.841 194.824 141.597 194.785 141.351C194.785 141.349 194.785 141.347 194.784 141.346C194.781 141.327 194.779 141.308 194.776 141.29C194.767 141.235 194.76 141.18 194.752 141.125C194.749 141.1 194.746 141.075 194.743 141.049L194.733 140.974C194.73 140.949 194.728 140.926 194.725 140.903L194.724 140.897C194.714 140.799 194.704 140.702 194.696 140.604L194.693 140.566L194.688 140.502C194.687 140.485 194.685 140.467 194.685 140.45C194.685 140.445 194.684 140.441 194.684 140.437C194.68 140.388 194.677 140.339 194.675 140.29C194.674 140.264 194.672 140.239 194.671 140.213L194.668 140.146L194.668 140.126L194.666 140.064L194.664 140.011C194.664 139.99 194.663 139.969 194.663 139.948C194.662 139.927 194.662 139.904 194.662 139.882C194.661 139.86 194.662 139.838 194.661 139.816C194.661 139.793 194.661 139.771 194.661 139.749C194.661 134.079 199.258 129.483 204.928 129.483C210.598 129.483 215.195 134.079 215.195 139.749L215.195 139.882C215.195 139.904 215.194 139.926 215.194 139.948C215.194 139.966 215.193 139.984 215.192 140.003C215.192 140.019 215.191 140.036 215.191 140.051C215.191 140.072 215.19 140.093 215.189 140.114V140.115L215.186 140.187C215.185 140.208 215.184 140.229 215.183 140.25L215.183 140.265L215.179 140.332C215.171 140.476 215.16 140.62 215.146 140.764V140.765C215.144 140.789 215.142 140.813 215.139 140.836L215.133 140.892L215.121 141.001L215.114 141.056L215.106 141.121C215.103 141.144 215.099 141.168 215.096 141.191C215.092 141.218 215.088 141.244 215.084 141.27L215.075 141.333L215.064 141.403C215.06 141.426 215.056 141.45 215.052 141.473C215.047 141.497 215.044 141.52 215.04 141.543C215.032 141.59 215.023 141.636 215.014 141.683C215.001 141.752 214.987 141.822 214.972 141.891L214.957 141.96C214.952 141.983 214.947 142.006 214.942 142.029C214.653 141.748 214.27 141.595 213.848 141.595C213.465 141.595 213.072 141.721 212.678 141.971C212.416 142.137 212.127 142.432 211.829 142.802C211.554 142.419 211.168 142.165 210.727 142.096C210.643 142.082 210.558 142.076 210.472 142.076C209.465 142.076 208.859 142.95 208.629 143.736C208.515 144.002 207.969 145.212 207.148 146.033C205.898 147.279 205.583 148.563 206.192 149.938ZM216.791 147.173L216.787 147.185C216.777 147.213 216.765 147.239 216.751 147.265C216.741 147.284 216.73 147.302 216.718 147.32C216.696 147.354 216.671 147.386 216.644 147.417C216.638 147.424 216.632 147.431 216.625 147.438C216.615 147.448 216.605 147.458 216.595 147.468C216.413 147.649 216.135 147.807 215.82 147.953C215.785 147.969 215.749 147.985 215.712 148.001L215.676 148.017C215.652 148.028 215.627 148.039 215.602 148.049C215.578 148.06 215.552 148.07 215.527 148.081L215.452 148.112C215.275 148.185 215.094 148.254 214.917 148.322L214.842 148.352L214.767 148.381C214.717 148.4 214.668 148.42 214.62 148.439L214.548 148.468L214.477 148.497L214.443 148.511C214.419 148.521 214.397 148.531 214.374 148.54C213.854 148.763 213.48 148.99 213.559 149.272C213.561 149.28 213.563 149.287 213.566 149.295C213.573 149.316 213.583 149.335 213.595 149.354C213.602 149.365 213.61 149.375 213.619 149.385C213.712 149.481 213.88 149.466 214.092 149.39C214.121 149.378 214.151 149.367 214.181 149.355L214.199 149.348C214.247 149.327 214.299 149.304 214.351 149.279C214.364 149.273 214.378 149.267 214.391 149.26C214.65 149.133 214.944 148.962 215.236 148.807C215.352 148.744 215.47 148.684 215.59 148.628C215.866 148.498 216.126 148.406 216.334 148.406C216.432 148.406 216.519 148.426 216.591 148.472L216.603 148.48C216.648 148.511 216.686 148.552 216.714 148.6C216.72 148.609 216.725 148.618 216.731 148.628C216.834 148.824 216.748 149.027 216.546 149.226C216.352 149.416 216.05 149.603 215.707 149.777C215.682 149.79 215.656 149.802 215.631 149.815C214.611 150.316 213.275 150.693 213.256 150.698C212.9 150.79 212.391 150.911 211.817 151.002L211.733 151.015L211.719 151.017C211.654 151.027 211.59 151.036 211.526 151.045C211.46 151.053 211.394 151.061 211.328 151.069L211.315 151.07C211.074 151.098 210.832 151.116 210.589 151.125H210.586C210.498 151.128 210.411 151.13 210.323 151.13H210.222C210.088 151.128 209.954 151.122 209.821 151.112C209.818 151.112 209.814 151.112 209.811 151.111C209.763 151.107 209.716 151.103 209.668 151.097C209.619 151.092 209.569 151.086 209.52 151.08C209.488 151.075 209.455 151.07 209.423 151.065C209.39 151.06 209.358 151.054 209.325 151.049L209.28 151.04L209.277 151.04C209.23 151.031 209.183 151.021 209.137 151.01C209.11 151.004 209.083 150.998 209.056 150.991L209.04 150.987C209.026 150.983 209.014 150.98 209 150.976L208.993 150.974L208.952 150.962C208.936 150.958 208.921 150.953 208.906 150.949L208.901 150.947L208.861 150.935C208.846 150.931 208.831 150.926 208.817 150.921L208.781 150.909L208.754 150.9C208.728 150.89 208.702 150.881 208.677 150.871L208.653 150.862L208.633 150.854C208.595 150.839 208.556 150.823 208.519 150.805L208.493 150.793L208.489 150.791C208.48 150.787 208.472 150.783 208.463 150.779C208.445 150.771 208.428 150.762 208.411 150.753L208.405 150.751L208.38 150.738C208.336 150.715 208.293 150.69 208.25 150.664L208.227 150.649C208.215 150.642 208.204 150.635 208.192 150.627L208.162 150.607L208.129 150.585L208.11 150.571C208.089 150.556 208.069 150.541 208.049 150.525L208.018 150.501C208.005 150.491 207.993 150.481 207.98 150.47C207.97 150.462 207.96 150.453 207.95 150.444C207.939 150.434 207.927 150.424 207.916 150.414C207.906 150.404 207.895 150.395 207.885 150.385L207.884 150.383C207.873 150.373 207.862 150.363 207.852 150.352C207.841 150.342 207.831 150.331 207.82 150.32C207.81 150.309 207.8 150.298 207.79 150.287C207.78 150.276 207.771 150.266 207.761 150.255L207.758 150.251C207.749 150.241 207.74 150.23 207.731 150.219C207.712 150.196 207.693 150.172 207.674 150.148C207.656 150.124 207.638 150.099 207.621 150.073L207.604 150.048C207.582 150.016 207.56 149.983 207.539 149.95C207.524 149.926 207.508 149.902 207.493 149.877C207.484 149.862 207.475 149.846 207.465 149.831L207.462 149.825C207.453 149.81 207.444 149.796 207.436 149.781C207.431 149.773 207.426 149.765 207.422 149.757C207.417 149.748 207.412 149.739 207.407 149.731L207.4 149.718L207.395 149.709C207.386 149.693 207.377 149.676 207.368 149.66C207.364 149.652 207.36 149.645 207.356 149.638L207.344 149.615L207.332 149.591C207.301 149.531 207.273 149.469 207.245 149.406L207.236 149.383C207.23 149.368 207.224 149.353 207.218 149.338C207.215 149.33 207.212 149.323 207.209 149.316C207.195 149.278 207.181 149.24 207.169 149.202C207.164 149.189 207.16 149.175 207.156 149.162C207.146 149.131 207.137 149.1 207.129 149.069C207.12 149.032 207.111 148.995 207.104 148.958C207.102 148.951 207.101 148.943 207.1 148.936C207.093 148.9 207.087 148.864 207.082 148.827C207.081 148.82 207.081 148.813 207.08 148.806L207.078 148.784C207.075 148.755 207.072 148.726 207.071 148.697C207.071 148.69 207.07 148.683 207.07 148.676C207.069 148.661 207.069 148.647 207.069 148.633C207.061 148.054 207.354 147.497 207.98 146.871C209.096 145.757 209.745 144.126 209.745 144.126C209.745 144.126 209.763 144.057 209.799 143.959C209.804 143.945 209.809 143.931 209.815 143.916C209.837 143.861 209.86 143.807 209.887 143.754L209.892 143.744C209.915 143.699 209.939 143.655 209.966 143.612C209.972 143.603 209.978 143.593 209.985 143.583C210.005 143.553 210.026 143.525 210.048 143.497C210.06 143.482 210.073 143.467 210.086 143.453C210.092 143.447 210.097 143.441 210.102 143.436C210.167 143.369 210.241 143.314 210.324 143.285L210.335 143.282C210.342 143.28 210.349 143.278 210.356 143.275C210.364 143.273 210.373 143.271 210.381 143.27L210.385 143.269C210.403 143.265 210.421 143.263 210.439 143.262H210.44C210.449 143.262 210.459 143.261 210.469 143.261C210.481 143.261 210.492 143.261 210.504 143.262C210.516 143.263 210.528 143.265 210.54 143.266C210.641 143.282 210.736 143.342 210.819 143.435C210.85 143.47 210.878 143.508 210.903 143.548C210.919 143.574 210.934 143.601 210.949 143.63C210.955 143.642 210.96 143.654 210.966 143.665C210.98 143.696 210.992 143.727 211.004 143.759C211.03 143.834 211.05 143.91 211.063 143.988C211.074 144.057 211.081 144.126 211.083 144.195C211.084 144.232 211.084 144.27 211.083 144.307C211.076 144.483 211.04 144.657 210.977 144.821C210.971 144.836 210.965 144.851 210.959 144.866C210.946 144.897 210.932 144.927 210.918 144.957C210.907 144.979 210.895 145.001 210.883 145.024C210.875 145.039 210.866 145.053 210.858 145.068C210.836 145.105 210.812 145.142 210.787 145.179L210.771 145.201C210.712 145.285 210.645 145.363 210.572 145.435C210.5 145.507 210.423 145.574 210.342 145.634C210.26 145.695 210.184 145.762 210.113 145.834C209.909 146.048 209.862 146.237 209.908 146.379C209.915 146.402 209.925 146.424 209.936 146.444C209.95 146.468 209.966 146.49 209.985 146.509L209.992 146.517L209.999 146.524C210.007 146.531 210.014 146.538 210.023 146.545L210.031 146.551C210.05 146.567 210.071 146.58 210.093 146.592C210.099 146.595 210.105 146.599 210.112 146.602C210.136 146.614 210.16 146.624 210.185 146.631C210.192 146.634 210.199 146.636 210.206 146.638L210.215 146.64L210.227 146.644L210.237 146.646L210.249 146.649L210.26 146.651L210.271 146.653C210.279 146.654 210.287 146.655 210.295 146.656L210.302 146.657L210.317 146.659L210.325 146.66L210.339 146.661H210.348L210.363 146.662H210.41L210.423 146.661L210.438 146.66L210.457 146.658L210.475 146.656C210.479 146.656 210.483 146.655 210.487 146.654C210.541 146.646 210.594 146.632 210.645 146.611L210.667 146.602C210.679 146.597 210.691 146.591 210.702 146.585C210.726 146.573 210.749 146.56 210.771 146.545C210.802 146.525 210.832 146.502 210.859 146.477C210.865 146.471 210.872 146.465 210.878 146.459C210.881 146.456 210.884 146.453 210.887 146.45C210.893 146.444 210.899 146.438 210.905 146.431C210.949 146.384 210.986 146.331 211.017 146.274C211.282 145.792 211.56 145.317 211.85 144.85L211.89 144.786L211.93 144.723C211.95 144.69 211.971 144.658 211.991 144.627L212.011 144.595C212.079 144.489 212.147 144.384 212.217 144.28L212.258 144.218C212.341 144.096 212.424 143.976 212.506 143.862L212.546 143.806C212.636 143.683 212.728 143.563 212.825 143.446L212.863 143.4C212.869 143.392 212.875 143.385 212.882 143.378C212.895 143.363 212.907 143.348 212.92 143.334C212.926 143.327 212.932 143.32 212.938 143.313L212.975 143.272L212.993 143.252C213.011 143.232 213.029 143.213 213.046 143.195C213.059 143.183 213.07 143.171 213.082 143.16C213.15 143.09 213.226 143.027 213.308 142.972L213.327 142.96C213.345 142.948 213.364 142.936 213.383 142.926C213.703 142.744 213.968 142.731 214.121 142.883C214.213 142.976 214.265 143.129 214.262 143.342C214.262 143.352 214.262 143.361 214.261 143.371V143.381C214.261 143.391 214.26 143.401 214.259 143.411C214.259 143.423 214.258 143.435 214.257 143.447C214.256 143.459 214.255 143.468 214.254 143.479C214.254 143.482 214.253 143.485 214.253 143.489C214.252 143.498 214.251 143.508 214.249 143.517C214.249 143.52 214.249 143.523 214.248 143.526C214.247 143.539 214.245 143.552 214.243 143.564C214.241 143.577 214.239 143.588 214.237 143.6L214.233 143.62C214.23 143.639 214.225 143.658 214.22 143.677C214.209 143.712 214.196 143.746 214.182 143.78C214.16 143.825 214.137 143.87 214.112 143.913C214.098 143.937 214.083 143.961 214.068 143.985C214.053 144.009 214.037 144.033 214.02 144.058C213.977 144.119 213.932 144.179 213.886 144.238L213.865 144.265C213.79 144.359 213.712 144.451 213.632 144.54L213.607 144.569C213.572 144.607 213.538 144.645 213.502 144.684L213.476 144.713C213.458 144.732 213.439 144.751 213.421 144.771C213.404 144.79 213.385 144.81 213.366 144.83L213.311 144.888L213.254 144.947L213.197 145.006C213.159 145.046 213.121 145.085 213.082 145.125C212.533 145.688 211.954 146.25 211.758 146.6C211.745 146.623 211.733 146.646 211.723 146.67C211.695 146.734 211.683 146.788 211.691 146.833C211.694 146.847 211.699 146.861 211.706 146.873C211.717 146.893 211.731 146.91 211.746 146.926C211.753 146.933 211.761 146.94 211.769 146.946C211.809 146.974 211.858 146.989 211.908 146.988H211.923L211.939 146.986L211.955 146.985L211.968 146.983C211.97 146.982 211.972 146.982 211.973 146.982L211.985 146.979L211.988 146.979L212.002 146.976L212.006 146.975C212.011 146.973 212.016 146.972 212.021 146.971C212.025 146.969 212.032 146.968 212.038 146.966C212.061 146.959 212.085 146.95 212.108 146.94C212.12 146.936 212.131 146.93 212.143 146.924C212.149 146.922 212.155 146.919 212.161 146.916L212.179 146.907C212.222 146.885 212.265 146.86 212.306 146.834L212.324 146.821C212.33 146.818 212.336 146.814 212.342 146.81L212.36 146.797L212.37 146.791L212.396 146.772C212.42 146.756 212.442 146.739 212.465 146.721L212.467 146.72L212.504 146.691C212.554 146.652 212.601 146.612 212.643 146.575L212.672 146.55L212.675 146.548L212.689 146.535C212.724 146.503 212.756 146.474 212.781 146.45L212.792 146.44C212.801 146.431 212.81 146.422 212.818 146.415L212.833 146.4L212.838 146.395L212.84 146.394L212.856 146.378L212.866 146.367L212.867 146.366L212.872 146.362L212.878 146.357L212.879 146.355L212.884 146.35L212.912 146.326L212.928 146.312C212.936 146.305 212.944 146.298 212.952 146.29L212.97 146.274C212.974 146.271 212.977 146.268 212.98 146.265L213 146.248L213.028 146.223L213.043 146.21C213.102 146.159 213.174 146.097 213.256 146.027L213.29 145.999L213.346 145.952L213.403 145.904C213.477 145.842 213.557 145.777 213.642 145.709L213.698 145.664C213.745 145.626 213.794 145.588 213.843 145.549C213.863 145.533 213.883 145.518 213.904 145.502C213.954 145.463 214.005 145.424 214.056 145.386C214.172 145.298 214.292 145.21 214.414 145.124L214.466 145.088C214.502 145.063 214.538 145.038 214.575 145.013L214.608 144.991C214.672 144.947 214.738 144.904 214.805 144.862L214.838 144.842L214.87 144.821C214.903 144.801 214.936 144.781 214.968 144.762L215 144.742L215.065 144.705L215.129 144.668L215.141 144.661L215.192 144.634C215.213 144.622 215.234 144.611 215.254 144.601L215.285 144.585L215.316 144.569C215.326 144.564 215.337 144.559 215.347 144.554C215.415 144.52 215.484 144.49 215.555 144.461C215.574 144.453 215.593 144.446 215.612 144.44L215.667 144.42C215.684 144.415 215.7 144.409 215.716 144.405L215.721 144.403C215.73 144.4 215.738 144.398 215.746 144.396L215.749 144.395C215.766 144.39 215.783 144.386 215.8 144.382H215.801C215.849 144.37 215.898 144.362 215.947 144.357C215.97 144.354 215.992 144.353 216.015 144.353H216.027C216.042 144.353 216.056 144.354 216.071 144.356C216.078 144.356 216.084 144.357 216.091 144.358H216.093C216.1 144.359 216.106 144.36 216.113 144.361C216.119 144.362 216.126 144.363 216.132 144.365H216.134C216.14 144.366 216.146 144.368 216.153 144.37C216.187 144.379 216.22 144.394 216.25 144.414C216.265 144.424 216.279 144.434 216.291 144.446L216.295 144.45C216.297 144.452 216.3 144.454 216.302 144.457L216.308 144.464C216.363 144.521 216.408 144.586 216.442 144.658L216.447 144.67C216.458 144.697 216.468 144.725 216.474 144.753C216.493 144.841 216.486 144.932 216.453 145.016C216.44 145.049 216.425 145.082 216.407 145.113C216.365 145.183 216.315 145.249 216.258 145.309L216.246 145.322C216.228 145.341 216.209 145.36 216.189 145.379C216.181 145.387 216.172 145.396 216.163 145.404L216.135 145.43L216.12 145.443C216.085 145.474 216.049 145.504 216.013 145.533C215.991 145.551 215.969 145.569 215.946 145.586C215.867 145.647 215.786 145.705 215.704 145.762C215.654 145.796 215.604 145.829 215.553 145.862C215.429 145.944 215.303 146.024 215.176 146.101C214.909 146.265 214.614 146.44 214.299 146.631L214.217 146.681C214.128 146.735 214.044 146.787 213.964 146.837L213.924 146.862L213.849 146.91C213.799 146.942 213.749 146.975 213.699 147.007L213.658 147.034C213.639 147.046 213.619 147.059 213.6 147.072L213.581 147.084L213.522 147.124L213.491 147.145L213.455 147.17L213.421 147.194C213.365 147.234 213.312 147.272 213.264 147.308L213.246 147.322C213.217 147.343 213.189 147.365 213.161 147.388C213.119 147.421 213.081 147.454 213.047 147.485L213.03 147.5C213.02 147.509 213.011 147.518 213.002 147.526C212.996 147.532 212.99 147.538 212.983 147.544L212.975 147.553C212.955 147.572 212.936 147.592 212.918 147.613L212.909 147.623C212.889 147.646 212.872 147.668 212.857 147.69L212.85 147.699C212.838 147.717 212.827 147.735 212.817 147.753C212.814 147.758 212.812 147.762 212.81 147.767L212.803 147.781L212.799 147.791L212.796 147.797L212.794 147.804L212.791 147.812C212.782 147.835 212.776 147.859 212.773 147.883L212.772 147.891L212.771 147.899L212.771 147.942C212.771 147.945 212.771 147.949 212.772 147.952L212.773 147.959C212.773 147.963 212.773 147.966 212.774 147.97C212.775 147.973 212.775 147.98 212.777 147.984C212.778 147.989 212.778 147.995 212.78 147.999C212.781 148.004 212.782 148.009 212.784 148.014C212.786 148.024 212.789 148.033 212.793 148.043C212.795 148.049 212.797 148.054 212.799 148.06C212.799 148.061 212.8 148.062 212.801 148.063L212.806 148.074L212.812 148.089C212.82 148.105 212.828 148.12 212.836 148.135L212.845 148.15L212.854 148.166C212.856 148.168 212.858 148.17 212.86 148.173L212.863 148.176L212.866 148.179L212.87 148.182C212.875 148.185 212.881 148.188 212.886 148.19C212.89 148.191 212.893 148.192 212.896 148.193C212.974 148.211 213.135 148.146 213.348 148.033C213.36 148.027 213.374 148.02 213.387 148.013L213.452 147.977L213.483 147.96C213.506 147.948 213.529 147.934 213.552 147.921L213.595 147.896C213.878 147.734 214.215 147.525 214.563 147.322C214.596 147.303 214.629 147.284 214.661 147.265L214.727 147.223C214.804 147.179 214.88 147.136 214.957 147.093C215.055 147.04 215.152 146.988 215.251 146.937L215.316 146.904C215.358 146.883 215.401 146.863 215.443 146.843C215.524 146.804 215.606 146.768 215.689 146.733L215.734 146.715L215.739 146.712C215.98 146.617 216.198 146.559 216.374 146.559C216.412 146.558 216.45 146.561 216.488 146.568C216.5 146.57 216.512 146.572 216.523 146.575H216.526C216.554 146.582 216.582 146.593 216.609 146.606C216.646 146.625 216.68 146.651 216.708 146.682C216.721 146.696 216.732 146.712 216.743 146.728C216.762 146.758 216.777 146.789 216.787 146.822C216.792 146.835 216.795 146.848 216.799 146.861C216.828 146.964 216.825 147.072 216.791 147.173Z" fill="#FF9D00"/>
<path fill-rule="evenodd" clip-rule="evenodd" d="M215.193 139.817L215.193 139.751C215.193 134.081 210.598 129.484 204.928 129.484C199.258 129.484 194.661 134.081 194.661 139.751L194.661 139.773C194.661 139.788 194.661 139.802 194.661 139.817C194.662 139.839 194.662 139.861 194.662 139.883L194.663 139.932L194.663 139.95C194.663 139.958 194.663 139.966 194.664 139.974C194.664 139.987 194.664 140 194.664 140.013L194.666 140.065L194.668 140.127L194.669 140.148L194.671 140.212V140.215C194.673 140.24 194.674 140.265 194.675 140.29L194.675 140.292C194.677 140.317 194.678 140.343 194.68 140.368C194.681 140.392 194.682 140.415 194.684 140.439L194.684 140.443C194.685 140.463 194.687 140.484 194.688 140.504L194.689 140.509L194.693 140.568L194.694 140.572C194.694 140.583 194.695 140.594 194.696 140.605C194.704 140.703 194.714 140.801 194.725 140.898L194.725 140.904L194.734 140.976L194.743 141.051L194.75 141.102L194.753 141.126C194.76 141.181 194.768 141.236 194.776 141.291L194.777 141.295L194.785 141.347C194.823 141.595 194.871 141.841 194.928 142.085L194.929 142.088L194.933 142.107L194.946 142.159L194.953 142.15C195.251 141.793 195.679 141.597 196.157 141.597C196.54 141.597 196.934 141.724 197.328 141.974C197.589 142.14 197.879 142.434 198.176 142.804C198.451 142.422 198.837 142.168 199.278 142.098C199.363 142.085 199.448 142.078 199.533 142.078C200.54 142.078 201.147 142.952 201.376 143.739C201.489 144.004 202.035 145.214 202.858 146.033C204.11 147.283 204.423 148.573 203.803 149.954H203.806C203.848 149.958 203.89 149.963 203.933 149.967C203.958 149.969 203.983 149.972 204.009 149.974L204.018 149.975L204.074 149.979L204.125 149.983C204.174 149.987 204.223 149.991 204.273 149.994L204.312 149.996L204.343 149.998L204.362 149.999L204.423 150.002L204.439 150.003L204.503 150.006L204.573 150.009L204.63 150.01L204.64 150.01C204.652 150.011 204.664 150.011 204.676 150.011L204.689 150.012C204.769 150.014 204.849 150.014 204.928 150.014H205.013L205.074 150.014C205.089 150.013 205.104 150.013 205.118 150.013H205.142L205.163 150.013C205.17 150.012 205.179 150.012 205.187 150.012H205.211L205.258 150.011L205.33 150.008L205.409 150.005C205.431 150.004 205.454 150.003 205.476 150.002L205.501 150L205.537 149.998L205.558 149.997L205.574 149.996L205.647 149.991L205.719 149.986L205.785 149.981L205.832 149.977L205.882 149.972C205.968 149.965 206.052 149.956 206.137 149.945L206.195 149.939C205.585 148.563 205.901 147.279 207.147 146.034C207.968 145.213 208.514 144.003 208.628 143.738C208.857 142.951 209.464 142.077 210.471 142.077C210.556 142.077 210.642 142.084 210.726 142.097C211.167 142.167 211.552 142.421 211.828 142.803C212.126 142.433 212.415 142.139 212.676 141.973C213.07 141.723 213.464 141.596 213.847 141.596C214.269 141.596 214.652 141.749 214.941 142.03C214.946 142.007 214.951 141.984 214.956 141.961L214.971 141.893C214.976 141.868 214.981 141.843 214.987 141.817C214.995 141.773 215.004 141.729 215.013 141.684C215.022 141.638 215.03 141.591 215.039 141.545L215.043 141.519C215.045 141.505 215.048 141.49 215.051 141.475C215.055 141.451 215.059 141.428 215.063 141.404L215.064 141.395L215.074 141.334L215.083 141.272C215.09 141.226 215.097 141.18 215.103 141.134L215.104 141.122L215.113 141.057L215.12 141.002L215.132 140.893L215.137 140.85L215.138 140.838C215.141 140.814 215.143 140.79 215.145 140.767V140.765C215.147 140.746 215.149 140.727 215.15 140.709C215.16 140.602 215.168 140.495 215.175 140.387C215.176 140.369 215.177 140.352 215.178 140.334L215.181 140.266L215.182 140.252C215.184 140.207 215.186 140.162 215.188 140.117V140.115L215.188 140.097C215.189 140.083 215.19 140.068 215.19 140.053L215.19 140.047C215.19 140.033 215.191 140.019 215.191 140.004L215.191 139.992C215.192 139.978 215.192 139.964 215.192 139.95L215.193 139.938C215.193 139.92 215.193 139.901 215.193 139.883L215.193 139.817ZM202.382 150.073C203.195 148.881 203.137 147.986 202.022 146.871C200.906 145.756 200.257 144.125 200.257 144.125C200.257 144.125 200.014 143.178 199.462 143.265C198.909 143.352 198.503 144.767 199.661 145.634C200.818 146.5 199.43 147.087 198.985 146.275C198.54 145.462 197.323 143.372 196.693 142.972C196.063 142.572 195.619 142.796 195.768 143.62C195.842 144.029 196.528 144.727 197.17 145.379C197.82 146.041 198.425 146.655 198.295 146.873C198.039 147.305 197.136 146.365 197.136 146.365C197.136 146.365 194.308 143.792 193.692 144.462C193.125 145.081 194 145.606 195.349 146.416C195.463 146.485 195.581 146.556 195.702 146.629C197.245 147.563 197.365 147.81 197.146 148.163C197.066 148.294 196.549 147.984 195.914 147.602C194.831 146.952 193.402 146.094 193.201 146.862C193.026 147.526 194.077 147.933 195.03 148.302C195.824 148.61 196.55 148.891 196.443 149.273C196.332 149.669 195.732 149.338 195.076 148.977C194.34 148.572 193.533 148.129 193.269 148.629C192.771 149.576 196.712 150.691 196.744 150.699C198.018 151.03 201.252 151.729 202.382 150.073ZM207.62 150.073C206.807 148.881 206.864 147.986 207.98 146.871C209.095 145.756 209.745 144.125 209.745 144.125C209.745 144.125 209.987 143.178 210.54 143.265C211.092 143.352 211.498 144.767 210.341 145.634C209.184 146.5 210.571 147.087 211.016 146.275C211.462 145.462 212.677 143.372 213.308 142.972C213.938 142.572 214.382 142.796 214.233 143.62C214.159 144.029 213.473 144.727 212.831 145.379C212.18 146.041 211.576 146.655 211.705 146.873C211.962 147.305 212.866 146.365 212.866 146.365C212.866 146.365 215.693 143.791 216.309 144.462C216.877 145.08 216.002 145.606 214.653 146.416C214.535 146.487 214.417 146.558 214.299 146.629C212.756 147.563 212.636 147.809 212.855 148.163C212.936 148.293 213.452 147.983 214.088 147.602C215.171 146.951 216.599 146.094 216.801 146.861C216.975 147.526 215.924 147.933 214.972 148.302C214.178 148.609 213.452 148.891 213.558 149.272C213.669 149.668 214.269 149.338 214.924 148.977C215.661 148.572 216.468 148.128 216.732 148.629C217.231 149.576 213.289 150.69 213.257 150.698C211.983 151.03 208.75 151.729 207.62 150.073Z" fill="#FFD21E"/>
<path fill-rule="evenodd" clip-rule="evenodd" d="M208.261 136.956C208.422 137.013 208.541 137.185 208.654 137.349C208.807 137.571 208.949 137.777 209.168 137.661C209.426 137.524 209.638 137.313 209.776 137.056C209.914 136.798 209.973 136.506 209.945 136.215C209.924 135.998 209.855 135.787 209.743 135.6C209.632 135.412 209.479 135.252 209.298 135.13C209.117 135.008 208.911 134.928 208.695 134.896C208.479 134.863 208.258 134.879 208.049 134.942C207.84 135.005 207.647 135.114 207.485 135.26C207.323 135.406 207.195 135.587 207.111 135.788C207.027 135.99 206.989 136.208 206.999 136.426C207.009 136.644 207.068 136.857 207.17 137.05C207.272 137.241 207.496 137.151 207.734 137.056C207.92 136.981 208.114 136.904 208.261 136.956ZM201.302 136.956C201.142 137.013 201.022 137.185 200.909 137.349C200.756 137.571 200.614 137.777 200.395 137.661C200.071 137.489 199.822 137.203 199.697 136.857C199.573 136.512 199.581 136.133 199.721 135.793C199.86 135.454 200.121 135.179 200.453 135.022C200.785 134.864 201.163 134.836 201.514 134.942C201.794 135.027 202.043 135.192 202.228 135.417C202.414 135.643 202.529 135.918 202.558 136.209C202.588 136.499 202.53 136.792 202.393 137.05C202.292 137.241 202.067 137.151 201.829 137.056C201.643 136.981 201.45 136.904 201.302 136.956ZM207.185 143.29C208.288 142.42 208.693 141.002 208.693 140.128C208.693 139.437 208.228 139.654 207.484 140.023L207.442 140.043C206.759 140.382 205.85 140.832 204.852 140.832C203.853 140.832 202.944 140.382 202.261 140.043C201.493 139.663 201.011 139.424 201.011 140.128C201.011 141.029 201.442 142.51 202.625 143.37C202.782 143.053 203.001 142.772 203.271 142.544C203.541 142.316 203.855 142.146 204.193 142.044C204.312 142.009 204.433 142.212 204.558 142.421C204.678 142.621 204.801 142.827 204.926 142.827C205.059 142.827 205.189 142.624 205.317 142.427C205.451 142.22 205.581 142.019 205.707 142.059C206.34 142.263 206.87 142.704 207.185 143.29Z" fill="#32343D"/>
<path d="M207.186 143.288C206.612 143.741 205.848 144.045 204.853 144.045C203.919 144.045 203.188 143.777 202.627 143.369C202.783 143.052 203.003 142.771 203.273 142.543C203.543 142.314 203.857 142.144 204.195 142.043C204.427 141.974 204.673 142.826 204.927 142.826C205.199 142.826 205.462 141.979 205.708 142.058C206.342 142.262 206.871 142.702 207.186 143.288Z" fill="#FF323D"/>
<path fill-rule="evenodd" clip-rule="evenodd" d="M198.664 138.185C198.532 138.272 198.381 138.326 198.224 138.342C198.067 138.357 197.909 138.334 197.763 138.273C197.646 138.225 197.54 138.154 197.451 138.065C197.362 137.976 197.291 137.87 197.243 137.753C197.183 137.608 197.159 137.449 197.175 137.292C197.19 137.135 197.244 136.984 197.332 136.853C197.437 136.695 197.587 136.572 197.763 136.499C197.938 136.426 198.132 136.407 198.318 136.444C198.504 136.481 198.675 136.573 198.809 136.707C198.944 136.842 199.035 137.013 199.072 137.199C199.109 137.385 199.09 137.578 199.017 137.754C198.945 137.929 198.821 138.079 198.664 138.185ZM212.402 138.185C212.271 138.272 212.12 138.326 211.963 138.342C211.805 138.357 211.647 138.334 211.501 138.273C211.384 138.225 211.278 138.154 211.189 138.065C211.1 137.976 211.029 137.87 210.981 137.753C210.921 137.608 210.897 137.449 210.913 137.292C210.928 137.135 210.983 136.984 211.07 136.853C211.149 136.735 211.253 136.635 211.375 136.562C211.497 136.489 211.633 136.444 211.774 136.43C211.916 136.417 212.059 136.434 212.192 136.482C212.326 136.53 212.447 136.607 212.548 136.707C212.682 136.842 212.773 137.013 212.81 137.199C212.848 137.385 212.828 137.578 212.756 137.754C212.683 137.929 212.56 138.079 212.402 138.185Z" fill="#FFAD03"/>
</g>
</g>
<g filter="url(#filter1_b_1783_23318)">
<rect width="80.2622" height="83.3896" rx="8" transform="matrix(1 0 3.70127e-06 1 7 58)" fill="white" fill-opacity="0.2"/>
<rect width="80.2622" height="83.3896" rx="8" transform="matrix(1 0 3.70127e-06 1 7 58)" fill="url(#paint3_radial_1783_23318)" fill-opacity="0.8"/>
<rect x="1" y="1" width="78.2622" height="81.3896" rx="7" transform="matrix(1 0 3.70127e-06 1 7 58)" stroke="url(#paint4_radial_1783_23318)" stroke-width="2"/>
<rect x="1" y="1" width="78.2622" height="81.3896" rx="7" transform="matrix(1 0 3.70127e-06 1 7 58)" stroke="url(#paint5_radial_1783_23318)" stroke-width="2"/>
<g clip-path="url(#clip1_1783_23318)">
<mask id="mask0_1783_23318" style="mask-type:luminance" maskUnits="userSpaceOnUse" x="28" y="81" width="39" height="39">
<path d="M67 81H28L28 120H67L67 81Z" fill="white"/>
</mask>
<g mask="url(#mask0_1783_23318)">
<path d="M45.5496 77.1016H24.0996L24.0996 98.5516H45.5496L45.5496 77.1016Z" fill="#F25022"/>
<path d="M70.8992 77.1016H49.4492L49.4492 98.5516H70.8992L70.8992 77.1016Z" fill="#80BA01"/>
<path d="M70.8992 102.453H49.4492L49.4492 123.903H70.8992L70.8992 102.453Z" fill="#FFB902"/>
<path d="M45.5496 102.453H24.0996L24.0996 123.903H45.5496L45.5496 102.453Z" fill="#02A4EF"/>
</g>
</g>
</g>
<g filter="url(#filter2_b_1783_23318)">
<rect width="70.9997" height="71" rx="8" transform="matrix(1 0 3.70127e-06 1 102 0)" fill="white" fill-opacity="0.2"/>
<rect width="70.9997" height="71" rx="8" transform="matrix(1 0 3.70127e-06 1 102 0)" fill="url(#paint6_radial_1783_23318)" fill-opacity="0.8"/>
<rect x="1" y="1" width="68.9997" height="69" rx="7" transform="matrix(1 0 3.70127e-06 1 102 5.96046e-08)" stroke="url(#paint7_radial_1783_23318)" stroke-width="2"/>
<rect x="1" y="1" width="68.9997" height="69" rx="7" transform="matrix(1 0 3.70127e-06 1 102 5.96046e-08)" stroke="url(#paint8_radial_1783_23318)" stroke-width="2"/>
<g clip-path="url(#clip2_1783_23318)">
<path d="M148.752 16.875H156.917L156.917 25.0403H148.752L148.752 16.875Z" fill="black"/>
<path d="M152.834 16.875H160.999L160.999 25.0403H152.834L152.834 16.875Z" fill="#F7D046"/>
<path d="M116.09 16.875H124.255L124.255 25.0403H116.09L116.09 16.875ZM116.09 25.0403H124.255L124.255 33.2056H116.09L116.09 25.0403ZM116.09 33.2056H124.255L124.255 41.3711H116.09L116.09 33.2056ZM116.09 41.3711H124.255L124.255 49.5363H116.09L116.09 41.3711Z" fill="black"/>
<path d="M116.09 49.5352H124.255L124.255 57.7004H116.09L116.09 49.5352Z" fill="black"/>
<path d="M120.174 16.875H128.339L128.339 25.0403H120.174L120.174 16.875Z" fill="#F7D046"/>
<path d="M152.835 25.0391H161.001L161.001 33.2044H152.835L152.835 25.0391ZM120.174 25.0391H128.339L128.339 33.2044H120.174L120.174 25.0391Z" fill="#F2A73B"/>
<path d="M140.586 25.0391H148.751L148.751 33.2044H140.586L140.586 25.0391Z" fill="black"/>
<path d="M144.669 25.0391H152.834L152.834 33.2044H144.669L144.669 25.0391ZM128.338 25.0391H136.503L136.503 33.2044H128.338L128.338 25.0391Z" fill="#F2A73B"/>
<path d="M136.503 33.207H144.668L144.668 41.3723H136.503L136.503 33.207ZM144.668 33.207H152.834L152.834 41.3723H144.668L144.668 33.207ZM128.338 33.207H136.503L136.503 41.3723H128.338L128.338 33.207Z" fill="#EE792F"/>
<path d="M132.422 41.3711H140.587L140.587 49.5363H132.422L132.422 41.3711Z" fill="black"/>
<path d="M136.504 41.3711H144.669L144.669 49.5363H136.504L136.504 41.3711Z" fill="#EB5829"/>
<path d="M152.835 33.207H161.001L161.001 41.3723H152.835L152.835 33.207ZM120.174 33.207H128.339L128.339 41.3723H120.174L120.174 33.207Z" fill="#EE792F"/>
<path d="M148.752 41.3711H156.917L156.917 49.5363H148.752L148.752 41.3711Z" fill="black"/>
<path d="M152.834 41.3711H160.999L160.999 49.5363H152.834L152.834 41.3711Z" fill="#EB5829"/>
<path d="M148.752 49.5352H156.917L156.917 57.7004H148.752L148.752 49.5352Z" fill="black"/>
<path d="M120.174 41.3711H128.339L128.339 49.5363H120.174L120.174 41.3711Z" fill="#EB5829"/>
<path d="M152.835 49.5352H161.001L161.001 57.7004H152.835L152.835 49.5352ZM120.174 49.5352H128.339L128.339 57.7004H120.174L120.174 49.5352Z" fill="#EA3326"/>
</g>
</g>
<g filter="url(#filter3_b_1783_23318)">
<rect width="63.9998" height="64" rx="8" transform="matrix(1 0 3.70127e-06 1 102 85)" fill="white" fill-opacity="0.2"/>
<rect width="63.9998" height="64" rx="8" transform="matrix(1 0 3.70127e-06 1 102 85)" fill="url(#paint9_radial_1783_23318)" fill-opacity="0.8"/>
<rect x="1" y="1" width="61.9998" height="62" rx="7" transform="matrix(1 0 3.70127e-06 1 102 85)" stroke="url(#paint10_radial_1783_23318)" stroke-width="2"/>
<rect x="1" y="1" width="61.9998" height="62" rx="7" transform="matrix(1 0 3.70127e-06 1 102 85)" stroke="url(#paint11_radial_1783_23318)" stroke-width="2"/>
<g clip-path="url(#clip3_1783_23318)">
<mask id="mask1_1783_23318" style="mask-type:luminance" maskUnits="userSpaceOnUse" x="115" y="98" width="38" height="38">
<path d="M153 98H115L115 136H153L153 98Z" fill="white"/>
</mask>
<g mask="url(#mask1_1783_23318)">
<path fill-rule="evenodd" clip-rule="evenodd" d="M134.016 98C123.501 98 115 106.708 115 117.482C115 126.093 120.447 133.383 128.002 135.963C128.947 136.157 129.293 135.544 129.293 135.028C129.293 134.577 129.262 133.028 129.262 131.415C123.972 132.577 122.871 129.093 122.871 129.093C122.021 126.835 120.761 126.255 120.761 126.255C119.03 125.062 120.887 125.062 120.887 125.062C122.808 125.191 123.815 127.061 123.815 127.061C125.515 130.028 128.254 129.19 129.356 128.674C129.513 127.416 130.017 126.545 130.553 126.061C126.334 125.61 121.895 123.933 121.895 116.449C121.895 114.321 122.65 112.579 123.847 111.224C123.658 110.741 122.996 108.74 124.036 106.063C124.036 106.063 125.641 105.547 129.262 108.063C130.812 107.637 132.41 107.42 134.016 107.418C135.621 107.418 137.258 107.644 138.769 108.063C142.39 105.547 143.996 106.063 143.996 106.063C145.035 108.74 144.373 110.741 144.185 111.224C145.413 112.579 146.136 114.321 146.136 116.449C146.136 123.933 141.698 125.577 137.447 126.061C138.14 126.674 138.738 127.835 138.738 129.674C138.738 132.286 138.707 134.383 138.707 135.028C138.707 135.544 139.053 136.157 139.998 135.964C147.553 133.383 153 126.093 153 117.482C153.031 106.708 144.499 98 134.016 98Z" fill="#24292F"/>
</g>
</g>
</g>
<g filter="url(#filter4_b_1783_23318)">
<rect width="81.9997" height="81.9999" rx="8" transform="matrix(1 0 3.70127e-06 1 190 21)" fill="white" fill-opacity="0.2"/>
<rect width="81.9997" height="81.9999" rx="8" transform="matrix(1 0 3.70127e-06 1 190 21)" fill="url(#paint12_radial_1783_23318)" fill-opacity="0.8"/>
<rect x="1" y="1" width="79.9997" height="79.9999" rx="7" transform="matrix(1 0 3.70127e-06 1 190 21)" stroke="url(#paint13_radial_1783_23318)" stroke-width="2"/>
<rect x="1" y="1" width="79.9997" height="79.9999" rx="7" transform="matrix(1 0 3.70127e-06 1 190 21)" stroke="url(#paint14_radial_1783_23318)" stroke-width="2"/>
<mask id="mask2_1783_23318" style="mask-type:luminance" maskUnits="userSpaceOnUse" x="206" y="36" width="51" height="51">
<path d="M257 36H206L206 87H257L257 36Z" fill="white"/>
</mask>
<g mask="url(#mask2_1783_23318)">
<path d="M255.824 71.0174L233.881 84.214C233.162 84.6465 232.339 84.875 231.5 84.875C230.661 84.875 229.838 84.6465 229.119 84.214L207.176 71.0174C206.446 70.5785 206 69.7891 206 68.9375C206 68.0859 206.446 67.2965 207.176 66.8576L229.119 53.661C229.838 53.2285 230.661 53 231.5 53C232.339 53 233.162 53.2285 233.881 53.661L255.824 66.8576C256.554 67.2965 257 68.0859 257 68.9375C257 69.7891 256.554 70.5785 255.824 71.0174Z" fill="url(#paint15_linear_1783_23318)"/>
<path d="M255.824 63.5799L233.881 76.7765C233.162 77.209 232.339 77.4375 231.5 77.4375C230.661 77.4375 229.838 77.209 229.119 76.7765L207.176 63.5799C206.446 63.141 206 62.3516 206 61.5C206 60.6484 206.446 59.859 207.176 59.4201L229.119 46.2235C229.838 45.791 230.661 45.5625 231.5 45.5625C232.339 45.5625 233.162 45.791 233.881 46.2235L255.824 59.4201C256.554 59.859 257 60.6484 257 61.5C257 62.3516 256.554 63.141 255.824 63.5799Z" fill="url(#paint16_linear_1783_23318)"/>
<path d="M255.824 56.1424L233.881 69.339C233.162 69.7715 232.339 70 231.5 70C230.661 70 229.838 69.7715 229.119 69.339L207.176 56.1424C206.446 55.7035 206 54.9141 206 54.0625C206 53.2109 206.446 52.4215 207.176 51.9826L229.119 38.786C229.838 38.3535 230.661 38.125 231.5 38.125C232.339 38.125 233.162 38.3535 233.881 38.786L255.824 51.9826C256.554 52.4215 257 53.2109 257 54.0625C257 54.9141 256.554 55.7035 255.824 56.1424Z" fill="url(#paint17_linear_1783_23318)"/>
<path d="M242.125 60.0933C242.125 62.4405 240.222 64.3433 237.875 64.3433H223C220.653 64.3433 218.75 62.4405 218.75 60.0933L218.75 44.5H242.125L242.125 60.0933Z" fill="url(#paint18_radial_1783_23318)" fill-opacity="0.4"/>
<path d="M242.125 60.0933C242.125 62.4405 240.222 64.3433 237.875 64.3433H223C220.653 64.3433 218.75 62.4405 218.75 60.0933L218.75 44.5H242.125L242.125 60.0933Z" fill="url(#paint19_radial_1783_23318)" fill-opacity="0.4"/>
<path d="M242.125 60.0933C242.125 62.4405 240.222 64.3433 237.875 64.3433H223C220.653 64.3433 218.75 62.4405 218.75 60.0933L218.75 44.5H242.125L242.125 60.0933Z" fill="url(#paint20_radial_1783_23318)" fill-opacity="0.4"/>
<path d="M242.125 60.0933C242.125 62.4405 240.222 64.3433 237.875 64.3433H223C220.653 64.3433 218.75 62.4405 218.75 60.0933L218.75 44.5H242.125L242.125 60.0933Z" fill="url(#paint21_radial_1783_23318)" fill-opacity="0.4"/>
<path d="M242.125 60.0933C242.125 62.4405 240.222 64.3433 237.875 64.3433H223C220.653 64.3433 218.75 62.4405 218.75 60.0933L218.75 44.5H242.125L242.125 60.0933Z" fill="url(#paint22_radial_1783_23318)" fill-opacity="0.4"/>
<path d="M242.125 60.0933C242.125 62.4405 240.222 64.3433 237.875 64.3433H223C220.653 64.3433 218.75 62.4405 218.75 60.0933L218.75 44.5H242.125L242.125 60.0933Z" fill="url(#paint23_radial_1783_23318)" fill-opacity="0.4"/>
<path d="M229.965 46.5548L229.173 44.9286C229.106 44.8033 228.983 44.6948 228.82 44.618C228.658 44.5412 228.463 44.5 228.264 44.5C228.064 44.5 227.87 44.5412 227.707 44.618C227.544 44.6948 227.421 44.8033 227.355 44.9286L226.562 46.5548C226.32 47.0456 225.912 47.4927 225.368 47.8608C224.824 48.229 224.159 48.5082 223.427 48.6768L220.987 49.2054C220.799 49.2496 220.636 49.3316 220.521 49.4401C220.406 49.5486 220.344 49.6782 220.344 49.8111C220.344 49.944 220.406 50.0736 220.521 50.1821C220.636 50.2906 220.799 50.3726 220.987 50.4168L223.427 50.9453C224.053 51.0845 224.631 51.3044 225.128 51.5916C225.221 51.645 225.311 51.7009 225.397 51.7589C225.854 52.0645 226.217 52.4252 226.468 52.821C226.52 52.9044 226.568 52.9893 226.611 53.0755L227.404 54.7017C227.463 54.8146 227.569 54.914 227.709 54.9887C227.724 54.9969 227.74 55.0048 227.756 55.0123C227.919 55.0891 228.113 55.1303 228.313 55.1303C228.512 55.1303 228.706 55.0891 228.869 55.0123C229.032 54.9356 229.155 54.827 229.221 54.7017L230.014 53.0755C230.261 52.5812 230.677 52.1319 231.23 51.7636C231.783 51.3952 232.457 51.1178 233.198 50.9535L235.638 50.425C235.826 50.3807 235.989 50.2988 236.104 50.1903C236.219 50.0817 236.281 49.9521 236.281 49.8192C236.281 49.6863 236.219 49.5567 236.104 49.4482C235.989 49.3397 235.826 49.2577 235.638 49.2135L235.589 49.2054L233.149 48.6768C232.408 48.5125 231.734 48.2352 231.181 47.8667C230.628 47.4984 230.212 47.0491 229.965 46.5548Z" fill="url(#paint24_linear_1783_23318)"/>
<path d="M239.715 57.6311L241.179 57.9482L241.208 57.9531C241.321 57.9796 241.418 58.0288 241.488 58.0939C241.557 58.159 241.594 58.2368 241.594 58.3165C241.594 58.3963 241.557 58.4741 241.488 58.5391C241.418 58.6043 241.321 58.6535 241.208 58.68L239.744 58.9971C239.299 59.0957 238.895 59.2621 238.563 59.4832C238.231 59.7042 237.982 59.9737 237.834 60.2703L237.358 61.246C237.318 61.3212 237.244 61.3863 237.146 61.4324C237.049 61.4784 236.932 61.5032 236.813 61.5032C236.693 61.5032 236.576 61.4784 236.479 61.4324C236.381 61.3863 236.307 61.3212 236.267 61.246L236.266 61.243L235.791 60.2703C235.644 59.9728 235.395 59.7023 235.063 59.4804C234.732 59.2584 234.327 59.0913 233.881 58.9922L232.417 58.6751C232.304 58.6486 232.207 58.5994 232.138 58.5343C232.068 58.4692 232.031 58.3914 232.031 58.3117C232.031 58.2319 232.068 58.1541 232.138 58.0891C232.207 58.0239 232.304 57.9747 232.417 57.9482L233.881 57.6311C234.321 57.53 234.719 57.3624 235.046 57.1415C235.372 56.9206 235.617 56.6524 235.762 56.3579L236.238 55.3822C236.278 55.307 236.352 55.2419 236.449 55.1958C236.547 55.1498 236.664 55.125 236.783 55.125C236.903 55.125 237.02 55.1498 237.117 55.1958C237.215 55.2419 237.289 55.307 237.329 55.3822L237.804 56.3579C237.952 56.6545 238.202 56.924 238.534 57.1451C238.865 57.3661 239.27 57.5325 239.715 57.6311Z" fill="url(#paint25_linear_1783_23318)"/>
</g>
</g>
<g filter="url(#filter5_b_1783_23318)">
<rect width="42.9999" height="43" rx="8" transform="matrix(1 0 3.70127e-06 1 46 2)" fill="white" fill-opacity="0.2"/>
<rect width="42.9999" height="43" rx="8" transform="matrix(1 0 3.70127e-06 1 46 2)" fill="url(#paint26_radial_1783_23318)" fill-opacity="0.8"/>
<rect x="1" y="1" width="40.9999" height="41" rx="7" transform="matrix(1 0 3.70127e-06 1 46 2)" stroke="url(#paint27_radial_1783_23318)" stroke-width="2"/>
<rect x="1" y="1" width="40.9999" height="41" rx="7" transform="matrix(1 0 3.70127e-06 1 46 2)" stroke="url(#paint28_radial_1783_23318)" stroke-width="2"/>
<rect x="56" y="12" width="24" height="24" rx="4" fill="url(#paint29_linear_1783_23318)"/>
<path d="M76.6863 22.1842C76.913 21.5108 76.9914 20.7974 76.9163 20.0917C76.8411 19.3859 76.6142 18.7042 76.2506 18.0919C75.7116 17.1664 74.8886 16.4337 73.9002 15.9994C72.9118 15.565 71.8091 15.4515 70.7511 15.6752C70.15 15.0157 69.3835 14.5238 68.5287 14.2489C67.6739 13.974 66.7609 13.9258 65.8812 14.1092C65.0015 14.2926 64.1863 14.701 63.5173 15.2935C62.8483 15.8861 62.3492 16.6418 62.07 17.4848C61.3652 17.6274 60.6993 17.9167 60.1169 18.3335C59.5344 18.7502 59.0489 19.2848 58.6927 19.9015C58.1478 20.8254 57.915 21.8963 58.0278 22.9594C58.1405 24.0225 58.5932 25.0226 59.3202 25.8153C59.0926 26.4884 59.0134 27.2017 59.0879 27.9074C59.1623 28.6131 59.3887 29.295 59.7519 29.9075C60.2916 30.8333 61.1153 31.5662 62.1044 32.0005C63.0935 32.4349 64.1969 32.5482 65.2555 32.3243C65.733 32.8547 66.3198 33.2786 66.9766 33.5675C67.6334 33.8565 68.3452 34.0039 69.0644 33.9999C70.1488 34.0009 71.2055 33.662 72.0819 33.032C72.9584 32.402 73.6092 31.5137 73.9405 30.4951C74.6452 30.3523 75.311 30.0628 75.8934 29.6461C76.4758 29.2293 76.9614 28.6949 77.3178 28.0784C77.8562 27.1558 78.0851 26.0889 77.9717 25.0302C77.8582 23.9716 77.4083 22.9754 76.6863 22.1842ZM69.0644 32.6909C68.1763 32.6923 67.316 32.3853 66.6344 31.8236L66.7542 31.7566L70.791 29.4581C70.8915 29.4 70.9749 29.3171 71.0331 29.2175C71.0912 29.118 71.1221 29.0052 71.1228 28.8904L71.1228 23.2763L72.8293 24.2501C72.8377 24.2543 72.845 24.2605 72.8506 24.268C72.8562 24.2755 72.8599 24.2842 72.8614 24.2934L72.8614 28.9456C72.8593 29.9383 72.4585 30.8897 71.7469 31.5916C71.0353 32.2936 70.0707 32.6888 69.0644 32.6909ZM60.9029 29.2531C60.4575 28.4945 60.2976 27.6052 60.4513 26.7417L60.5712 26.8127L64.612 29.1112C64.712 29.1691 64.8258 29.1996 64.9417 29.1996C65.0576 29.1996 65.1715 29.1691 65.2714 29.1112L70.2075 26.3041L70.2075 28.2478C70.207 28.2578 70.2043 28.2677 70.1994 28.2766C70.1946 28.2854 70.1877 28.2931 70.1795 28.299L66.0907 30.6251C65.2181 31.1209 64.1817 31.255 63.2091 30.9977C62.2364 30.7405 61.407 30.113 60.9029 29.2531ZM59.8398 20.5796C60.2883 19.8161 60.9962 19.2337 61.8382 18.9356L61.8382 23.6666C61.8367 23.7809 61.8663 23.8935 61.9239 23.9927C61.9816 24.0918 62.0651 24.1739 62.1659 24.2304L67.078 27.0256L65.3714 27.9994C65.3621 28.0042 65.3518 28.0067 65.3414 28.0067C65.3309 28.0067 65.3206 28.0042 65.3114 27.9994L61.2307 25.6773C60.3597 25.1793 59.7244 24.3611 59.4637 23.402C59.203 22.4429 59.3382 21.4209 59.8398 20.56L59.8398 20.5796ZM73.8606 23.7928L68.9325 20.97L70.6351 20C70.6444 19.9951 70.6547 19.9926 70.6651 19.9926C70.6756 19.9926 70.6859 19.9951 70.6951 20L74.7758 22.326C75.3998 22.6812 75.9084 23.204 76.2424 23.8336C76.5764 24.4632 76.7219 25.1735 76.662 25.8816C76.602 26.5897 76.3391 27.2664 75.904 27.8326C75.4688 28.3989 74.8793 28.8313 74.2043 29.0795L74.2043 24.3485C74.2008 24.2344 74.1672 24.1232 74.1069 24.0257C74.0467 23.9283 73.9618 23.8481 73.8606 23.7928ZM75.5592 21.2735L75.4393 21.2025L71.4065 18.8844C71.3059 18.8262 71.1914 18.7955 71.0748 18.7955C70.9581 18.7955 70.8436 18.8262 70.743 18.8844L65.8111 21.6914L65.8111 19.7478C65.81 19.7379 65.8117 19.7279 65.8159 19.7189C65.8202 19.7099 65.8268 19.7022 65.8351 19.6965L69.9158 17.3744C70.5412 17.019 71.2563 16.8466 71.9774 16.8774C72.6985 16.9081 73.3958 17.1408 73.9878 17.5481C74.5798 17.9555 75.042 18.5206 75.3202 19.1776C75.5985 19.8345 75.6815 20.556 75.5593 21.2577L75.5592 21.2735ZM64.8797 24.7191L63.1732 23.7493C63.1646 23.7442 63.1573 23.7374 63.1518 23.7292C63.1462 23.721 63.1426 23.7117 63.1411 23.702L63.1411 19.0618C63.142 18.3499 63.3484 17.6531 63.736 17.0526C64.1237 16.4522 64.6766 15.973 65.3302 15.6712C65.9837 15.3693 66.7109 15.2572 67.4267 15.348C68.1425 15.4387 68.8172 15.7286 69.3722 16.1837L69.2522 16.2508L65.2155 18.5491C65.115 18.6073 65.0316 18.6902 64.9735 18.7897C64.9153 18.8892 64.8844 19.002 64.8837 19.1169L64.8797 24.7191ZM65.807 22.748L68.0052 21.4981L70.2075 22.748L70.2075 25.2474L68.0132 26.4972L65.811 25.2474L65.807 22.748Z" fill="white"/>
</g>
<defs>
<filter id="filter0_b_1783_23318" x="126.622" y="62.6221" width="156.756" height="156.756" filterUnits="userSpaceOnUse" color-interpolation-filters="sRGB">
<feFlood flood-opacity="0" result="BackgroundImageFix"/>
<feGaussianBlur in="BackgroundImageFix" stdDeviation="27.189"/>
<feComposite in2="SourceAlpha" operator="in" result="effect1_backgroundBlur_1783_23318"/>
<feBlend mode="normal" in="SourceGraphic" in2="effect1_backgroundBlur_1783_23318" result="shape"/>
</filter>
<filter id="filter1_b_1783_23318" x="-47.3779" y="3.62209" width="189.018" height="192.146" filterUnits="userSpaceOnUse" color-interpolation-filters="sRGB">
<feFlood flood-opacity="0" result="BackgroundImageFix"/>
<feGaussianBlur in="BackgroundImageFix" stdDeviation="27.189"/>
<feComposite in2="SourceAlpha" operator="in" result="effect1_backgroundBlur_1783_23318"/>
<feBlend mode="normal" in="SourceGraphic" in2="effect1_backgroundBlur_1783_23318" result="shape"/>
</filter>
<filter id="filter2_b_1783_23318" x="47.6221" y="-54.3779" width="179.756" height="179.756" filterUnits="userSpaceOnUse" color-interpolation-filters="sRGB">
<feFlood flood-opacity="0" result="BackgroundImageFix"/>
<feGaussianBlur in="BackgroundImageFix" stdDeviation="27.189"/>
<feComposite in2="SourceAlpha" operator="in" result="effect1_backgroundBlur_1783_23318"/>
<feBlend mode="normal" in="SourceGraphic" in2="effect1_backgroundBlur_1783_23318" result="shape"/>
</filter>
<filter id="filter3_b_1783_23318" x="47.6221" y="30.6221" width="172.756" height="172.756" filterUnits="userSpaceOnUse" color-interpolation-filters="sRGB">
<feFlood flood-opacity="0" result="BackgroundImageFix"/>
<feGaussianBlur in="BackgroundImageFix" stdDeviation="27.189"/>
<feComposite in2="SourceAlpha" operator="in" result="effect1_backgroundBlur_1783_23318"/>
<feBlend mode="normal" in="SourceGraphic" in2="effect1_backgroundBlur_1783_23318" result="shape"/>
</filter>
<filter id="filter4_b_1783_23318" x="135.622" y="-33.3779" width="190.756" height="190.756" filterUnits="userSpaceOnUse" color-interpolation-filters="sRGB">
<feFlood flood-opacity="0" result="BackgroundImageFix"/>
<feGaussianBlur in="BackgroundImageFix" stdDeviation="27.189"/>
<feComposite in2="SourceAlpha" operator="in" result="effect1_backgroundBlur_1783_23318"/>
<feBlend mode="normal" in="SourceGraphic" in2="effect1_backgroundBlur_1783_23318" result="shape"/>
</filter>
<filter id="filter5_b_1783_23318" x="-8.37791" y="-52.3779" width="151.756" height="151.756" filterUnits="userSpaceOnUse" color-interpolation-filters="sRGB">
<feFlood flood-opacity="0" result="BackgroundImageFix"/>
<feGaussianBlur in="BackgroundImageFix" stdDeviation="27.189"/>
<feComposite in2="SourceAlpha" operator="in" result="effect1_backgroundBlur_1783_23318"/>
<feBlend mode="normal" in="SourceGraphic" in2="effect1_backgroundBlur_1783_23318" result="shape"/>
</filter>
<radialGradient id="paint0_radial_1783_23318" cx="0" cy="0" r="1" gradientUnits="userSpaceOnUse" gradientTransform="translate(48 4.68873e-06) rotate(135) scale(67.8823 62.141)">
<stop stop-color="white"/>
<stop offset="1" stop-color="white" stop-opacity="0.05"/>
</radialGradient>
<radialGradient id="paint1_radial_1783_23318" cx="0" cy="0" r="1" gradientUnits="userSpaceOnUse" gradientTransform="translate(-2.17397e-05 48) rotate(-45) scale(67.8823 25.6147)">
<stop offset="0.104014" stop-color="white"/>
<stop offset="1" stop-color="white" stop-opacity="0.143801"/>
</radialGradient>
<radialGradient id="paint2_radial_1783_23318" cx="0" cy="0" r="1" gradientUnits="userSpaceOnUse" gradientTransform="translate(48 0.166329) rotate(135.099) scale(67.7648 25.5318)">
<stop offset="0.104014" stop-color="white"/>
<stop offset="1" stop-color="white" stop-opacity="0.143801"/>
</radialGradient>
<radialGradient id="paint3_radial_1783_23318" cx="0" cy="0" r="1" gradientUnits="userSpaceOnUse" gradientTransform="translate(80.2622 8.14566e-06) rotate(133.905) scale(115.74 105.874)">
<stop stop-color="white"/>
<stop offset="1" stop-color="white" stop-opacity="0.05"/>
</radialGradient>
<radialGradient id="paint4_radial_1783_23318" cx="0" cy="0" r="1" gradientUnits="userSpaceOnUse" gradientTransform="translate(-3.63515e-05 83.3896) rotate(-46.0948) scale(115.74 43.6416)">
<stop offset="0.104014" stop-color="white"/>
<stop offset="1" stop-color="white" stop-opacity="0.143801"/>
</radialGradient>
<radialGradient id="paint5_radial_1783_23318" cx="0" cy="0" r="1" gradientUnits="userSpaceOnUse" gradientTransform="translate(80.2622 0.288961) rotate(134.005) scale(115.532 43.5033)">
<stop offset="0.104014" stop-color="white"/>
<stop offset="1" stop-color="white" stop-opacity="0.143801"/>
</radialGradient>
<radialGradient id="paint6_radial_1783_23318" cx="0" cy="0" r="1" gradientUnits="userSpaceOnUse" gradientTransform="translate(70.9997 6.93542e-06) rotate(135) scale(100.409 91.9168)">
<stop stop-color="white"/>
<stop offset="1" stop-color="white" stop-opacity="0.05"/>
</radialGradient>
<radialGradient id="paint7_radial_1783_23318" cx="0" cy="0" r="1" gradientUnits="userSpaceOnUse" gradientTransform="translate(-3.21565e-05 71) rotate(-45.0001) scale(100.409 37.8883)">
<stop offset="0.104014" stop-color="white"/>
<stop offset="1" stop-color="white" stop-opacity="0.143801"/>
</radialGradient>
<radialGradient id="paint8_radial_1783_23318" cx="0" cy="0" r="1" gradientUnits="userSpaceOnUse" gradientTransform="translate(70.9998 0.246028) rotate(135.099) scale(100.235 37.7657)">
<stop offset="0.104014" stop-color="white"/>
<stop offset="1" stop-color="white" stop-opacity="0.143801"/>
</radialGradient>
<radialGradient id="paint9_radial_1783_23318" cx="0" cy="0" r="1" gradientUnits="userSpaceOnUse" gradientTransform="translate(63.9998 6.25164e-06) rotate(135) scale(90.5096 82.8546)">
<stop stop-color="white"/>
<stop offset="1" stop-color="white" stop-opacity="0.05"/>
</radialGradient>
<radialGradient id="paint10_radial_1783_23318" cx="0" cy="0" r="1" gradientUnits="userSpaceOnUse" gradientTransform="translate(-2.89862e-05 64) rotate(-45.0001) scale(90.5096 34.1529)">
<stop offset="0.104014" stop-color="white"/>
<stop offset="1" stop-color="white" stop-opacity="0.143801"/>
</radialGradient>
<radialGradient id="paint11_radial_1783_23318" cx="0" cy="0" r="1" gradientUnits="userSpaceOnUse" gradientTransform="translate(63.9999 0.221772) rotate(135.099) scale(90.3529 34.0424)">
<stop offset="0.104014" stop-color="white"/>
<stop offset="1" stop-color="white" stop-opacity="0.143801"/>
</radialGradient>
<radialGradient id="paint12_radial_1783_23318" cx="0" cy="0" r="1" gradientUnits="userSpaceOnUse" gradientTransform="translate(81.9997 8.00991e-06) rotate(135) scale(115.965 106.157)">
<stop stop-color="white"/>
<stop offset="1" stop-color="white" stop-opacity="0.05"/>
</radialGradient>
<radialGradient id="paint13_radial_1783_23318" cx="0" cy="0" r="1" gradientUnits="userSpaceOnUse" gradientTransform="translate(-3.71385e-05 81.9999) rotate(-45.0001) scale(115.965 43.7583)">
<stop offset="0.104014" stop-color="white"/>
<stop offset="1" stop-color="white" stop-opacity="0.143801"/>
</radialGradient>
<radialGradient id="paint14_radial_1783_23318" cx="0" cy="0" r="1" gradientUnits="userSpaceOnUse" gradientTransform="translate(81.9997 0.284145) rotate(135.099) scale(115.765 43.6167)">
<stop offset="0.104014" stop-color="white"/>
<stop offset="1" stop-color="white" stop-opacity="0.143801"/>
</radialGradient>
<linearGradient id="paint15_linear_1783_23318" x1="206" y1="53" x2="234.652" y2="98.8426" gradientUnits="userSpaceOnUse">
<stop stop-color="#004695"/>
<stop offset="1" stop-color="#0078D4"/>
</linearGradient>
<linearGradient id="paint16_linear_1783_23318" x1="206" y1="45.5625" x2="234.652" y2="91.4051" gradientUnits="userSpaceOnUse">
<stop stop-color="#0078D4"/>
<stop offset="1" stop-color="#0FAFFF"/>
</linearGradient>
<linearGradient id="paint17_linear_1783_23318" x1="207.275" y1="38.125" x2="235.927" y2="83.9677" gradientUnits="userSpaceOnUse">
<stop stop-color="#3BD5FF"/>
<stop offset="1" stop-color="#0FAFFF"/>
</linearGradient>
<radialGradient id="paint18_radial_1783_23318" cx="0" cy="0" r="1" gradientUnits="userSpaceOnUse" gradientTransform="translate(228.312 53) rotate(90) scale(3.1875 3.09584)">
<stop stop-color="#00204D"/>
<stop offset="1" stop-color="#00204D" stop-opacity="0"/>
</radialGradient>
<radialGradient id="paint19_radial_1783_23318" cx="0" cy="0" r="1" gradientUnits="userSpaceOnUse" gradientTransform="translate(231.5 51.9375) rotate(-14.0362) scale(4.3808 1.21327)">
<stop stop-color="#00204D"/>
<stop offset="1" stop-color="#00204D" stop-opacity="0"/>
</radialGradient>
<radialGradient id="paint20_radial_1783_23318" cx="0" cy="0" r="1" gradientUnits="userSpaceOnUse" gradientTransform="translate(225.125 51.9375) rotate(-165.964) scale(4.3808 1.22647)">
<stop stop-color="#00204D"/>
<stop offset="1" stop-color="#00204D" stop-opacity="0"/>
</radialGradient>
<radialGradient id="paint21_radial_1783_23318" cx="0" cy="0" r="1" gradientUnits="userSpaceOnUse" gradientTransform="translate(234.687 59.375) rotate(-153.435) scale(2.37582 1.14432)">
<stop stop-color="#00204D"/>
<stop offset="1" stop-color="#00204D" stop-opacity="0"/>
</radialGradient>
<radialGradient id="paint22_radial_1783_23318" cx="0" cy="0" r="1" gradientUnits="userSpaceOnUse" gradientTransform="translate(238.937 59.375) rotate(-26.565) scale(2.37582 0.925087)">
<stop stop-color="#00204D"/>
<stop offset="1" stop-color="#00204D" stop-opacity="0"/>
</radialGradient>
<radialGradient id="paint23_radial_1783_23318" cx="0" cy="0" r="1" gradientUnits="userSpaceOnUse" gradientTransform="translate(236.813 60.4375) rotate(90) scale(2.125 2.00024)">
<stop offset="0.0638343" stop-color="#00204D"/>
<stop offset="1" stop-color="#00204D" stop-opacity="0"/>
</radialGradient>
<linearGradient id="paint24_linear_1783_23318" x1="224.909" y1="45.8807" x2="230.941" y2="63.286" gradientUnits="userSpaceOnUse">
<stop stop-color="white"/>
<stop offset="1" stop-color="#DFFAFF"/>
</linearGradient>
<linearGradient id="paint25_linear_1783_23318" x1="224.909" y1="45.8807" x2="230.941" y2="63.286" gradientUnits="userSpaceOnUse">
<stop stop-color="white"/>
<stop offset="1" stop-color="#DFFAFF"/>
</linearGradient>
<radialGradient id="paint26_radial_1783_23318" cx="0" cy="0" r="1" gradientUnits="userSpaceOnUse" gradientTransform="translate(42.9999 4.20032e-06) rotate(135) scale(60.8111 55.6679)">
<stop stop-color="white"/>
<stop offset="1" stop-color="white" stop-opacity="0.05"/>
</radialGradient>
<radialGradient id="paint27_radial_1783_23318" cx="0" cy="0" r="1" gradientUnits="userSpaceOnUse" gradientTransform="translate(-1.94751e-05 43) rotate(-45.0001) scale(60.8111 22.9465)">
<stop offset="0.104014" stop-color="white"/>
<stop offset="1" stop-color="white" stop-opacity="0.143801"/>
</radialGradient>
<radialGradient id="paint28_radial_1783_23318" cx="0" cy="0" r="1" gradientUnits="userSpaceOnUse" gradientTransform="translate(42.9999 0.149003) rotate(135.099) scale(60.7059 22.8722)">
<stop offset="0.104014" stop-color="white"/>
<stop offset="1" stop-color="white" stop-opacity="0.143801"/>
</radialGradient>
<linearGradient id="paint29_linear_1783_23318" x1="56" y1="11.5" x2="75.5" y2="33.5" gradientUnits="userSpaceOnUse">
<stop offset="0.131693" stop-color="#72ABE6"/>
<stop offset="0.5" stop-color="#CF4794" stop-opacity="0.8"/>
<stop offset="0.902477" stop-color="#FA8C7A"/>
</linearGradient>
<clipPath id="clip0_1783_23318">
<rect width="26" height="26" fill="white" transform="translate(192 128.301)"/>
</clipPath>
<clipPath id="clip1_1783_23318">
<rect width="39" height="39" fill="white" transform="translate(28 81)"/>
</clipPath>
<clipPath id="clip2_1783_23318">
<rect width="45" height="45" fill="white" transform="translate(116 15)"/>
</clipPath>
<clipPath id="clip3_1783_23318">
<rect width="38" height="38" fill="white" transform="translate(115 98)"/>
</clipPath>
</defs>
</svg>
