<svg width="96" height="96" viewBox="0 0 96 96" fill="none" xmlns="http://www.w3.org/2000/svg">
<g clip-path="url(#clip0_4303_1230)">
<g clip-path="url(#clip1_4303_1230)">
<path d="M92 24.001L92 83.2006C92 87.6189 88.4183 91.2006 84 91.2006H12C7.58172 91.2006 4 87.6189 4 83.2006L4.00002 24.001L34.0087 20.001L92 24.001Z" fill="url(#paint0_linear_4303_1230)"/>
<path d="M92 24.001L92 83.2006C92 87.6189 88.4183 91.2006 84 91.2006H12C7.58172 91.2006 4 87.6189 4 83.2006L4.00002 24.001L34.0087 20.001L92 24.001Z" fill="url(#paint1_linear_4303_1230)"/>
<path d="M4 24.0005L4 11.9995C4 7.58123 7.58172 3.99951 12 3.99951H84C88.4183 3.99951 92 7.58123 92 11.9995V24.0005H4Z" fill="url(#paint2_linear_4303_1230)"/>
<path d="M68 78C68 82.4183 64.4183 86 60 86H32C27.5817 86 24 82.4183 24 78V30H68V78Z" fill="url(#paint3_radial_4303_1230)" fill-opacity="0.4"/>
<path d="M68 78C68 82.4183 64.4183 86 60 86H32C27.5817 86 24 82.4183 24 78V30H68V78Z" fill="url(#paint4_radial_4303_1230)" fill-opacity="0.4"/>
<path d="M68 78C68 82.4183 64.4183 86 60 86H32C27.5817 86 24 82.4183 24 78V30H68V78Z" fill="url(#paint5_radial_4303_1230)" fill-opacity="0.4"/>
<path d="M68 78C68 82.4183 64.4183 86 60 86H32C27.5817 86 24 82.4183 24 78V30H68V78Z" fill="url(#paint6_radial_4303_1230)" fill-opacity="0.4"/>
<path d="M68 78C68 82.4183 64.4183 86 60 86H32C27.5817 86 24 82.4183 24 78V30H68V78Z" fill="url(#paint7_radial_4303_1230)" fill-opacity="0.4"/>
<path d="M68 78C68 82.4183 64.4183 86 60 86H32C27.5817 86 24 82.4183 24 78V30H68V78Z" fill="url(#paint8_radial_4303_1230)" fill-opacity="0.4"/>
<path d="M45.1115 36.7988L43.6189 32.2096C43.494 31.8559 43.2624 31.5497 42.956 31.333C42.6496 31.1163 42.2835 31 41.9081 31C41.5328 31 41.1667 31.1163 40.8603 31.333C40.5539 31.5497 40.3223 31.8559 40.1974 32.2096L38.7048 36.7988C38.2499 38.1842 37.4805 39.4457 36.4567 40.4846C35.4329 41.5235 34.1825 42.3117 32.8032 42.7876L28.2106 44.2791C27.8566 44.4039 27.5501 44.6353 27.3333 44.9415C27.1164 45.2476 27 45.6135 27 45.9885C27 46.3636 27.1164 46.7294 27.3333 47.0356C27.5501 47.3418 27.8566 47.5732 28.2106 47.698L32.8032 49.1895C33.9823 49.5823 35.0701 50.2028 36.006 51.0131C36.1803 51.1641 36.3494 51.3217 36.5129 51.4857C37.3724 52.3478 38.0555 53.366 38.5271 54.4828C38.6264 54.7181 38.7164 54.9577 38.7966 55.2012L40.2892 59.7904C40.4018 60.1092 40.6011 60.3895 40.8637 60.6004C40.8924 60.6234 40.9219 60.6457 40.9521 60.667C41.2585 60.8837 41.6246 61 42 61C42.3754 61 42.7415 60.8837 43.0479 60.667C43.3543 60.4504 43.5859 60.1441 43.7108 59.7904L45.2034 55.2012C45.6675 53.8061 46.4509 52.5383 47.4913 51.4986C48.5318 50.459 49.8005 49.6762 51.1968 49.2124L55.7894 47.7209C56.1434 47.5962 56.4499 47.3647 56.6667 47.0586C56.8836 46.7524 57 46.3866 57 46.0115C57 45.6364 56.8836 45.2706 56.6667 44.9644C56.4499 44.6582 56.1434 44.4268 55.7894 44.302L55.6976 44.2791L51.1049 42.7876C49.7087 42.3238 48.4399 41.541 47.3995 40.5014C46.3591 39.4618 45.5757 38.194 45.1115 36.7988Z" fill="#242424"/>
<path d="M45.1115 36.7988L43.6189 32.2096C43.494 31.8559 43.2624 31.5497 42.956 31.333C42.6496 31.1163 42.2835 31 41.9081 31C41.5328 31 41.1667 31.1163 40.8603 31.333C40.5539 31.5497 40.3223 31.8559 40.1974 32.2096L38.7048 36.7988C38.2499 38.1842 37.4805 39.4457 36.4567 40.4846C35.4329 41.5235 34.1825 42.3117 32.8032 42.7876L28.2106 44.2791C27.8566 44.4039 27.5501 44.6353 27.3333 44.9415C27.1164 45.2476 27 45.6135 27 45.9885C27 46.3636 27.1164 46.7294 27.3333 47.0356C27.5501 47.3418 27.8566 47.5732 28.2106 47.698L32.8032 49.1895C33.9823 49.5823 35.0701 50.2028 36.006 51.0131C36.1803 51.1641 36.3494 51.3217 36.5129 51.4857C37.3724 52.3478 38.0555 53.366 38.5271 54.4828C38.6264 54.7181 38.7164 54.9577 38.7966 55.2012L40.2892 59.7904C40.4018 60.1092 40.6011 60.3895 40.8637 60.6004C40.8924 60.6234 40.9219 60.6457 40.9521 60.667C41.2585 60.8837 41.6246 61 42 61C42.3754 61 42.7415 60.8837 43.0479 60.667C43.3543 60.4504 43.5859 60.1441 43.7108 59.7904L45.2034 55.2012C45.6675 53.8061 46.4509 52.5383 47.4913 51.4986C48.5318 50.459 49.8005 49.6762 51.1968 49.2124L55.7894 47.7209C56.1434 47.5962 56.4499 47.3647 56.6667 47.0586C56.8836 46.7524 57 46.3866 57 46.0115C57 45.6364 56.8836 45.2706 56.6667 44.9644C56.4499 44.6582 56.1434 44.4268 55.7894 44.302L55.6976 44.2791L51.1049 42.7876C49.7087 42.3238 48.4399 41.541 47.3995 40.5014C46.3591 39.4618 45.5757 38.194 45.1115 36.7988Z" fill="url(#paint9_linear_4303_1230)"/>
<path d="M63.463 66.0726L66.2185 66.9674L66.2737 66.9812C66.486 67.0561 66.67 67.1949 66.8 67.3786C66.9301 67.5623 67 67.7819 67 68.0069C67 68.2319 66.9301 68.4514 66.8 68.6351C66.67 68.8188 66.486 68.9577 66.2737 69.0326L63.5181 69.9274C62.6803 70.2057 61.9191 70.6754 61.2948 71.2992C60.6706 71.923 60.2005 72.6836 59.922 73.5207L59.0265 76.2742C58.9515 76.4865 58.8126 76.6702 58.6287 76.8002C58.4449 76.9302 58.2252 77 58 77C57.7748 77 57.5551 76.9302 57.3713 76.8002C57.1874 76.6702 57.0485 76.4865 56.9735 76.2742L56.9707 76.2656L56.078 73.5207C55.8013 72.6811 55.3321 71.9177 54.7077 71.2914C54.0834 70.6651 53.3212 70.1933 52.4819 69.9137L49.7263 69.0188C49.514 68.9439 49.33 68.8051 49.2 68.6214C49.0699 68.4377 49 68.2182 49 67.9931C49 67.7681 49.0699 67.5486 49.2 67.3649C49.33 67.1812 49.514 67.0423 49.7263 66.9674L52.4819 66.0726C53.3095 65.787 54.0597 65.3141 54.674 64.6908C55.2883 64.0674 55.7499 63.3105 56.0229 62.4793L56.9184 59.7258C56.9934 59.5136 57.1323 59.3298 57.3162 59.1998C57.5 59.0698 57.7197 59 57.9449 59C58.1701 59 58.3898 59.0698 58.5736 59.1998C58.7575 59.3298 58.8964 59.5136 58.9713 59.7258L59.8669 62.4793C60.1454 63.3164 60.6154 64.0771 61.2397 64.7008C61.8639 65.3246 62.6252 65.7943 63.463 66.0726Z" fill="#242424"/>
<path d="M63.463 66.0726L66.2185 66.9674L66.2737 66.9812C66.486 67.0561 66.67 67.1949 66.8 67.3786C66.9301 67.5623 67 67.7819 67 68.0069C67 68.2319 66.9301 68.4514 66.8 68.6351C66.67 68.8188 66.486 68.9577 66.2737 69.0326L63.5181 69.9274C62.6803 70.2057 61.9191 70.6754 61.2948 71.2992C60.6706 71.923 60.2005 72.6836 59.922 73.5207L59.0265 76.2742C58.9515 76.4865 58.8126 76.6702 58.6287 76.8002C58.4449 76.9302 58.2252 77 58 77C57.7748 77 57.5551 76.9302 57.3713 76.8002C57.1874 76.6702 57.0485 76.4865 56.9735 76.2742L56.9707 76.2656L56.078 73.5207C55.8013 72.6811 55.3321 71.9177 54.7077 71.2914C54.0834 70.6651 53.3212 70.1933 52.4819 69.9137L49.7263 69.0188C49.514 68.9439 49.33 68.8051 49.2 68.6214C49.0699 68.4377 49 68.2182 49 67.9931C49 67.7681 49.0699 67.5486 49.2 67.3649C49.33 67.1812 49.514 67.0423 49.7263 66.9674L52.4819 66.0726C53.3095 65.787 54.0597 65.3141 54.674 64.6908C55.2883 64.0674 55.7499 63.3105 56.0229 62.4793L56.9184 59.7258C56.9934 59.5136 57.1323 59.3298 57.3162 59.1998C57.5 59.0698 57.7197 59 57.9449 59C58.1701 59 58.3898 59.0698 58.5736 59.1998C58.7575 59.3298 58.8964 59.5136 58.9713 59.7258L59.8669 62.4793C60.1454 63.3164 60.6154 64.0771 61.2397 64.7008C61.8639 65.3246 62.6252 65.7943 63.463 66.0726Z" fill="url(#paint10_linear_4303_1230)"/>
</g>
</g>
<defs>
<linearGradient id="paint0_linear_4303_1230" x1="48.0086" y1="82.001" x2="48.0086" y2="37.7905" gradientUnits="userSpaceOnUse">
<stop stop-color="#0091EB"/>
<stop offset="1" stop-color="#3DCBFF"/>
</linearGradient>
<linearGradient id="paint1_linear_4303_1230" x1="8.0086" y1="24.001" x2="-5.69754" y2="84.9171" gradientUnits="userSpaceOnUse">
<stop stop-color="#0FAFFF"/>
<stop offset="1" stop-color="#0078D4"/>
</linearGradient>
<linearGradient id="paint2_linear_4303_1230" x1="8.0086" y1="8.00054" x2="17.4204" y2="45.6476" gradientUnits="userSpaceOnUse">
<stop stop-color="#0078D4"/>
<stop offset="1" stop-color="#004695"/>
</linearGradient>
<radialGradient id="paint3_radial_4303_1230" cx="0" cy="0" r="1" gradientUnits="userSpaceOnUse" gradientTransform="translate(42 54) rotate(90) scale(10 6.47819)">
<stop stop-color="#00204D"/>
<stop offset="1" stop-color="#00204D" stop-opacity="0"/>
</radialGradient>
<radialGradient id="paint4_radial_4303_1230" cx="0" cy="0" r="1" gradientUnits="userSpaceOnUse" gradientTransform="translate(48 52) rotate(-14.0362) scale(8.24621 3.31219)">
<stop stop-color="#00204D"/>
<stop offset="1" stop-color="#00204D" stop-opacity="0"/>
</radialGradient>
<radialGradient id="paint5_radial_4303_1230" cx="0" cy="0" r="1" gradientUnits="userSpaceOnUse" gradientTransform="translate(36 52) rotate(-165.964) scale(8.24621 3.34822)">
<stop stop-color="#00204D"/>
<stop offset="1" stop-color="#00204D" stop-opacity="0"/>
</radialGradient>
<radialGradient id="paint6_radial_4303_1230" cx="0" cy="0" r="1" gradientUnits="userSpaceOnUse" gradientTransform="translate(54 72) rotate(-153.435) scale(4.47213 2.87086)">
<stop stop-color="#00204D"/>
<stop offset="1" stop-color="#00204D" stop-opacity="0"/>
</radialGradient>
<radialGradient id="paint7_radial_4303_1230" cx="0" cy="0" r="1" gradientUnits="userSpaceOnUse" gradientTransform="translate(62 72) rotate(-26.565) scale(4.47213 2.32085)">
<stop stop-color="#00204D"/>
<stop offset="1" stop-color="#00204D" stop-opacity="0"/>
</radialGradient>
<radialGradient id="paint8_radial_4303_1230" cx="0" cy="0" r="1" gradientUnits="userSpaceOnUse" gradientTransform="translate(58 74) rotate(90) scale(6 3.76705)">
<stop offset="0.0638343" stop-color="#00204D"/>
<stop offset="1" stop-color="#00204D" stop-opacity="0"/>
</radialGradient>
<linearGradient id="paint9_linear_4303_1230" x1="29.8179" y1="31.3827" x2="52.7047" y2="78.6571" gradientUnits="userSpaceOnUse">
<stop stop-color="white"/>
<stop offset="1" stop-color="#DFFAFF"/>
</linearGradient>
<linearGradient id="paint10_linear_4303_1230" x1="36.967" y1="37.7214" x2="56.192" y2="77.432" gradientUnits="userSpaceOnUse">
<stop stop-color="white"/>
<stop offset="1" stop-color="#DFFAFF"/>
</linearGradient>
<clipPath id="clip0_4303_1230">
<rect width="96" height="96" fill="white"/>
</clipPath>
<clipPath id="clip1_4303_1230">
<rect width="96" height="96" fill="white"/>
</clipPath>
</defs>
</svg>
